{
.appVersion = "895";
DisplayStrings = (
a,
/alef/bet/gimel/dalet/he/vav/zayin/het/yod/tet/yod/kaf/finalkaf/lamed/mem/finalmem/nun/finalnun/samekh/ayin/pe/finalpe/tsadi/finaltsadi/qof/resh/shin/tav,
ibe,
i,
"burst\012fdgret",
mashat
);
copyright = "Copyright © 2016 by Tamirp.com. All rights reserved.";
customParameters = (
{
name = description;
value = "";
},
{
name = vendorID;
value = "";
},
{
name = glyphOrder;
value = (
.notdef,
.null,
nonmarkingreturn,
_3,
_4,
_5,
_6,
_7,
_8,
_9,
_10,
_11,
_12,
_13,
_14,
_15,
_16,
_17,
_18,
_19,
_20,
_21,
_22,
_23,
_24,
_25,
_26,
_27,
_28,
_29,
_30,
_31,
space,
exclam,
quotedbl,
numbersign,
dollar,
percent,
ampersand,
quotesingle,
parenleft,
parenright,
asterisk,
plus,
comma,
hyphen,
period,
slash,
zero,
one,
two,
three,
four,
five,
six,
seven,
eight,
nine,
colon,
semicolon,
less,
equal,
greater,
question,
at,
A,
B,
C,
D,
E,
F,
G,
H,
I,
J,
K,
L,
M,
N,
O,
P,
Q,
R,
S,
T,
U,
V,
W,
X,
Y,
Z,
bracketleft,
backslash,
bracketright,
asciicircum,
underscore,
grave,
a,
b,
c,
d,
e,
f,
g,
h,
i,
j,
k,
l,
m,
n,
o,
p,
q,
r,
s,
t,
u,
v,
w,
x,
y,
z,
braceleft,
bar,
braceright,
asciitilde,
Adieresis,
Aring,
Ccedilla,
Eacute,
Ntilde,
Odieresis,
Udieresis,
aacute,
agrave,
acircumflex,
adieresis,
atilde,
aring,
ccedilla,
eacute,
egrave,
ecircumflex,
edieresis,
iacute,
igrave,
icircumflex,
idieresis,
ntilde,
oacute,
ograve,
ocircumflex,
odieresis,
otilde,
uacute,
ugrave,
ucircumflex,
udieresis,
dagger,
degree,
cent,
sterling,
section,
bullet,
paragraph,
germandbls,
registered,
copyright,
trademark,
acute,
dieresis,
AE,
Oslash,
plusminus,
yen,
mu1,
ordfeminine,
ordmasculine,
ae,
oslash,
questiondown,
exclamdown,
logicalnot,
guillemotleft,
guillemotright,
ellipsis,
Agrave,
Atilde,
Otilde,
OE,
oe,
endash,
emdash,
quotedblleft,
quotedblright,
quoteleft,
quoteright,
divide,
ydieresis,
Ydieresis,
Euro,
guilsinglleft,
guilsinglright,
fi,
fl,
daggerdbl,
middot,
quotesinglbase,
quotedblbase,
perthousand,
Acircumflex,
Ecircumflex,
Aacute,
Edieresis,
Egrave,

glyphs = (
{
glyphname = .notdef;
layers = (
{
layerId = "EC1CA293-A2FE-4C5B-B0FE-1EC2B6DFF2A6";
paths = (
{
closed = 1;
nodes = (
"639 0 LINE",
"639 625 LINE",
"139 625 LINE",
"139 0 LINE"
);
},
{
closed = 1;
nodes = (
"154 609 LINE",
"623 609 LINE",
"623 16 LINE",
"154 16 LINE"
);
}
);
width = 778;
}
);
},
{
glyphname = exclam;
layers = (
{
layerId = "EC1CA293-A2FE-4C5B-B0FE-1EC2B6DFF2A6";
paths = (
{
closed = 1;
nodes = (
"230 696 LINE",
"71 696 LINE",
"71 221 LINE",
"195 221 LINE",
"217 276 LINE SMOOTH",
"225 296 OFFCURVE",
"230 313 OFFCURVE",
"230 338 CURVE SMOOTH"
);
},
{
closed = 1;
nodes = (
"222 1 LINE",
"222 150 LINE",
"70 150 LINE",
"70 1 LINE"
);
}
);
width = 300;
}
);
unicode = 0021;
},
{
glyphname = quotedbl;
layers = (
{
layerId = "EC1CA293-A2FE-4C5B-B0FE-1EC2B6DFF2A6";
paths = (
{
closed = 1;
nodes = (
"465 585 LINE",
"306 585 LINE",
"246 275 LINE",
"372 275 LINE"
);
},
{
closed = 1;
nodes = (
"249 585 LINE",
"90 585 LINE",
"30 275 LINE",
"156 275 LINE"
);
}
);
width = 485;
}
);
unicode = 0022;
},
{
glyphname = numbersign;
layers = (
{
layerId = "EC1CA293-A2FE-4C5B-B0FE-1EC2B6DFF2A6";
paths = (
{
closed = 1;
nodes = (
"372 260 LINE",
"277 260 LINE",
"299 337 LINE",
"394 337 LINE"
);
},
{
closed = 1;
nodes = (
"329 436 LINE",
"373 585 LINE",
"267 585 LINE",
"223 436 LINE",
"58 436 LINE",
"58 337 LINE",
"193 337 LINE",
"171 260 LINE",
"58 260 LINE",
"58 161 LINE",
"141 161 LINE",
"94 1 LINE",
"200 1 LINE",
"247 161 LINE",
"342 161 LINE",
"295 1 LINE",
"401 1 LINE",
"448 161 LINE",
"618 161 LINE",
"618 260 LINE",
"478 260 LINE",
"500 337 LINE",
"618 337 LINE",
"618 436 LINE",
"530 436 LINE",
"574 585 LINE",
"468 585 LINE",
"424 436 LINE"
);
}
);
width = 678;
}
);
unicode = 0023;
},
{
glyphname = dollar;
layers = (
{
layerId = "EC1CA293-A2FE-4C5B-B0FE-1EC2B6DFF2A6";
paths = (
{
closed = 1;
nodes = (
"358 235 LINE",
"394 235 LINE SMOOTH",
"398 235 OFFCURVE",
"403 230 OFFCURVE",
"403 226 CURVE SMOOTH",
"403 152 LINE SMOOTH",
"403 148 OFFCURVE",
"398 143 OFFCURVE",
"394 143 CURVE SMOOTH",
"358 143 LINE"
);
},
{
closed = 1;
nodes = (
"263 443 LINE",
"263 351 LINE",
"224 351 LINE SMOOTH",
"220 351 OFFCURVE",
"215 356 OFFCURVE",
"215 360 CURVE SMOOTH",
"215 434 LINE SMOOTH",
"215 438 OFFCURVE",
"220 443 OFFCURVE",
"224 443 CURVE SMOOTH"
);
},
{
closed = 1;
nodes = (
"70 363 LINE SMOOTH",
"70 298 OFFCURVE",
"136 235 OFFCURVE",
"199 235 CURVE SMOOTH",
"263 235 LINE",
"263 143 LINE",
"225 143 LINE SMOOTH",
"221 143 OFFCURVE",
"216 148 OFFCURVE",
"216 152 CURVE SMOOTH",
"216 180 LINE",
"71 180 LINE",
"71 161 LINE SMOOTH",
"71 80 OFFCURVE",
"153 1 OFFCURVE",
"232 1 CURVE SMOOTH",
"263 1 LINE",
"263 -69 LINE",
"358 -69 LINE",
"358 1 LINE",
"387 1 LINE SMOOTH",
"466 1 OFFCURVE",
"548 80 OFFCURVE",
"548 161 CURVE SMOOTH",
"548 223 LINE SMOOTH",
"548 288 OFFCURVE",
"482 351 OFFCURVE",
"419 351 CURVE SMOOTH",
"358 351 LINE",
"358 443 LINE",
"393 443 LINE SMOOTH",
"397 443 OFFCURVE",
"402 438 OFFCURVE",
"402 434 CURVE SMOOTH",
"402 406 LINE",
"547 406 LINE",
"547 425 LINE SMOOTH",
"547 506 OFFCURVE",
"465 585 OFFCURVE",
"386 585 CURVE SMOOTH",
"358 585 LINE",
"358 676 LINE",
"263 676 LINE",
"263 585 LINE",
"231 585 LINE SMOOTH",
"152 585 OFFCURVE",
"70 506 OFFCURVE",
"70 425 CURVE SMOOTH"
);
}
);
width = 618;
}
);
unicode = 0024;
},
{
glyphname = percent;
layers = (
{
layerId = "EC1CA293-A2FE-4C5B-B0FE-1EC2B6DFF2A6";
paths = (
{
closed = 1;
nodes = (
"135 503 LINE SMOOTH",
"135 510 OFFCURVE",
"143 518 OFFCURVE",
"149 518 CURVE SMOOTH",
"225 518 LINE SMOOTH",
"232 518 OFFCURVE",
"240 510 OFFCURVE",
"240 503 CURVE SMOOTH",
"240 345 LINE SMOOTH",
"240 339 OFFCURVE",
"232 330 OFFCURVE",
"225 330 CURVE SMOOTH",
"149 330 LINE SMOOTH",
"143 330 OFFCURVE",
"135 339 OFFCURVE",
"135 345 CURVE SMOOTH"
);
},
{
closed = 1;
nodes = (
"70 339 LINE SMOOTH",
"70 304 OFFCURVE",
"110 264 OFFCURVE",
"146 264 CURVE SMOOTH",
"229 264 LINE SMOOTH",
"265 264 OFFCURVE",
"305 304 OFFCURVE",
"305 339 CURVE SMOOTH",
"305 510 LINE SMOOTH",
"305 544 OFFCURVE",
"265 585 OFFCURVE",
"229 585 CURVE SMOOTH",
"146 585 LINE SMOOTH",
"110 585 OFFCURVE",
"70 544 OFFCURVE",
"70 510 CURVE SMOOTH"
);
},
{
closed = 1;
nodes = (
"513 241 LINE SMOOTH",
"513 247 OFFCURVE",
"521 256 OFFCURVE",
"527 256 CURVE SMOOTH",
"603 256 LINE SMOOTH",
"610 256 OFFCURVE",
"618 247 OFFCURVE",
"618 241 CURVE SMOOTH",
"618 83 LINE SMOOTH",
"618 76 OFFCURVE",
"610 68 OFFCURVE",
"603 68 CURVE SMOOTH",
"527 68 LINE SMOOTH",
"521 68 OFFCURVE",
"513 76 OFFCURVE",
"513 83 CURVE SMOOTH"
);
},
{
closed = 1;
nodes = (
"448 76 LINE SMOOTH",
"448 42 OFFCURVE",
"488 1 OFFCURVE",
"523 1 CURVE SMOOTH",
"607 1 LINE SMOOTH",
"643 1 OFFCURVE",
"683 42 OFFCURVE",
"683 76 CURVE SMOOTH",
"683 247 LINE SMOOTH",
"683 282 OFFCURVE",
"643 322 OFFCURVE",
"607 322 CURVE SMOOTH",
"523 322 LINE SMOOTH",
"488 322 OFFCURVE",
"448 282 OFFCURVE",
"448 247 CURVE SMOOTH"
);
},
{
closed = 1;
nodes = (
"510 585 LINE",
"416 585 LINE",
"243 1 LINE",
"337 1 LINE"
);
}
);
width = 752;
}
);
unicode = 0025;
},
{
glyphname = ampersand;
layers = (
{
layerId = "EC1CA293-A2FE-4C5B-B0FE-1EC2B6DFF2A6";
paths = (
{
closed = 1;
nodes = (
"731 1 LINE",
"611 145 LINE",
"662 206 OFFCURVE",
"682 285 OFFCURVE",
"683 385 CURVE",
"604 385 LINE",
"604 297 OFFCURVE",
"592 253 OFFCURVE",
"560 206 CURVE",
"360 447 LINE",
"369 454 OFFCURVE",
"384 464 OFFCURVE",
"396 472 CURVE SMOOTH",
"418 487 LINE SMOOTH",
"469 522 OFFCURVE",
"505 563 OFFCURVE",
"505 626 CURVE SMOOTH",
"505 720 OFFCURVE",
"433 791 OFFCURVE",
"335 791 CURVE SMOOTH",
"235 791 OFFCURVE",
"162 720 OFFCURVE",
"162 627 CURVE SMOOTH",
"162 558 OFFCURVE",
"208 502 OFFCURVE",
"247 457 CURVE",
"162 401 OFFCURVE",
"77 340 OFFCURVE",
"77 222 CURVE SMOOTH",
"77 86 OFFCURVE",
"173 -5 OFFCURVE",
"325 -5 CURVE SMOOTH",
"451 -5 OFFCURVE",
"523 57 OFFCURVE",
"556 87 CURVE",
"626 1 LINE"
);
},
{
closed = 1;
nodes = (
"427 581 OFFCURVE",
"393 555 OFFCURVE",
"357 528 CURVE",
"341 517 LINE",
"332 510 OFFCURVE",
"322 504 OFFCURVE",
"315 500 CURVE",
"263 561 OFFCURVE",
"244 592 OFFCURVE",
"244 628 CURVE SMOOTH",
"244 681 OFFCURVE",
"280 720 OFFCURVE",
"335 720 CURVE SMOOTH",
"387 720 OFFCURVE",
"427 679 OFFCURVE",
"427 626 CURVE SMOOTH"
);
},
{
closed = 1;
nodes = (
"509 144 LINE",
"441 84 OFFCURVE",
"383 68 OFFCURVE",
"324 68 CURVE SMOOTH",
"227 68 OFFCURVE",
"159 132 OFFCURVE",
"159 225 CURVE SMOOTH",
"159 314 OFFCURVE",
"226 359 OFFCURVE",
"293 404 CURVE"
);
}
);
width = 799;
}
);
unicode = 0026;
},
{
glyphname = quotesingle;
layers = (
{
layerId = "EC1CA293-A2FE-4C5B-B0FE-1EC2B6DFF2A6";
paths = (
{
closed = 1;
nodes = (
"239 585 LINE",
"80 585 LINE",
"20 275 LINE",
"146 275 LINE"
);
}
);
width = 259;
}
);
unicode = 0027;
},
{
glyphname = parenleft;
layers = (
{
layerId = "EC1CA293-A2FE-4C5B-B0FE-1EC2B6DFF2A6";
paths = (
{
closed = 1;
nodes = (
"250 -39 LINE",
"241 -32 LINE",
"214 -14 OFFCURVE",
"202 5 OFFCURVE",
"202 27 CURVE SMOOTH",
"202 557 LINE SMOOTH",
"202 582 OFFCURVE",
"213 602 OFFCURVE",
"240 616 CURVE",
"250 622 LINE",
"175 731 LINE",
"168 728 LINE",
"90 699 OFFCURVE",
"50 642 OFFCURVE",
"50 559 CURVE SMOOTH",
"50 22 LINE SMOOTH",
"50 -54 OFFCURVE",
"91 -106 OFFCURVE",
"167 -140 CURVE",
"175 -144 LINE"
);
}
);
width = 300;
}
);
unicode = 0028;
},
{
glyphname = parenright;
layers = (
{
layerId = "EC1CA293-A2FE-4C5B-B0FE-1EC2B6DFF2A6";
paths = (
{
closed = 1;
nodes = (
"250 559 LINE SMOOTH",
"250 642 OFFCURVE",
"210 699 OFFCURVE",
"133 728 CURVE SMOOTH",
"125 731 LINE",
"50 622 LINE",
"61 616 LINE SMOOTH",
"87 602 OFFCURVE",
"99 582 OFFCURVE",
"99 557 CURVE SMOOTH",
"99 27 LINE SMOOTH",
"99 5 OFFCURVE",
"86 -14 OFFCURVE",
"60 -32 CURVE SMOOTH",
"50 -39 LINE",
"125 -144 LINE",
"134 -140 LINE SMOOTH",
"210 -106 OFFCURVE",
"250 -54 OFFCURVE",
"250 22 CURVE SMOOTH"
);
}
);
width = 300;
}
);
unicode = 0029;
},
{
glyphname = asterisk;
lastChange = "2016-07-02 17:23:06 +0000";
layers = (
{
layerId = "EC1CA293-A2FE-4C5B-B0FE-1EC2B6DFF2A6";
paths = (
{
closed = 1;
nodes = (
"452 476 LINE",
"342 586 LINE",
"260 504 LINE",
"180 583 LINE",
"64 466 LINE",
"253 277 LINE"
);
},
{
closed = 1;
nodes = (
"61 305 LINE",
"171 195 LINE",
"253 277 LINE",
"333 198 LINE",
"449 315 LINE",
"260 504 LINE"
);
}
);
width = 508;
}
);
unicode = 002A;
},
{
glyphname = plus;
layers = (
{
layerId = "EC1CA293-A2FE-4C5B-B0FE-1EC2B6DFF2A6";
paths = (
{
closed = 1;
nodes = (
"432 227 LINE",
"432 356 LINE",
"316 356 LINE",
"316 472 LINE",
"187 472 LINE",
"187 356 LINE",
"70 356 LINE",
"70 227 LINE",
"187 227 LINE",
"187 110 LINE",
"316 110 LINE",
"316 227 LINE"
);
}
);
width = 456;
}
);
unicode = 002B;
},
{
glyphname = comma;
lastChange = "2016-07-02 17:28:16 +0000";
layers = (
{
layerId = "EC1CA293-A2FE-4C5B-B0FE-1EC2B6DFF2A6";
paths = (
{
closed = 1;
nodes = (
"223 2 LINE",
"223 150 LINE",
"30 150 LINE",
"30 2 LINE",
"70 2 LINE",
"70 -119 LINE",
"167 -119 LINE"
);
}
);
width = 253;
}
);
unicode = 002C;
},
{
glyphname = hyphen;
layers = (
{
layerId = "EC1CA293-A2FE-4C5B-B0FE-1EC2B6DFF2A6";
paths = (
{
closed = 1;
nodes = (
"432 223 LINE",
"432 360 LINE",
"70 360 LINE",
"70 223 LINE"
);
}
);
width = 502;
}
);
unicode = 002D;
},
{
glyphname = period;
lastChange = "2016-06-30 12:46:34 +0000";
layers = (
{
layerId = "EC1CA293-A2FE-4C5B-B0FE-1EC2B6DFF2A6";
paths = (
{
closed = 1;
nodes = (
"219 1 LINE",
"219 170 LINE",
"60 170 LINE",
"60 1 LINE"
);
}
);
width = 279;
}
);
unicode = 002E;
},
{
glyphname = slash;
layers = (
{
layerId = "EC1CA293-A2FE-4C5B-B0FE-1EC2B6DFF2A6";
paths = (
{
closed = 1;
nodes = (
"378 585 LINE",
"213 585 LINE",
"40 1 LINE",
"205 1 LINE"
);
}
);
width = 418;
}
);
unicode = 002F;
},
{
glyphname = zero;
lastChange = "2017-06-06 12:56:22 +0000";
layers = (
{
layerId = "EC1CA293-A2FE-4C5B-B0FE-1EC2B6DFF2A6";
paths = (
{
closed = 1;
nodes = (
"189 350 LINE",
"189 390 OFFCURVE",
"222 421 OFFCURVE",
"260 421 CURVE",
"298 421 OFFCURVE",
"331 390 OFFCURVE",
"331 350 CURVE",
"331 211 LINE SMOOTH",
"331 171 OFFCURVE",
"298 140 OFFCURVE",
"260 140 CURVE",
"222 140 OFFCURVE",
"189 171 OFFCURVE",
"189 211 CURVE SMOOTH"
);
},
{
closed = 1;
nodes = (
"20 81 OFFCURVE",
"121 -26 OFFCURVE",
"252 -26 CURVE",
"268 -26 LINE",
"399 -26 OFFCURVE",
"500 81 OFFCURVE",
"500 209 CURVE SMOOTH",
"500 352 LINE",
"500 480 OFFCURVE",
"399 587 OFFCURVE",
"268 587 CURVE",
"252 587 LINE",
"121 587 OFFCURVE",
"20 480 OFFCURVE",
"20 352 CURVE",
"20 209 LINE SMOOTH"
);
}
);
width = 520;
},
{
associatedMasterId = "EC1CA293-A2FE-4C5B-B0FE-1EC2B6DFF2A6";
layerId = "08A4B920-39C2-465D-8090-36D5CFF8627E";
name = "Jun 6 17, 14:36";
paths = (
{
closed = 1;
nodes = (
"597 585 LINE",
"656 585 OFFCURVE",
"689 542 OFFCURVE",
"689 493 CURVE",
"689 190 LINE",
"689 151 LINE",
"689 48 LINE",
"689 22 OFFCURVE",
"669 1 OFFCURVE",
"643 1 CURVE",
"50 1 LINE",
"50 562 LINE",
"241 562 LINE",
"241 166 LINE",
"483 166 LINE",
"497 166 OFFCURVE",
"502 173 OFFCURVE",
"502 185 CURVE",
"502 388 LINE SMOOTH",
"502 400 OFFCURVE",
"494 410 OFFCURVE",
"480 410 CURVE",
"50 410 LINE",
"50 585 LINE"
);
}
);
width = 739;
}
);
unicode = 0030;
},
{
glyphname = one;
lastChange = "2016-08-21 05:25:04 +0000";
layers = (
{
layerId = "EC1CA293-A2FE-4C5B-B0FE-1EC2B6DFF2A6";
paths = (
{
closed = 1;
nodes = (
"271 572 LINE",
"20 572 LINE",
"20 407 LINE",
"99 407 LINE",
"99 176 LINE",
"20 176 LINE",
"20 1 LINE",
"326 1 LINE",
"326 176 LINE",
"271 176 LINE"
);
}
);
width = 346;
}
);
unicode = 0031;
},
{
glyphname = two;
lastChange = "2016-08-26 12:53:09 +0000";
layers = (
{
layerId = "EC1CA293-A2FE-4C5B-B0FE-1EC2B6DFF2A6";
paths = (
{
closed = 1;
nodes = (
"311 324 OFFCURVE",
"319 342 OFFCURVE",
"319 359 CURVE",
"319 397 OFFCURVE",
"288 427 OFFCURVE",
"251 427 CURVE",
"214 427 OFFCURVE",
"183 397 OFFCURVE",
"183 359 CURVE",
"20 361 LINE",
"20 484 OFFCURVE",
"117 587 OFFCURVE",
"243 587 CURVE",
"259 587 LINE",
"385 587 OFFCURVE",
"482 484 OFFCURVE",
"482 361 CURVE SMOOTH",
"482 302 OFFCURVE",
"438 252 OFFCURVE",
"395 216 CURVE",
"327 159 LINE",
"498 159 LINE",
"498 1 LINE",
"35 2 LINE",
"35 92 LINE",
"292 307 LINE"
);
}
);
width = 518;
},
{
associatedMasterId = "EC1CA293-A2FE-4C5B-B0FE-1EC2B6DFF2A6";
layerId = "F8F0A7E0-08D3-4E92-9869-E2C3BDDD88BB";
name = "Bold Aug 15 16, 12:43";
paths = (
{
closed = 1;
nodes = (
"689 176 LINE",
"689 1 LINE",
"96 1 LINE",
"70 1 OFFCURVE",
"50 22 OFFCURVE",
"50 48 CURVE",
"50 161 LINE",
"50 180 LINE",
"50 303 LINE",
"50 329 OFFCURVE",
"70 350 OFFCURVE",
"96 350 CURVE",
"542 350 LINE",
"542 420 LINE",
"287 420 LINE",
"273 420 OFFCURVE",
"265 410 OFFCURVE",
"265 398 CURVE SMOOTH",
"265 380 LINE",
"75 380 LINE SMOOTH",
"75 493 LINE",
"75 542 OFFCURVE",
"108 585 OFFCURVE",
"167 585 CURVE",
"689 585 LINE",
"689 215 LINE",
"211 215 LINE SMOOTH",
"203 215 OFFCURVE",
"197 209 OFFCURVE",
"197 201 CURVE SMOOTH",
"197 190 LINE",
"197 182 OFFCURVE",
"203 176 OFFCURVE",
"211 176 CURVE"
);
}
);
width = 761;
}
);
unicode = 0032;
},
{
glyphname = three;
lastChange = "2017-06-06 11:57:38 +0000";
layers = (
{
layerId = "EC1CA293-A2FE-4C5B-B0FE-1EC2B6DFF2A6";
paths = (
{
closed = 1;
nodes = (
"286 258 LINE",
"311 240 OFFCURVE",
"319 219 OFFCURVE",
"319 202 CURVE",
"319 164 OFFCURVE",
"288 134 OFFCURVE",
"251 134 CURVE",
"214 134 OFFCURVE",
"183 164 OFFCURVE",
"183 202 CURVE",
"20 200 LINE",
"20 77 OFFCURVE",
"117 -26 OFFCURVE",
"243 -26 CURVE",
"259 -26 LINE",
"385 -26 OFFCURVE",
"482 77 OFFCURVE",
"482 200 CURVE SMOOTH",
"482 263 OFFCURVE",
"438 311 OFFCURVE",
"395 345 CURVE",
"377 360 LINE",
"225 303 LINE"
);
},
{
closed = 1;
nodes = (
"350 261 LINE",
"488 430 LINE",
"355 485 LINE",
"225 363 LINE",
"225 303 LINE"
);
},
{
closed = 1;
nodes = (
"488 572 LINE",
"25 572 LINE",
"25 410 LINE",
"454 410 LINE",
"488 430 LINE"
);
}
);
width = 508;
},
{
associatedMasterId = "EC1CA293-A2FE-4C5B-B0FE-1EC2B6DFF2A6";
layerId = "1118A119-DEFC-4804-9E96-8FDA6F591190";
name = "Bold Aug 15 16, 11:20";
paths = (
{
closed = 1;
nodes = (
"483 235 LINE SMOOTH",
"495 235 OFFCURVE",
"502 228 OFFCURVE",
"502 216 CURVE SMOOTH",
"502 195 LINE SMOOTH",
"502 183 OFFCURVE",
"497 176 OFFCURVE",
"483 176 CURVE",
"50 176 LINE",
"50 1 LINE",
"643 1 LINE",
"669 1 OFFCURVE",
"689 22 OFFCURVE",
"689 48 CURVE",
"689 161 LINE",
"689 225 LINE",
"689 585 LINE",
"167 585 LINE",
"108 585 OFFCURVE",
"75 542 OFFCURVE",
"75 493 CURVE",
"75 380 LINE SMOOTH",
"265 380 LINE",
"265 398 LINE SMOOTH",
"265 410 OFFCURVE",
"273 420 OFFCURVE",
"287 420 CURVE",
"502 420 LINE",
"502 370 LINE",
"332 370 LINE",
"332 235 LINE"
);
}
);
width = 699;
},
{
associatedMasterId = "EC1CA293-A2FE-4C5B-B0FE-1EC2B6DFF2A6";
layerId = "67767173-C083-451C-87A9-4C1B9301F2D5";
name = "Bold Aug 26 16, 15:41";
paths = (
{
closed = 1;
nodes = (
"352 310 LINE",
"352 245 LINE",
"503 245 LINE SMOOTH",
"515 245 OFFCURVE",
"522 238 OFFCURVE",
"522 226 CURVE SMOOTH",
"522 195 LINE SMOOTH",
"522 193 OFFCURVE",
"517 176 OFFCURVE",
"503 176 CURVE",
"30 176 LINE",
"30 1 LINE",
"663 1 LINE",
"689 1 OFFCURVE",
"709 22 OFFCURVE",
"709 48 CURVE",
"709 349 LINE",
"515 349 LINE"
);
},
{
closed = 1;
nodes = (
"352 248 LINE",
"729 434 LINE",
"729 585 LINE",
"517 458 LINE",
"352 367 LINE"
);
},
{
closed = 1;
nodes = (
"167 585 LINE",
"108 585 OFFCURVE",
"75 542 OFFCURVE",
"75 493 CURVE",
"75 380 LINE SMOOTH",
"265 380 LINE",
"265 398 LINE SMOOTH",
"265 410 OFFCURVE",
"273 420 OFFCURVE",
"287 420 CURVE",
"542 420 LINE",
"729 585 LINE"
);
}
);
width = 759;
}
);
unicode = 0033;
},
{
glyphname = four;
lastChange = "2016-08-26 14:33:11 +0000";
layers = (
{
layerId = "EC1CA293-A2FE-4C5B-B0FE-1EC2B6DFF2A6";
paths = (
{
closed = 1;
nodes = (
"503 572 LINE",
"326 572 LINE",
"326 1 LINE",
"503 1 LINE"
);
},
{
closed = 1;
nodes = (
"20 137 LINE",
"138 215 LINE",
"375 469 LINE",
"331 572 LINE",
"254 572 LINE",
"20 313 LINE"
);
},
{
closed = 1;
nodes = (
"20 117 LINE",
"552 117 LINE",
"552 264 LINE",
"28 264 LINE",
"20 192 LINE"
);
}
);
width = 572;
}
);
unicode = 0034;
},
{
glyphname = five;
lastChange = "2017-06-06 12:38:51 +0000";
layers = (
{
layerId = "EC1CA293-A2FE-4C5B-B0FE-1EC2B6DFF2A6";
paths = (
{
closed = 1;
nodes = (
"36 253 LINE",
"36 248 LINE",
"259 248 LINE",
"288 248 OFFCURVE",
"316 226 OFFCURVE",
"316 194 CURVE",
"316 157 OFFCURVE",
"287 128 OFFCURVE",
"251 128 CURVE",
"215 128 OFFCURVE",
"186 157 OFFCURVE",
"186 194 CURVE",
"29 194 LINE",
"29 192 LINE",
"29 74 OFFCURVE",
"122 -26 OFFCURVE",
"243 -26 CURVE",
"259 -26 LINE",
"380 -26 OFFCURVE",
"473 74 OFFCURVE",
"473 192 CURVE SMOOTH",
"473 267 OFFCURVE",
"425 375 OFFCURVE",
"292 375 CURVE SMOOTH",
"292 375 OFFCURVE",
"77 376 OFFCURVE",
"36 376 CURVE"
);
},
{
closed = 1;
nodes = (
"70 420 LINE",
"473 420 LINE",
"473 572 LINE",
"36 572 LINE",
"36 430 LINE"
);
},
{
closed = 1;
nodes = (
"198 517 LINE",
"36 512 LINE",
"36 367 LINE",
"198 367 LINE"
);
}
);
width = 502;
},
{
associatedMasterId = "EC1CA293-A2FE-4C5B-B0FE-1EC2B6DFF2A6";
layerId = "149038AD-BB03-45AC-A1EA-5D54FA7107DA";
name = "Bold Aug 26 16, 17:24";
paths = (
{
closed = 1;
nodes = (
"237 419 LINE",
"237 370 LINE",
"643 371 LINE",
"669 371 OFFCURVE",
"689 350 OFFCURVE",
"689 324 CURVE",
"689 226 LINE",
"689 161 LINE",
"689 48 LINE",
"689 22 OFFCURVE",
"669 1 OFFCURVE",
"643 1 CURVE",
"50 1 LINE",
"50 195 LINE",
"243 195 LINE",
"243 176 LINE",
"523 176 LINE",
"537 176 OFFCURVE",
"542 183 OFFCURVE",
"542 195 CURVE SMOOTH",
"542 216 LINE SMOOTH",
"542 228 OFFCURVE",
"535 235 OFFCURVE",
"523 235 CURVE SMOOTH",
"50 235 LINE",
"50 585 LINE",
"677 585 LINE",
"677 420 LINE"
);
}
);
width = 739;
}
);
unicode = 0035;
},
{
glyphname = six;
lastChange = "2017-06-06 12:41:17 +0000";
layers = (
{
layerId = "EC1CA293-A2FE-4C5B-B0FE-1EC2B6DFF2A6";
paths = (
{
closed = 1;
nodes = (
"443 373 OFFCURVE",
"500 288 OFFCURVE",
"500 209 CURVE SMOOTH",
"500 81 OFFCURVE",
"399 -26 OFFCURVE",
"268 -26 CURVE",
"252 -26 LINE",
"121 -26 OFFCURVE",
"20 81 OFFCURVE",
"20 209 CURVE SMOOTH",
"20 270 OFFCURVE",
"49 328 OFFCURVE",
"84 378 CURVE",
"213 572 LINE",
"416 572 LINE",
"223 279 LINE",
"205 254 OFFCURVE",
"191 228 OFFCURVE",
"189 211 CURVE",
"189 171 OFFCURVE",
"222 140 OFFCURVE",
"260 140 CURVE",
"298 140 OFFCURVE",
"331 171 OFFCURVE",
"331 211 CURVE SMOOTH",
"331 241 OFFCURVE",
"296 279 OFFCURVE",
"237 280 CURVE",
"313 397 LINE"
);
}
);
width = 520;
},
{
associatedMasterId = "EC1CA293-A2FE-4C5B-B0FE-1EC2B6DFF2A6";
layerId = "2A9F7283-586D-480A-93C8-1E452EC1AC1C";
name = "Bold Aug 2 16, 18:13";
paths = (
{
closed = 1;
nodes = (
"241 420 LINE",
"241 356 LINE",
"643 356 LINE",
"669 356 OFFCURVE",
"689 335 OFFCURVE",
"689 309 CURVE",
"689 200 LINE",
"689 161 LINE",
"689 48 LINE",
"689 22 OFFCURVE",
"669 1 OFFCURVE",
"643 1 CURVE",
"50 1 LINE",
"50 231 LINE",
"241 231 LINE",
"241 176 LINE",
"523 176 LINE",
"537 176 OFFCURVE",
"542 183 OFFCURVE",
"542 195 CURVE SMOOTH",
"542 202 LINE SMOOTH",
"542 214 OFFCURVE",
"535 221 OFFCURVE",
"523 221 CURVE SMOOTH",
"50 221 LINE",
"50 585 LINE",
"572 585 LINE",
"631 585 OFFCURVE",
"664 542 OFFCURVE",
"664 493 CURVE",
"664 380 LINE SMOOTH",
"474 380 LINE",
"474 398 LINE SMOOTH",
"474 410 OFFCURVE",
"466 420 OFFCURVE",
"452 420 CURVE"
);
}
);
width = 739;
}
);
unicode = 0036;
},
{
glyphname = seven;
lastChange = "2017-06-06 12:26:18 +0000";
layers = (
{
layerId = "EC1CA293-A2FE-4C5B-B0FE-1EC2B6DFF2A6";
paths = (
{
closed = 1;
nodes = (
"466 322 LINE",
"466 572 LINE",
"20 572 LINE",
"20 420 LINE",
"332 420 LINE",
"64 0 LINE",
"265 0 LINE"
);
}
);
width = 486;
}
);
unicode = 0037;
},
{
glyphname = eight;
lastChange = "2017-06-06 13:10:22 +0000";
layers = (
{
layerId = "EC1CA293-A2FE-4C5B-B0FE-1EC2B6DFF2A6";
paths = (
{
closed = 1;
nodes = (
"220 370 LINE",
"230 369 LINE",
"254 375 OFFCURVE",
"271 394 OFFCURVE",
"271 416 CURVE SMOOTH",
"271 437 OFFCURVE",
"253 455 OFFCURVE",
"230 455 CURVE SMOOTH",
"208 455 OFFCURVE",
"190 437 OFFCURVE",
"190 416 CURVE SMOOTH",
"190 400 OFFCURVE",
"207 372 OFFCURVE",
"238 364 CURVE",
"274 269 LINE",
"202 340 LINE",
"168 264 LINE",
"117 283 OFFCURVE",
"51 341 OFFCURVE",
"49 410 CURVE",
"49 420 LINE",
"52 512 OFFCURVE",
"129 588 OFFCURVE",
"219 588 CURVE SMOOTH",
"238 588 LINE SMOOTH",
"334 588 OFFCURVE",
"414 512 OFFCURVE",
"414 420 CURVE",
"414 410 LINE",
"414 344 OFFCURVE",
"361 299 OFFCURVE",
"279 299 CURVE"
);
},
{
closed = 1;
nodes = (
"227 251 LINE",
"192 242 OFFCURVE",
"165 213 OFFCURVE",
"165 181 CURVE SMOOTH",
"165 146 OFFCURVE",
"193 119 OFFCURVE",
"227 119 CURVE SMOOTH",
"261 119 OFFCURVE",
"289 146 OFFCURVE",
"289 181 CURVE SMOOTH",
"289 201 OFFCURVE",
"265 233 OFFCURVE",
"227 251 CURVE",
"138 356 LINE",
"210 353 LINE",
"257 352 LINE",
"403 352 OFFCURVE",
"438 233 OFFCURVE",
"438 179 CURVE",
"438 168 LINE",
"432 61 OFFCURVE",
"345 -26 OFFCURVE",
"238 -26 CURVE SMOOTH",
"219 -26 LINE SMOOTH",
"108 -26 OFFCURVE",
"21 62 OFFCURVE",
"16 168 CURVE",
"16 179 LINE",
"16 248 OFFCURVE",
"56 325 OFFCURVE",
"138 356 CURVE"
);
}
);
width = 454;
},
{
associatedMasterId = "EC1CA293-A2FE-4C5B-B0FE-1EC2B6DFF2A6";
layerId = "15FF494D-5BF3-470E-93C6-A2EC682B2870";
name = "Jun 6 17, 15:09";
paths = (
{
closed = 1;
nodes = (
"220 370 LINE",
"230 369 LINE",
"254 375 OFFCURVE",
"271 394 OFFCURVE",
"271 416 CURVE SMOOTH",
"271 437 OFFCURVE",
"253 455 OFFCURVE",
"230 455 CURVE SMOOTH",
"208 455 OFFCURVE",
"190 437 OFFCURVE",
"190 416 CURVE SMOOTH",
"190 400 OFFCURVE",
"207 372 OFFCURVE",
"238 364 CURVE",
"274 269 LINE",
"202 340 LINE",
"165 261 LINE",
"114 280 OFFCURVE",
"51 341 OFFCURVE",
"49 410 CURVE",
"49 420 LINE",
"52 512 OFFCURVE",
"129 588 OFFCURVE",
"219 588 CURVE SMOOTH",
"238 588 LINE SMOOTH",
"334 588 OFFCURVE",
"414 512 OFFCURVE",
"414 420 CURVE",
"414 410 LINE",
"414 339 OFFCURVE",
"371 299 OFFCURVE",
"279 299 CURVE"
);
},
{
closed = 1;
nodes = (
"227 251 LINE",
"192 242 OFFCURVE",
"165 213 OFFCURVE",
"165 181 CURVE SMOOTH",
"165 146 OFFCURVE",
"193 119 OFFCURVE",
"227 119 CURVE SMOOTH",
"261 119 OFFCURVE",
"289 146 OFFCURVE",
"289 181 CURVE SMOOTH",
"289 201 OFFCURVE",
"265 233 OFFCURVE",
"227 251 CURVE",
"138 356 LINE",
"210 353 LINE",
"257 352 LINE",
"403 352 OFFCURVE",
"438 233 OFFCURVE",
"438 179 CURVE",
"438 168 LINE",
"432 61 OFFCURVE",
"345 -26 OFFCURVE",
"238 -26 CURVE SMOOTH",
"219 -26 LINE SMOOTH",
"108 -26 OFFCURVE",
"21 62 OFFCURVE",
"16 168 CURVE",
"16 179 LINE",
"16 248 OFFCURVE",
"56 325 OFFCURVE",
"138 356 CURVE"
);
},
{
closed = 0;
nodes = (
"27 323 LINE",
"412 321 LINE"
);
}
);
width = 454;
}
);
unicode = 0038;
},
{
glyphname = nine;
lastChange = "2017-06-06 12:41:11 +0000";
layers = (
{
layerId = "EC1CA293-A2FE-4C5B-B0FE-1EC2B6DFF2A6";
paths = (
{
closed = 1;
nodes = (
"77 188 OFFCURVE",
"20 273 OFFCURVE",
"20 352 CURVE SMOOTH",
"20 480 OFFCURVE",
"121 587 OFFCURVE",
"252 587 CURVE",
"268 587 LINE",
"399 587 OFFCURVE",
"500 480 OFFCURVE",
"500 352 CURVE SMOOTH",
"500 291 OFFCURVE",
"471 233 OFFCURVE",
"436 183 CURVE",
"320 1 LINE",
"112 2 LINE",
"297 282 LINE",
"315 307 OFFCURVE",
"329 333 OFFCURVE",
"331 350 CURVE",
"331 390 OFFCURVE",
"298 421 OFFCURVE",
"260 421 CURVE",
"222 421 OFFCURVE",
"189 390 OFFCURVE",
"189 350 CURVE SMOOTH",
"189 320 OFFCURVE",
"224 282 OFFCURVE",
"283 281 CURVE",
"207 164 LINE"
);
}
);
width = 520;
},
{
associatedMasterId = "EC1CA293-A2FE-4C5B-B0FE-1EC2B6DFF2A6";
layerId = "D92B6434-26FB-48B8-AF02-5540F5C55D9C";
name = "Bold Aug 26 16, 15:42";
paths = (
{
closed = 1;
nodes = (
"669 585 OFFCURVE",
"689 564 OFFCURVE",
"689 538 CURVE",
"689 363 LINE",
"498 363 LINE",
"498 420 LINE",
"216 420 LINE",
"202 420 OFFCURVE",
"197 413 OFFCURVE",
"197 401 CURVE SMOOTH",
"197 392 LINE SMOOTH",
"197 380 OFFCURVE",
"204 373 OFFCURVE",
"216 373 CURVE SMOOTH",
"689 373 LINE",
"689 1 LINE",
"53 1 LINE",
"53 166 LINE",
"498 166 LINE",
"498 228 LINE",
"96 228 LINE",
"70 228 OFFCURVE",
"50 249 OFFCURVE",
"50 275 CURVE",
"50 386 LINE",
"50 425 LINE",
"50 538 LINE",
"50 564 OFFCURVE",
"70 585 OFFCURVE",
"96 585 CURVE",
"643 585 LINE"
);
}
);
width = 739;
},
{
associatedMasterId = "EC1CA293-A2FE-4C5B-B0FE-1EC2B6DFF2A6";
layerId = "315A3088-E1CA-48C5-8FF9-E9EA7E6A1355";
name = "Bold Aug 26 16, 15:42";
paths = (
{
closed = 1;
nodes = (
"669 585 OFFCURVE",
"689 564 OFFCURVE",
"689 538 CURVE",
"689 363 LINE",
"498 363 LINE",
"498 420 LINE",
"216 420 LINE",
"202 420 OFFCURVE",
"197 413 OFFCURVE",
"197 401 CURVE SMOOTH",
"197 392 LINE SMOOTH",
"197 380 OFFCURVE",
"204 373 OFFCURVE",
"216 373 CURVE SMOOTH",
"689 373 LINE",
"689 1 LINE",
"53 1 LINE",
"53 166 LINE",
"498 166 LINE",
"498 228 LINE",
"96 228 LINE",
"70 228 OFFCURVE",
"50 249 OFFCURVE",
"50 275 CURVE",
"50 386 LINE",
"50 425 LINE",
"50 538 LINE",
"50 564 OFFCURVE",
"70 585 OFFCURVE",
"96 585 CURVE",
"643 585 LINE"
);
}
);
width = 739;
},
{
associatedMasterId = "EC1CA293-A2FE-4C5B-B0FE-1EC2B6DFF2A6";
layerId = "195DF91A-9666-4BB0-8AD5-9250E8098F84";
name = "Jun 6 17, 14:26";
paths = (
{
closed = 1;
nodes = (
"64 186 OFFCURVE",
"20 270 OFFCURVE",
"20 346 CURVE SMOOTH",
"20 469 OFFCURVE",
"117 572 OFFCURVE",
"243 572 CURVE",
"259 572 LINE",
"385 572 OFFCURVE",
"482 469 OFFCURVE",
"482 346 CURVE SMOOTH",
"482 287 OFFCURVE",
"449 232 OFFCURVE",
"415 189 CURVE",
"257 1 LINE",
"49 2 LINE",
"292 288 LINE",
"309 306 OFFCURVE",
"319 327 OFFCURVE",
"319 344 CURVE",
"319 382 OFFCURVE",
"288 412 OFFCURVE",
"251 412 CURVE",
"214 412 OFFCURVE",
"183 382 OFFCURVE",
"183 344 CURVE SMOOTH",
"183 309 OFFCURVE",
"212 277 OFFCURVE",
"251 267 CURVE",
"154 151 LINE"
);
}
);
width = 502;
}
);
unicode = 0039;
},
{
glyphname = colon;
lastChange = "2016-07-02 17:21:43 +0000";
layers = (
{
layerId = "EC1CA293-A2FE-4C5B-B0FE-1EC2B6DFF2A6";
paths = (
{
closed = 1;
nodes = (
"219 349 LINE",
"219 508 LINE",
"60 508 LINE",
"60 349 LINE"
);
},
{
closed = 1;
nodes = (
"219 0 LINE",
"219 159 LINE",
"60 159 LINE",
"60 0 LINE"
);
}
);
width = 289;
}
);
unicode = 003A;
},
{
glyphname = semicolon;
layers = (
{
layerId = "EC1CA293-A2FE-4C5B-B0FE-1EC2B6DFF2A6";
paths = (
{
closed = 1;
nodes = (
"289 349 LINE",
"289 498 LINE",
"140 498 LINE",
"140 349 LINE"
);
},
{
closed = 1;
nodes = (
"289 150 LINE",
"130 150 LINE",
"70 -165 LINE",
"196 -165 LINE"
);
}
);
width = 329;
}
);
unicode = 003B;
},
{
glyphname = less;
layers = (
{
layerId = "EC1CA293-A2FE-4C5B-B0FE-1EC2B6DFF2A6";
paths = (
{
closed = 1;
nodes = (
"429 159 LINE",
"236 301 LINE",
"429 438 LINE",
"353 548 LINE",
"70 341 LINE",
"70 256 LINE",
"353 49 LINE"
);
}
);
width = 519;
}
);
unicode = 003C;
},
{
glyphname = equal;
layers = (
{
layerId = "EC1CA293-A2FE-4C5B-B0FE-1EC2B6DFF2A6";
paths = (
{
closed = 1;
nodes = (
"452 317 LINE",
"452 436 LINE",
"70 436 LINE",
"70 317 LINE"
);
},
{
closed = 1;
nodes = (
"452 137 LINE",
"452 256 LINE",
"70 256 LINE",
"70 137 LINE"
);
}
);
width = 522;
}
);
unicode = 003D;
},
{
glyphname = greater;
layers = (
{
layerId = "EC1CA293-A2FE-4C5B-B0FE-1EC2B6DFF2A6";
paths = (
{
closed = 1;
nodes = (
"449 256 LINE",
"449 341 LINE",
"166 548 LINE",
"90 438 LINE",
"282 301 LINE",
"90 159 LINE",
"166 49 LINE"
);
}
);
width = 519;
}
);
unicode = 003E;
},
{
glyphname = question;
layers = (
{
layerId = "EC1CA293-A2FE-4C5B-B0FE-1EC2B6DFF2A6";
paths = (
{
closed = 1;
nodes = (
"287 221 LINE",
"301 294 LINE",
"456 423 LINE SMOOTH",
"498 458 OFFCURVE",
"518 489 OFFCURVE",
"518 543 CURVE SMOOTH",
"518 576 LINE SMOOTH",
"518 657 OFFCURVE",
"435 736 OFFCURVE",
"356 736 CURVE SMOOTH",
"211 736 LINE SMOOTH",
"132 736 OFFCURVE",
"50 657 OFFCURVE",
"50 576 CURVE SMOOTH",
"50 557 LINE",
"205 557 LINE",
"205 585 LINE SMOOTH",
"205 589 OFFCURVE",
"210 594 OFFCURVE",
"214 594 CURVE SMOOTH",
"353 594 LINE SMOOTH",
"357 594 OFFCURVE",
"362 589 OFFCURVE",
"362 585 CURVE SMOOTH",
"362 532 LINE SMOOTH",
"362 521 OFFCURVE",
"357 514 OFFCURVE",
"349 507 CURVE SMOOTH",
"217 396 LINE SMOOTH",
"179 364 OFFCURVE",
"160 331 OFFCURVE",
"167 287 CURVE SMOOTH",
"178 221 LINE"
);
},
{
closed = 1;
nodes = (
"307 1 LINE",
"307 150 LINE",
"155 150 LINE",
"155 1 LINE"
);
}
);
width = 588;
}
);
unicode = 003F;
},
{
glyphname = at;
layers = (
{
layerId = "EC1CA293-A2FE-4C5B-B0FE-1EC2B6DFF2A6";
paths = (
{
closed = 1;
nodes = (
"698 1 LINE",
"698 547 LINE SMOOTH",
"698 623 OFFCURVE",
"679 682 OFFCURVE",
"636 725 CURVE SMOOTH",
"595 766 OFFCURVE",
"538 786 OFFCURVE",
"466 786 CURVE SMOOTH",
"303 786 LINE SMOOTH",
"231 786 OFFCURVE",
"175 766 OFFCURVE",
"134 725 CURVE SMOOTH",
"93 683 OFFCURVE",
"72 624 OFFCURVE",
"72 547 CURVE SMOOTH",
"72 178 LINE SMOOTH",
"72 81 OFFCURVE",
"91 40 OFFCURVE",
"158 -8 CURVE",
"212 46 LINE",
"162 83 OFFCURVE",
"149 109 OFFCURVE",
"149 179 CURVE SMOOTH",
"149 550 LINE SMOOTH",
"149 610 OFFCURVE",
"160 642 OFFCURVE",
"193 675 CURVE SMOOTH",
"225 707 OFFCURVE",
"262 719 OFFCURVE",
"313 719 CURVE SMOOTH",
"456 719 LINE SMOOTH",
"508 719 OFFCURVE",
"548 706 OFFCURVE",
"579 675 CURVE SMOOTH",
"610 642 OFFCURVE",
"621 609 OFFCURVE",
"621 550 CURVE SMOOTH",
"621 464 LINE",
"584 511 OFFCURVE",
"538 533 OFFCURVE",
"474 533 CURVE SMOOTH",
"410 533 OFFCURVE",
"354 508 OFFCURVE",
"322 465 CURVE SMOOTH",
"287 420 OFFCURVE",
"277 360 OFFCURVE",
"277 264 CURVE SMOOTH",
"277 164 OFFCURVE",
"288 106 OFFCURVE",
"325 61 CURVE SMOOTH",
"360 18 OFFCURVE",
"414 -6 OFFCURVE",
"475 -6 CURVE SMOOTH",
"543 -6 OFFCURVE",
"586 15 OFFCURVE",
"623 62 CURVE",
"623 2 LINE"
);
},
{
closed = 1;
nodes = (
"621 161 OFFCURVE",
"604 62 OFFCURVE",
"488 62 CURVE SMOOTH",
"373 62 OFFCURVE",
"355 161 OFFCURVE",
"355 264 CURVE SMOOTH",
"355 366 OFFCURVE",
"373 465 OFFCURVE",
"488 465 CURVE SMOOTH",
"604 465 OFFCURVE",
"621 366 OFFCURVE",
"621 264 CURVE SMOOTH"
);
}
);
width = 770;
}
);
unicode = 0040;
},
{
glyphname = A;
layers = (
{
layerId = "EC1CA293-A2FE-4C5B-B0FE-1EC2B6DFF2A6";
paths = (
{
closed = 1;
nodes = (
"657 1 LINE",
"370 785 LINE",
"300 785 LINE",
"12 1 LINE",
"101 1 LINE",
"163 178 LINE",
"506 178 LINE",
"568 1 LINE"
);
},
{
closed = 1;
nodes = (
"481 251 LINE",
"189 251 LINE",
"336 665 LINE"
);
}
);
width = 669;
}
);
unicode = 0041;
},
{
glyphname = B;
layers = (
{
layerId = "EC1CA293-A2FE-4C5B-B0FE-1EC2B6DFF2A6";
paths = (
{
closed = 1;
nodes = (
"641 313 OFFCURVE",
"590 376 OFFCURVE",
"514 404 CURVE",
"581 428 OFFCURVE",
"629 492 OFFCURVE",
"629 576 CURVE SMOOTH",
"629 708 OFFCURVE",
"534 785 OFFCURVE",
"398 785 CURVE SMOOTH",
"103 785 LINE",
"103 1 LINE",
"408 1 LINE SMOOTH",
"547 1 OFFCURVE",
"641 77 OFFCURVE",
"641 218 CURVE SMOOTH"
);
},
{
closed = 1;
nodes = (
"546 481 OFFCURVE",
"479 438 OFFCURVE",
"392 438 CURVE SMOOTH",
"187 438 LINE",
"187 710 LINE",
"392 710 LINE SMOOTH",
"479 710 OFFCURVE",
"546 668 OFFCURVE",
"546 575 CURVE SMOOTH"
);
},
{
closed = 1;
nodes = (
"558 132 OFFCURVE",
"497 76 OFFCURVE",
"401 76 CURVE SMOOTH",
"187 76 LINE",
"187 363 LINE",
"401 363 LINE SMOOTH",
"497 363 OFFCURVE",
"558 308 OFFCURVE",
"558 220 CURVE SMOOTH"
);
}
);
width = 717;
}
);
unicode = 0042;
},
{
glyphname = C;
layers = (
{
layerId = "EC1CA293-A2FE-4C5B-B0FE-1EC2B6DFF2A6";
paths = (
{
closed = 1;
nodes = (
"538 228 LINE",
"517 132 OFFCURVE",
"449 70 OFFCURVE",
"350 70 CURVE SMOOTH",
"298 70 OFFCURVE",
"250 89 OFFCURVE",
"215 125 CURVE SMOOTH",
"166 177 OFFCURVE",
"160 229 OFFCURVE",
"160 393 CURVE SMOOTH",
"160 556 OFFCURVE",
"166 610 OFFCURVE",
"215 661 CURVE SMOOTH",
"250 697 OFFCURVE",
"298 716 OFFCURVE",
"350 716 CURVE SMOOTH",
"449 716 OFFCURVE",
"515 654 OFFCURVE",
"536 558 CURVE",
"622 558 LINE",
"595 706 OFFCURVE",
"490 791 OFFCURVE",
"350 791 CURVE SMOOTH",
"273 791 OFFCURVE",
"203 763 OFFCURVE",
"150 710 CURVE SMOOTH",
"76 636 OFFCURVE",
"76 559 OFFCURVE",
"76 393 CURVE SMOOTH",
"76 227 OFFCURVE",
"76 150 OFFCURVE",
"150 76 CURVE SMOOTH",
"203 23 OFFCURVE",
"273 -5 OFFCURVE",
"350 -5 CURVE SMOOTH",
"490 -5 OFFCURVE",
"598 80 OFFCURVE",
"622 228 CURVE"
);
}
);
width = 687;
}
);
unicode = 0043;
},
{
glyphname = D;
layers = (
{
layerId = "EC1CA293-A2FE-4C5B-B0FE-1EC2B6DFF2A6";
paths = (
{
closed = 1;
nodes = (
"647 511 OFFCURVE",
"651 631 OFFCURVE",
"570 712 CURVE SMOOTH",
"522 759 OFFCURVE",
"454 785 OFFCURVE",
"371 785 CURVE SMOOTH",
"103 785 LINE",
"103 1 LINE",
"371 1 LINE SMOOTH",
"454 1 OFFCURVE",
"522 27 OFFCURVE",
"570 74 CURVE SMOOTH",
"651 155 OFFCURVE",
"647 293 OFFCURVE",
"647 402 CURVE SMOOTH"
);
},
{
closed = 1;
nodes = (
"563 306 OFFCURVE",
"565 190 OFFCURVE",
"511 133 CURVE SMOOTH",
"471 92 OFFCURVE",
"418 76 OFFCURVE",
"357 76 CURVE SMOOTH",
"187 76 LINE",
"187 710 LINE",
"357 710 LINE SMOOTH",
"418 710 OFFCURVE",
"471 694 OFFCURVE",
"511 653 CURVE SMOOTH",
"565 596 OFFCURVE",
"563 499 OFFCURVE",
"563 402 CURVE SMOOTH"
);
}
);
width = 723;
}
);
unicode = 0044;
},
{
glyphname = E;
layers = (
{
layerId = "EC1CA293-A2FE-4C5B-B0FE-1EC2B6DFF2A6";
paths = (
{
closed = 1;
nodes = (
"589 1 LINE",
"589 76 LINE",
"186 76 LINE",
"186 359 LINE",
"530 359 LINE",
"530 434 LINE",
"186 434 LINE",
"186 710 LINE",
"589 710 LINE",
"589 785 LINE",
"103 785 LINE",
"103 1 LINE"
);
}
);
width = 644;
}
);
unicode = 0045;
},
{
glyphname = F;
layers = (
{
layerId = "EC1CA293-A2FE-4C5B-B0FE-1EC2B6DFF2A6";
paths = (
{
closed = 1;
nodes = (
"589 710 LINE",
"589 785 LINE",
"103 785 LINE",
"103 1 LINE",
"186 1 LINE",
"186 347 LINE",
"530 347 LINE",
"530 422 LINE",
"186 422 LINE",
"186 710 LINE"
);
}
);
width = 624;
}
);
unicode = 0046;
},
{
glyphname = G;
layers = (
{
layerId = "EC1CA293-A2FE-4C5B-B0FE-1EC2B6DFF2A6";
paths = (
{
closed = 1;
nodes = (
"626 412 LINE",
"350 412 LINE",
"350 338 LINE",
"542 338 LINE",
"542 279 LINE SMOOTH",
"542 218 OFFCURVE",
"530 176 OFFCURVE",
"498 137 CURVE SMOOTH",
"462 93 OFFCURVE",
"407 70 OFFCURVE",
"350 70 CURVE SMOOTH",
"298 70 OFFCURVE",
"250 89 OFFCURVE",
"215 125 CURVE SMOOTH",
"166 177 OFFCURVE",
"160 229 OFFCURVE",
"160 393 CURVE SMOOTH",
"160 557 OFFCURVE",
"167 609 OFFCURVE",
"215 660 CURVE SMOOTH",
"250 696 OFFCURVE",
"298 716 OFFCURVE",
"350 716 CURVE SMOOTH",
"449 716 OFFCURVE",
"517 657 OFFCURVE",
"540 557 CURVE",
"624 557 LINE",
"600 693 OFFCURVE",
"500 791 OFFCURVE",
"350 791 CURVE SMOOTH",
"271 791 OFFCURVE",
"202 763 OFFCURVE",
"150 710 CURVE SMOOTH",
"76 636 OFFCURVE",
"76 559 OFFCURVE",
"76 393 CURVE SMOOTH",
"76 227 OFFCURVE",
"76 150 OFFCURVE",
"150 76 CURVE SMOOTH",
"202 23 OFFCURVE",
"273 -5 OFFCURVE",
"350 -5 CURVE SMOOTH",
"430 -5 OFFCURVE",
"503 25 OFFCURVE",
"559 85 CURVE SMOOTH",
"607 137 OFFCURVE",
"626 196 OFFCURVE",
"626 287 CURVE SMOOTH"
);
}
);
width = 700;
}
);
unicode = 0047;
},
{
glyphname = H;
layers = (
{
layerId = "EC1CA293-A2FE-4C5B-B0FE-1EC2B6DFF2A6";
paths = (
{
closed = 1;
nodes = (
"643 1 LINE",
"643 785 LINE",
"559 785 LINE",
"559 434 LINE",
"187 434 LINE",
"187 785 LINE",
"103 785 LINE",
"103 1 LINE",
"187 1 LINE",
"187 359 LINE",
"559 359 LINE",
"559 1 LINE"
);
}
);
width = 746;
}
);
unicode = 0048;
},
{
glyphname = I;
layers = (
{
layerId = "EC1CA293-A2FE-4C5B-B0FE-1EC2B6DFF2A6";
paths = (
{
closed = 1;
nodes = (
"187 1 LINE",
"187 785 LINE",
"103 785 LINE",
"103 1 LINE"
);
}
);
width = 290;
}
);
unicode = 0049;
},
{
glyphname = J;
layers = (
{
layerId = "EC1CA293-A2FE-4C5B-B0FE-1EC2B6DFF2A6";
paths = (
{
closed = 1;
nodes = (
"446 785 LINE",
"363 785 LINE",
"363 250 LINE SMOOTH",
"363 134 OFFCURVE",
"305 70 OFFCURVE",
"202 70 CURVE SMOOTH",
"137 70 OFFCURVE",
"107 93 OFFCURVE",
"79 122 CURVE",
"23 65 LINE",
"71 17 OFFCURVE",
"126 -5 OFFCURVE",
"202 -5 CURVE SMOOTH",
"345 -5 OFFCURVE",
"446 89 OFFCURVE",
"446 239 CURVE SMOOTH"
);
}
);
width = 539;
}
);
unicode = 004A;
},
{
glyphname = K;
layers = (
{
layerId = "EC1CA293-A2FE-4C5B-B0FE-1EC2B6DFF2A6";
paths = (
{
closed = 1;
nodes = (
"690 1 LINE",
"408 482 LINE",
"654 785 LINE",
"552 785 LINE",
"187 335 LINE",
"187 785 LINE",
"103 785 LINE",
"103 1 LINE",
"187 1 LINE",
"187 220 LINE",
"352 418 LINE",
"591 1 LINE"
);
}
);
width = 704;
}
);
unicode = 004B;
},
{
glyphname = L;
layers = (
{
layerId = "EC1CA293-A2FE-4C5B-B0FE-1EC2B6DFF2A6";
paths = (
{
closed = 1;
nodes = (
"587 1 LINE",
"587 76 LINE",
"187 76 LINE",
"187 785 LINE",
"103 785 LINE",
"103 1 LINE"
);
}
);
width = 617;
}
);
unicode = 004C;
},
{
glyphname = M;
layers = (
{
layerId = "EC1CA293-A2FE-4C5B-B0FE-1EC2B6DFF2A6";
paths = (
{
closed = 1;
nodes = (
"775 1 LINE",
"775 785 LINE",
"691 785 LINE",
"442 229 LINE",
"187 785 LINE",
"103 785 LINE",
"103 1 LINE",
"187 1 LINE",
"187 597 LINE",
"405 125 LINE",
"476 125 LINE",
"691 597 LINE",
"691 1 LINE"
);
}
);
width = 878;
}
);
unicode = 004D;
},
{
glyphname = N;
layers = (
{
layerId = "EC1CA293-A2FE-4C5B-B0FE-1EC2B6DFF2A6";
paths = (
{
closed = 1;
nodes = (
"681 1 LINE",
"681 785 LINE",
"598 785 LINE",
"598 159 LINE",
"182 785 LINE",
"103 785 LINE",
"103 1 LINE",
"186 1 LINE",
"186 630 LINE",
"602 1 LINE"
);
}
);
width = 784;
}
);
unicode = 004E;
},
{
glyphname = O;
layers = (
{
layerId = "EC1CA293-A2FE-4C5B-B0FE-1EC2B6DFF2A6";
paths = (
{
closed = 1;
nodes = (
"624 559 OFFCURVE",
"624 636 OFFCURVE",
"550 710 CURVE SMOOTH",
"496 764 OFFCURVE",
"429 791 OFFCURVE",
"350 791 CURVE SMOOTH",
"271 791 OFFCURVE",
"204 764 OFFCURVE",
"150 710 CURVE SMOOTH",
"76 636 OFFCURVE",
"76 559 OFFCURVE",
"76 393 CURVE SMOOTH",
"76 227 OFFCURVE",
"76 150 OFFCURVE",
"150 76 CURVE SMOOTH",
"204 22 OFFCURVE",
"271 -5 OFFCURVE",
"350 -5 CURVE SMOOTH",
"429 -5 OFFCURVE",
"496 22 OFFCURVE",
"550 76 CURVE SMOOTH",
"624 150 OFFCURVE",
"624 227 OFFCURVE",
"624 393 CURVE SMOOTH"
);
},
{
closed = 1;
nodes = (
"540 228 OFFCURVE",
"534 177 OFFCURVE",
"485 126 CURVE SMOOTH",
"450 90 OFFCURVE",
"402 70 OFFCURVE",
"350 70 CURVE SMOOTH",
"298 70 OFFCURVE",
"250 90 OFFCURVE",
"215 126 CURVE SMOOTH",
"166 177 OFFCURVE",
"160 228 OFFCURVE",
"160 393 CURVE SMOOTH",
"160 557 OFFCURVE",
"167 609 OFFCURVE",
"215 660 CURVE SMOOTH",
"250 696 OFFCURVE",
"298 716 OFFCURVE",
"350 716 CURVE SMOOTH",
"402 716 OFFCURVE",
"450 696 OFFCURVE",
"485 660 CURVE SMOOTH",
"533 609 OFFCURVE",
"540 557 OFFCURVE",
"540 393 CURVE SMOOTH"
);
}
);
width = 700;
}
);
unicode = 004F;
},
{
glyphname = P;
layers = (
{
layerId = "EC1CA293-A2FE-4C5B-B0FE-1EC2B6DFF2A6";
paths = (
{
closed = 1;
nodes = (
"636 696 OFFCURVE",
"538 785 OFFCURVE",
"394 785 CURVE SMOOTH",
"103 785 LINE",
"103 1 LINE",
"186 1 LINE",
"186 324 LINE",
"394 324 LINE SMOOTH",
"538 324 OFFCURVE",
"636 415 OFFCURVE",
"636 555 CURVE SMOOTH"
);
},
{
closed = 1;
nodes = (
"553 451 OFFCURVE",
"484 399 OFFCURVE",
"387 399 CURVE SMOOTH",
"186 399 LINE",
"186 710 LINE",
"387 710 LINE SMOOTH",
"484 710 OFFCURVE",
"553 658 OFFCURVE",
"553 555 CURVE SMOOTH"
);
}
);
width = 678;
}
);
unicode = 0050;
},
{
glyphname = Q;
layers = (
{
layerId = "EC1CA293-A2FE-4C5B-B0FE-1EC2B6DFF2A6";
paths = (
{
closed = 1;
nodes = (
"655 15 LINE",
"570 101 LINE",
"623 167 OFFCURVE",
"623 245 OFFCURVE",
"623 394 CURVE SMOOTH",
"623 562 OFFCURVE",
"623 638 OFFCURVE",
"550 711 CURVE SMOOTH",
"497 764 OFFCURVE",
"429 793 OFFCURVE",
"349 793 CURVE SMOOTH",
"270 793 OFFCURVE",
"202 764 OFFCURVE",
"149 711 CURVE SMOOTH",
"76 638 OFFCURVE",
"76 562 OFFCURVE",
"76 394 CURVE SMOOTH",
"76 228 OFFCURVE",
"76 151 OFFCURVE",
"149 78 CURVE SMOOTH",
"202 25 OFFCURVE",
"270 -4 OFFCURVE",
"349 -4 CURVE SMOOTH",
"414 -4 OFFCURVE",
"470 14 OFFCURVE",
"518 51 CURVE",
"605 -36 LINE"
);
},
{
closed = 1;
nodes = (
"540 269 OFFCURVE",
"538 208 OFFCURVE",
"508 162 CURVE",
"412 258 LINE",
"362 207 LINE",
"461 108 LINE",
"428 83 OFFCURVE",
"391 71 OFFCURVE",
"349 71 CURVE SMOOTH",
"298 71 OFFCURVE",
"249 92 OFFCURVE",
"214 127 CURVE SMOOTH",
"165 178 OFFCURVE",
"159 229 OFFCURVE",
"159 394 CURVE SMOOTH",
"159 557 OFFCURVE",
"165 611 OFFCURVE",
"214 662 CURVE SMOOTH",
"249 697 OFFCURVE",
"298 718 OFFCURVE",
"349 718 CURVE SMOOTH",
"401 718 OFFCURVE",
"450 697 OFFCURVE",
"485 662 CURVE SMOOTH",
"534 611 OFFCURVE",
"540 557 OFFCURVE",
"540 394 CURVE SMOOTH"
);
}
);
width = 701;
}
);
unicode = 0051;
},
{
glyphname = R;
layers = (
{
layerId = "EC1CA293-A2FE-4C5B-B0FE-1EC2B6DFF2A6";
paths = (
{
closed = 1;
nodes = (
"651 1 LINE",
"465 357 LINE",
"566 378 OFFCURVE",
"636 451 OFFCURVE",
"636 567 CURVE SMOOTH",
"636 702 OFFCURVE",
"540 785 OFFCURVE",
"403 785 CURVE SMOOTH",
"103 785 LINE",
"103 1 LINE",
"187 1 LINE",
"187 349 LINE",
"375 349 LINE",
"553 1 LINE"
);
},
{
closed = 1;
nodes = (
"552 470 OFFCURVE",
"488 423 OFFCURVE",
"396 423 CURVE SMOOTH",
"187 423 LINE",
"187 710 LINE",
"396 710 LINE SMOOTH",
"487 710 OFFCURVE",
"552 661 OFFCURVE",
"552 566 CURVE SMOOTH"
);
}
);
width = 706;
}
);
unicode = 0052;
},
{
glyphname = S;
layers = (
{
layerId = "EC1CA293-A2FE-4C5B-B0FE-1EC2B6DFF2A6";
paths = (
{
closed = 1;
nodes = (
"582 282 OFFCURVE",
"559 336 OFFCURVE",
"516 372 CURVE SMOOTH",
"483 401 OFFCURVE",
"446 416 OFFCURVE",
"373 427 CURVE SMOOTH",
"287 440 LINE SMOOTH",
"246 447 OFFCURVE",
"205 462 OFFCURVE",
"181 483 CURVE SMOOTH",
"158 504 OFFCURVE",
"146 534 OFFCURVE",
"146 573 CURVE SMOOTH",
"146 661 OFFCURVE",
"206 719 OFFCURVE",
"311 719 CURVE SMOOTH",
"394 719 OFFCURVE",
"445 696 OFFCURVE",
"494 652 CURVE",
"547 705 LINE",
"480 766 OFFCURVE",
"414 791 OFFCURVE",
"314 791 CURVE SMOOTH",
"159 791 OFFCURVE",
"63 702 OFFCURVE",
"63 570 CURVE SMOOTH",
"63 507 OFFCURVE",
"83 459 OFFCURVE",
"123 424 CURVE SMOOTH",
"157 394 OFFCURVE",
"205 374 OFFCURVE",
"267 364 CURVE SMOOTH",
"358 350 LINE SMOOTH",
"415 342 OFFCURVE",
"435 334 OFFCURVE",
"461 313 CURVE",
"486 290 OFFCURVE",
"498 255 OFFCURVE",
"498 215 CURVE SMOOTH",
"498 123 OFFCURVE",
"429 70 OFFCURVE",
"313 70 CURVE SMOOTH",
"224 70 OFFCURVE",
"165 90 OFFCURVE",
"100 155 CURVE",
"42 98 LINE",
"117 23 OFFCURVE",
"193 -5 OFFCURVE",
"311 -5 CURVE SMOOTH",
"474 -5 OFFCURVE",
"582 79 OFFCURVE",
"582 217 CURVE SMOOTH"
);
}
);
width = 638;
}
);
unicode = 0053;
},
{
glyphname = T;
layers = (
{
layerId = "EC1CA293-A2FE-4C5B-B0FE-1EC2B6DFF2A6";
paths = (
{
closed = 1;
nodes = (
"566 710 LINE",
"566 785 LINE",
"30 785 LINE",
"30 710 LINE",
"256 710 LINE",
"256 1 LINE",
"340 1 LINE",
"340 710 LINE"
);
}
);
width = 596;
}
);
unicode = 0054;
},
{
glyphname = U;
layers = (
{
layerId = "EC1CA293-A2FE-4C5B-B0FE-1EC2B6DFF2A6";
paths = (
{
closed = 1;
nodes = (
"640 785 LINE",
"556 785 LINE",
"556 267 LINE SMOOTH",
"556 148 OFFCURVE",
"481 70 OFFCURVE",
"366 70 CURVE SMOOTH",
"251 70 OFFCURVE",
"177 148 OFFCURVE",
"177 267 CURVE SMOOTH",
"177 785 LINE",
"93 785 LINE",
"93 260 LINE SMOOTH",
"93 104 OFFCURVE",
"207 -5 OFFCURVE",
"366 -5 CURVE SMOOTH",
"524 -5 OFFCURVE",
"640 104 OFFCURVE",
"640 260 CURVE SMOOTH"
);
}
);
width = 733;
}
);
unicode = 0055;
},
{
glyphname = V;
layers = (
{
layerId = "EC1CA293-A2FE-4C5B-B0FE-1EC2B6DFF2A6";
paths = (
{
closed = 1;
nodes = (
"592 785 LINE",
"504 785 LINE",
"300 151 LINE",
"96 785 LINE",
"8 785 LINE",
"266 1 LINE",
"334 1 LINE"
);
}
);
width = 600;
}
);
unicode = 0056;
},
{
glyphname = W;
layers = (
{
layerId = "EC1CA293-A2FE-4C5B-B0FE-1EC2B6DFF2A6";
paths = (
{
closed = 1;
nodes = (
"920 785 LINE",
"831 785 LINE",
"678 153 LINE",
"505 785 LINE",
"431 785 LINE",
"258 153 LINE",
"105 785 LINE",
"16 785 LINE",
"216 1 LINE",
"294 1 LINE",
"468 628 LINE",
"642 1 LINE",
"720 1 LINE"
);
}
);
width = 936;
}
);
unicode = 0057;
},
{
glyphname = X;
layers = (
{
layerId = "EC1CA293-A2FE-4C5B-B0FE-1EC2B6DFF2A6";
paths = (
{
closed = 1;
nodes = (
"589 1 LINE",
"347 403 LINE",
"573 785 LINE",
"476 785 LINE",
"302 476 LINE",
"128 785 LINE",
"31 785 LINE",
"256 403 LINE",
"16 1 LINE",
"110 1 LINE",
"302 330 LINE",
"492 1 LINE"
);
}
);
width = 605;
}
);
unicode = 0058;
},
{
glyphname = Y;
layers = (
{
layerId = "EC1CA293-A2FE-4C5B-B0FE-1EC2B6DFF2A6";
paths = (
{
closed = 1;
nodes = (
"556 785 LINE",
"466 785 LINE",
"283 410 LINE",
"98 785 LINE",
"8 785 LINE",
"241 325 LINE",
"241 1 LINE",
"325 1 LINE",
"325 325 LINE"
);
}
);
width = 564;
}
);
unicode = 0059;
},
{
glyphname = Z;
layers = (
{
layerId = "EC1CA293-A2FE-4C5B-B0FE-1EC2B6DFF2A6";
paths = (
{
closed = 1;
nodes = (
"543 1 LINE",
"543 76 LINE",
"148 76 LINE",
"543 714 LINE",
"543 785 LINE",
"72 785 LINE",
"72 710 LINE",
"449 710 LINE",
"57 81 LINE",
"57 1 LINE"
);
}
);
width = 600;
}
);
unicode = 005A;
},
{
glyphname = bracketleft;
layers = (
{
layerId = "EC1CA293-A2FE-4C5B-B0FE-1EC2B6DFF2A6";
paths = (
{
closed = 1;
nodes = (
"203 -60 LINE",
"176 -40 OFFCURVE",
"162 -16 OFFCURVE",
"162 13 CURVE SMOOTH",
"162 572 LINE SMOOTH",
"162 603 OFFCURVE",
"176 628 OFFCURVE",
"203 646 CURVE",
"149 715 LINE",
"83 688 OFFCURVE",
"50 637 OFFCURVE",
"50 564 CURVE SMOOTH",
"50 18 LINE SMOOTH",
"50 -48 OFFCURVE",
"83 -96 OFFCURVE",
"150 -127 CURVE"
);
}
);
width = 273;
}
);
unicode = 005B;
},
{
glyphname = backslash;
layers = (
{
layerId = "EC1CA293-A2FE-4C5B-B0FE-1EC2B6DFF2A6";
paths = (
{
closed = 1;
nodes = (
"504 -13 LINE",
"162 721 LINE",
"98 690 LINE",
"439 -43 LINE"
);
}
);
width = 602;
}
);
unicode = 005C;
},
{
glyphname = bracketright;
layers = (
{
layerId = "EC1CA293-A2FE-4C5B-B0FE-1EC2B6DFF2A6";
paths = (
{
closed = 1;
nodes = (
"223 564 LINE SMOOTH",
"223 637 OFFCURVE",
"190 688 OFFCURVE",
"124 715 CURVE",
"70 646 LINE",
"97 628 OFFCURVE",
"111 603 OFFCURVE",
"111 572 CURVE SMOOTH",
"111 13 LINE SMOOTH",
"111 -16 OFFCURVE",
"97 -40 OFFCURVE",
"70 -60 CURVE",
"123 -127 LINE",
"190 -96 OFFCURVE",
"223 -48 OFFCURVE",
"223 18 CURVE SMOOTH"
);
}
);
width = 273;
}
);
unicode = 005D;
},
{
glyphname = asciicircum;
layers = (
{
layerId = "EC1CA293-A2FE-4C5B-B0FE-1EC2B6DFF2A6";
paths = (
{
closed = 1;
nodes = (
"952 289 LINE",
"238 289 LINE",
"450 502 LINE",
"390 562 LINE",
"76 247 LINE",
"390 -70 LINE",
"451 -10 LINE",
"237 204 LINE",
"952 204 LINE"
);
}
);
width = 1028;
}
);
unicode = 005E;
},
{
glyphname = underscore;
layers = (
{
layerId = "EC1CA293-A2FE-4C5B-B0FE-1EC2B6DFF2A6";
paths = (
{
closed = 1;
nodes = (
"527 1 LINE",
"527 114 LINE",
"100 114 LINE",
"100 1 LINE"
);
}
);
width = 627;
}
);
unicode = 005F;
},
{
glyphname = grave;
layers = (
{
layerId = "EC1CA293-A2FE-4C5B-B0FE-1EC2B6DFF2A6";
paths = (
{
closed = 1;
nodes = (
"317 612 LINE",
"220 781 LINE",
"125 781 LINE",
"244 612 LINE"
);
}
);
width = 518;
}
);
unicode = 0060;
},
{
glyphname = a;
lastChange = "2017-07-23 09:57:21 +0000";
layers = (
{
layerId = "EC1CA293-A2FE-4C5B-B0FE-1EC2B6DFF2A6";
paths = (
{
closed = 1;
nodes = (
"210 571 LINE",
"180 396 LINE",
"625 396 LINE",
"595 571 LINE"
);
},
{
closed = 1;
nodes = (
"15 0 LINE",
"212 0 LINE",
"372 571 LINE",
"221 571 LINE",
"175 571 LINE"
);
},
{
closed = 1;
nodes = (
"640 199 LINE",
"640 371 LINE",
"184 371 LINE",
"183 199 LINE"
);
},
{
closed = 1;
nodes = (
"592 0 LINE",
"789 0 LINE",
"629 571 LINE",
"488 571 LINE",
"432 571 LINE"
);
}
);
width = 804;
},
{
associatedMasterId = "EC1CA293-A2FE-4C5B-B0FE-1EC2B6DFF2A6";
layerId = "09F0CB9A-8C4E-46B3-86A0-C186AD781CF2";
name = "Bold Jul 23 17, 12:42";
paths = (
{
closed = 1;
nodes = (
"15 0 LINE",
"225 0 LINE",
"479 571 LINE",
"263 571 LINE"
);
},
{
closed = 1;
nodes = (
"365 571 LINE",
"619 0 LINE",
"839 0 LINE",
"591 571 LINE"
);
},
{
closed = 1;
nodes = (
"612 179 LINE",
"612 351 LINE",
"246 351 LINE",
"245 179 LINE"
);
}
);
width = 854;
}
);
unicode = 0061;
},
{
glyphname = b;
lastChange = "2017-07-23 09:53:29 +0000";
layers = (
{
layerId = "EC1CA293-A2FE-4C5B-B0FE-1EC2B6DFF2A6";
paths = (
{
closed = 1;
nodes = (
"547 199 LINE",
"661 199 OFFCURVE",
"735 287 OFFCURVE",
"735 388 CURVE",
"735 489 OFFCURVE",
"651 571 OFFCURVE",
"547 571 CURVE SMOOTH",
"15 571 LINE",
"15 395 LINE",
"546 395 LINE",
"554 395 OFFCURVE",
"560 390 OFFCURVE",
"560 382 CURVE",
"560 375 OFFCURVE",
"554 370 OFFCURVE",
"546 370 CURVE",
"183 371 LINE",
"184 199 LINE"
);
},
{
closed = 1;
nodes = (
"15 571 LINE",
"15 0 LINE",
"202 0 LINE",
"202 571 LINE"
);
},
{
closed = 1;
nodes = (
"183 199 LINE",
"576 200 LINE",
"584 200 OFFCURVE",
"590 195 OFFCURVE",
"590 188 CURVE",
"590 180 OFFCURVE",
"584 175 OFFCURVE",
"576 175 CURVE",
"15 175 LINE",
"15 -1 LINE",
"577 -1 LINE SMOOTH",
"681 -1 OFFCURVE",
"765 81 OFFCURVE",
"765 182 CURVE",
"765 283 OFFCURVE",
"661 371 OFFCURVE",
"547 371 CURVE",
"184 371 LINE"
);
}
);
width = 780;
}
);
unicode = 0062;
},
{
glyphname = c;
lastChange = "2017-07-23 09:54:58 +0000";
layers = (
{
layerId = "EC1CA293-A2FE-4C5B-B0FE-1EC2B6DFF2A6";
paths = (
{
closed = 0;
nodes = (
"540 281 LINE"
);
},
{
closed = 1;
nodes = (
"372 183 LINE",
"307 183 LINE",
"252 183 OFFCURVE",
"208 228 OFFCURVE",
"208 284 CURVE",
"208 341 OFFCURVE",
"252 386 OFFCURVE",
"307 386 CURVE",
"372 386 LINE",
"765 386 LINE",
"765 573 LINE",
"348 573 LINE",
"297 573 LINE",
"137 573 OFFCURVE",
"15 442 OFFCURVE",
"15 286 CURVE SMOOTH",
"15 130 OFFCURVE",
"137 -1 OFFCURVE",
"297 -1 CURVE",
"348 -1 LINE",
"765 -1 LINE",
"765 183 LINE"
);
}
);
width = 780;
}
);
unicode = 0063;
},
{
glyphname = d;
lastChange = "2017-07-23 09:54:53 +0000";
layers = (
{
layerId = "EC1CA293-A2FE-4C5B-B0FE-1EC2B6DFF2A6";
paths = (
{
closed = 0;
nodes = (
"290 281 LINE"
);
},
{
closed = 1;
nodes = (
"523 386 LINE",
"578 386 OFFCURVE",
"622 341 OFFCURVE",
"622 284 CURVE",
"622 228 OFFCURVE",
"578 183 OFFCURVE",
"523 183 CURVE",
"458 183 LINE",
"210 183 LINE",
"210 386 LINE",
"458 386 LINE"
);
},
{
closed = 1;
nodes = (
"533 -1 LINE",
"693 -1 OFFCURVE",
"815 130 OFFCURVE",
"815 286 CURVE SMOOTH",
"815 442 OFFCURVE",
"693 573 OFFCURVE",
"533 573 CURVE",
"482 573 LINE",
"15 573 LINE",
"15 -1 LINE",
"482 -1 LINE"
);
}
);
width = 830;
}
);
unicode = 0064;
},
{
glyphname = e;
lastChange = "2017-07-23 09:53:38 +0000";
layers = (
{
layerId = "EC1CA293-A2FE-4C5B-B0FE-1EC2B6DFF2A6";
paths = (
{
closed = 1;
nodes = (
"60 571 LINE",
"60 396 LINE",
"765 396 LINE",
"765 571 LINE"
);
},
{
closed = 1;
nodes = (
"15 0 LINE",
"202 0 LINE",
"202 571 LINE",
"61 571 LINE",
"15 571 LINE"
);
},
{
closed = 1;
nodes = (
"60 175 LINE",
"60 0 LINE",
"765 0 LINE",
"765 175 LINE"
);
},
{
closed = 1;
nodes = (
"700 199 LINE",
"700 371 LINE",
"184 371 LINE",
"183 199 LINE"
);
}
);
width = 780;
}
);
unicode = 0065;
},
{
glyphname = f;
lastChange = "2017-07-23 09:54:33 +0000";
layers = (
{
layerId = "EC1CA293-A2FE-4C5B-B0FE-1EC2B6DFF2A6";
paths = (
{
closed = 1;
nodes = (
"60 571 LINE",
"60 396 LINE",
"765 396 LINE",
"765 571 LINE"
);
},
{
closed = 1;
nodes = (
"15 0 LINE",
"202 0 LINE",
"202 571 LINE",
"61 571 LINE",
"15 571 LINE"
);
},
{
closed = 1;
nodes = (
"700 199 LINE",
"700 371 LINE",
"184 371 LINE",
"183 199 LINE"
);
}
);
width = 780;
}
);
unicode = 0066;
},
{
glyphname = g;
lastChange = "2017-07-23 09:55:14 +0000";
layers = (
{
layerId = "EC1CA293-A2FE-4C5B-B0FE-1EC2B6DFF2A6";
paths = (
{
closed = 1;
nodes = (
"372 183 LINE",
"307 183 LINE",
"252 183 OFFCURVE",
"208 228 OFFCURVE",
"208 284 CURVE",
"208 341 OFFCURVE",
"252 386 OFFCURVE",
"307 386 CURVE",
"372 386 LINE",
"765 386 LINE",
"765 573 LINE",
"348 573 LINE",
"297 573 LINE",
"137 573 OFFCURVE",
"15 442 OFFCURVE",
"15 286 CURVE SMOOTH",
"15 130 OFFCURVE",
"137 -1 OFFCURVE",
"297 -1 CURVE",
"348 -1 LINE",
"765 -1 LINE",
"765 183 LINE"
);
},
{
closed = 1;
nodes = (
"578 299 LINE",
"578 0 LINE",
"765 0 LINE",
"765 299 LINE"
);
}
);
width = 780;
}
);
unicode = 0067;
},
{
glyphname = h;
lastChange = "2017-07-23 09:40:14 +0000";
layers = (
{
layerId = "EC1CA293-A2FE-4C5B-B0FE-1EC2B6DFF2A6";
paths = (
{
closed = 1;
nodes = (
"628 0 LINE",
"815 0 LINE",
"815 571 LINE",
"628 571 LINE"
);
},
{
closed = 1;
nodes = (
"15 0 LINE",
"201 0 LINE",
"201 571 LINE",
"15 571 LINE"
);
},
{
closed = 1;
nodes = (
"710 199 LINE",
"710 371 LINE",
"144 371 LINE",
"143 199 LINE"
);
}
);
width = 830;
}
);
unicode = 0068;
},
{
glyphname = i;
lastChange = "2017-07-23 09:55:26 +0000";
layers = (
{
layerId = "EC1CA293-A2FE-4C5B-B0FE-1EC2B6DFF2A6";
paths = (
{
closed = 1;
nodes = (
"715 175 LINE",
"16 175 LINE",
"16 0 LINE",
"715 0 LINE"
);
},
{
closed = 1;
nodes = (
"272 571 LINE",
"272 0 LINE",
"459 0 LINE",
"459 571 LINE"
);
},
{
closed = 1;
nodes = (
"714 571 LINE",
"15 571 LINE",
"15 396 LINE",
"714 396 LINE"
);
}
);
width = 730;
}
);
unicode = 0069;
},
{
glyphname = j;
lastChange = "2017-07-23 09:55:37 +0000";
layers = (
{
layerId = "EC1CA293-A2FE-4C5B-B0FE-1EC2B6DFF2A6";
paths = (
{
closed = 1;
nodes = (
"126 -1 LINE",
"177 -1 LINE",
"337 -1 OFFCURVE",
"459 130 OFFCURVE",
"459 286 CURVE",
"459 571 LINE",
"272 571 LINE",
"272 284 LINE",
"272 228 OFFCURVE",
"228 183 OFFCURVE",
"173 183 CURVE",
"108 183 LINE",
"15 183 LINE",
"15 -1 LINE"
);
},
{
closed = 1;
nodes = (
"715 571 LINE",
"15 571 LINE",
"15 396 LINE",
"715 396 LINE"
);
}
);
width = 730;
}
);
unicode = 006A;
},
{
glyphname = k;
lastChange = "2017-07-23 09:49:14 +0000";
layers = (
{
associatedMasterId = "EC1CA293-A2FE-4C5B-B0FE-1EC2B6DFF2A6";
layerId = "80ECFD02-9198-44E4-8612-4E1966F22C2F";
name = "Bold Jul 2 16, 21:19";
paths = (
{
closed = 1;
nodes = (
"621 570 LINE",
"406 570 LINE",
"50 215 LINE",
"200 147 LINE"
);
},
{
closed = 1;
nodes = (
"239 1 LINE",
"239 572 LINE",
"53 572 LINE",
"53 1 LINE"
);
},
{
closed = 1;
nodes = (
"395 379 LINE",
"285 258 LINE",
"587 -12 LINE",
"696 109 LINE"
);
}
);
width = 746;
},
{
associatedMasterId = "EC1CA293-A2FE-4C5B-B0FE-1EC2B6DFF2A6";
layerId = "030AB765-9378-4ADD-9DB2-600692D4E08C";
name = "Bold Jul 2 16, 21:19";
paths = (
{
closed = 1;
nodes = (
"50 572 LINE",
"50 1 LINE",
"238 1 LINE",
"238 572 LINE"
);
},
{
closed = 1;
nodes = (
"555 572 LINE",
"50 1 LINE",
"284 1 LINE",
"796 572 LINE"
);
},
{
closed = 1;
nodes = (
"540 314 LINE",
"430 192 LINE",
"693 -43 LINE",
"802 78 LINE"
);
}
);
width = 852;
},
{
associatedMasterId = "EC1CA293-A2FE-4C5B-B0FE-1EC2B6DFF2A6";
layerId = "476AC156-5565-4377-A124-50053AB77C1C";
name = "Bold Jul 2 16, 21:19 Jul 2 16, 21:20";
paths = (
{
closed = 1;
nodes = (
"50 572 LINE",
"50 1 LINE",
"238 1 LINE",
"238 572 LINE"
);
},
{
closed = 1;
nodes = (
"555 572 LINE",
"50 1 LINE",
"284 1 LINE",
"796 572 LINE"
);
},
{
closed = 1;
nodes = (
"540 314 LINE",
"430 192 LINE",
"693 -43 LINE",
"802 78 LINE"
);
}
);
width = 746;
},
{
associatedMasterId = "EC1CA293-A2FE-4C5B-B0FE-1EC2B6DFF2A6";
layerId = "C3E4BE8C-E54F-45B9-91A4-22D1951E7719";
name = "Bold Jul 23 17, 10:09";
paths = (
{
closed = 1;
nodes = (
"496 400 LINE",
"612 0 LINE",
"809 0 LINE",
"692 400 LINE"
);
},
{
closed = 1;
nodes = (
"50 571 LINE",
"50 0 LINE",
"238 0 LINE",
"238 571 LINE"
);
},
{
closed = 1;
nodes = (
"589 571 LINE",
"70 0 LINE",
"324 0 LINE",
"850 571 LINE"
);
}
);
width = 900;
},
{
associatedMasterId = "EC1CA293-A2FE-4C5B-B0FE-1EC2B6DFF2A6";
layerId = "417D7877-1F41-4A19-B1D2-D85F1BD9A40B";
name = "Bold Jul 23 17, 10:16";
paths = (
{
closed = 1;
nodes = (
"237 0 LINE",
"237 571 LINE",
"50 571 LINE",
"50 0 LINE"
);
},
{
closed = 1;
nodes = (
"348 0 LINE",
"850 571 LINE",
"598 571 LINE",
"96 0 LINE"
);
},
{
closed = 1;
nodes = (
"120 175 LINE",
"120 0 LINE",
"326 0 LINE",
"326 175 LINE"
);
},
{
closed = 1;
nodes = (
"632 0 LINE",
"864 0 LINE",
"622 374 LINE",
"444 287 LINE"
);
}
);
width = 900;
},
{
associatedMasterId = "EC1CA293-A2FE-4C5B-B0FE-1EC2B6DFF2A6";
layerId = "1636B2A5-CD5D-4152-BC76-57E0AE22588E";
name = "Bold Jul 23 17, 12:44";
paths = (
{
closed = 1;
nodes = (
"202 0 LINE",
"202 571 LINE",
"15 571 LINE",
"15 0 LINE"
);
},
{
closed = 1;
nodes = (
"815 571 LINE",
"528 571 LINE",
"263 354 LINE",
"479 308 LINE"
);
},
{
closed = 1;
nodes = (
"266 371 LINE",
"586 0 LINE",
"813 0 LINE",
"493 371 LINE"
);
},
{
closed = 1;
nodes = (
"443 199 LINE",
"308 371 LINE",
"154 371 LINE",
"153 199 LINE"
);
}
);
width = 830;
},
{
associatedMasterId = "EC1CA293-A2FE-4C5B-B0FE-1EC2B6DFF2A6";
layerId = "8BCC09CD-D4A8-4D60-B7A8-9DF48C4A174B";
name = "Bold Jul 23 17, 12:45";
paths = (
{
closed = 1;
nodes = (
"202 0 LINE",
"202 571 LINE",
"15 571 LINE",
"15 0 LINE"
);
},
{
closed = 1;
nodes = (
"815 571 LINE",
"528 571 LINE",
"263 354 LINE",
"479 308 LINE"
);
},
{
closed = 1;
nodes = (
"266 371 LINE",
"586 0 LINE",
"813 0 LINE",
"493 371 LINE"
);
},
{
closed = 1;
nodes = (
"443 199 LINE",
"308 371 LINE",
"154 371 LINE",
"153 199 LINE"
);
}
);
width = 830;
},
{
layerId = "EC1CA293-A2FE-4C5B-B0FE-1EC2B6DFF2A6";
paths = (
{
closed = 1;
nodes = (
"411 351 LINE",
"587 1 LINE",
"774 1 LINE",
"597 351 LINE"
);
},
{
closed = 1;
nodes = (
"15 572 LINE",
"15 1 LINE",
"203 1 LINE",
"203 572 LINE"
);
},
{
closed = 1;
nodes = (
"564 572 LINE",
"59 57 LINE",
"15 1 LINE",
"249 1 LINE",
"815 572 LINE"
);
}
);
width = 830;
}
);
unicode = 006B;
},
{
glyphname = l;
lastChange = "2017-07-23 09:53:53 +0000";
layers = (
{
layerId = "EC1CA293-A2FE-4C5B-B0FE-1EC2B6DFF2A6";
paths = (
{
closed = 1;
nodes = (
"715 175 LINE",
"84 175 LINE",
"84 0 LINE",
"715 0 LINE"
);
},
{
closed = 1;
nodes = (
"202 0 LINE",
"202 571 LINE",
"15 571 LINE",
"15 0 LINE"
);
}
);
width = 730;
}
);
unicode = 006C;
},
{
glyphname = m;
lastChange = "2017-07-23 09:59:47 +0000";
layers = (
{
layerId = "EC1CA293-A2FE-4C5B-B0FE-1EC2B6DFF2A6";
paths = (
{
closed = 1;
nodes = (
"507 90 LINE",
"320 571 LINE",
"96 571 LINE",
"301 90 LINE"
);
},
{
closed = 1;
nodes = (
"15 0 LINE",
"202 0 LINE",
"202 571 LINE",
"15 571 LINE"
);
},
{
closed = 1;
nodes = (
"628 0 LINE",
"815 0 LINE",
"815 571 LINE",
"628 571 LINE"
);
},
{
closed = 1;
nodes = (
"732 571 LINE",
"508 571 LINE",
"321 90 LINE",
"527 90 LINE"
);
}
);
width = 830;
}
);
unicode = 006D;
},
{
glyphname = n;
lastChange = "2017-07-23 09:55:53 +0000";
layers = (
{
layerId = "EC1CA293-A2FE-4C5B-B0FE-1EC2B6DFF2A6";
paths = (
{
closed = 1;
nodes = (
"15 0 LINE",
"202 0 LINE",
"202 571 LINE",
"15 571 LINE"
);
},
{
closed = 1;
nodes = (
"578 0 LINE",
"765 0 LINE",
"765 571 LINE",
"578 571 LINE"
);
},
{
closed = 1;
nodes = (
"426 0 LINE",
"658 0 LINE",
"353 571 LINE",
"121 571 LINE"
);
},
{
closed = 1;
nodes = (
"291 571 LINE",
"85 571 LINE",
"85 396 LINE",
"291 396 LINE"
);
},
{
closed = 1;
nodes = (
"704 175 LINE",
"488 175 LINE",
"488 0 LINE",
"704 0 LINE"
);
}
);
width = 780;
}
);
unicode = 006E;
},
{
glyphname = o;
lastChange = "2017-07-23 09:39:22 +0000";
layers = (
{
layerId = "EC1CA293-A2FE-4C5B-B0FE-1EC2B6DFF2A6";
paths = (
{
closed = 1;
nodes = (
"478 386 LINE",
"543 386 LINE",
"598 386 OFFCURVE",
"642 341 OFFCURVE",
"642 284 CURVE",
"642 228 OFFCURVE",
"598 183 OFFCURVE",
"543 183 CURVE",
"478 183 LINE",
"307 183 LINE",
"252 183 OFFCURVE",
"208 228 OFFCURVE",
"208 284 CURVE",
"208 341 OFFCURVE",
"252 386 OFFCURVE",
"307 386 CURVE"
);
},
{
closed = 1;
nodes = (
"502 -1 LINE",
"553 -1 LINE",
"713 -1 OFFCURVE",
"835 130 OFFCURVE",
"835 286 CURVE SMOOTH",
"835 442 OFFCURVE",
"713 573 OFFCURVE",
"553 573 CURVE",
"502 573 LINE",
"297 573 LINE",
"137 573 OFFCURVE",
"15 442 OFFCURVE",
"15 286 CURVE SMOOTH",
"15 130 OFFCURVE",
"137 -1 OFFCURVE",
"297 -1 CURVE"
);
}
);
width = 850;
}
);
unicode = 006F;
},
{
glyphname = p;
lastChange = "2017-07-23 09:56:49 +0000";
layers = (
{
layerId = "EC1CA293-A2FE-4C5B-B0FE-1EC2B6DFF2A6";
paths = (
{
closed = 1;
nodes = (
"577 199 LINE",
"691 199 OFFCURVE",
"765 287 OFFCURVE",
"765 388 CURVE",
"765 489 OFFCURVE",
"681 571 OFFCURVE",
"577 571 CURVE SMOOTH",
"15 571 LINE",
"15 395 LINE",
"576 395 LINE",
"584 395 OFFCURVE",
"590 390 OFFCURVE",
"590 382 CURVE",
"590 375 OFFCURVE",
"584 370 OFFCURVE",
"576 370 CURVE",
"183 371 LINE",
"184 199 LINE"
);
},
{
closed = 1;
nodes = (
"15 571 LINE",
"15 0 LINE",
"202 0 LINE",
"202 571 LINE"
);
}
);
width = 780;
}
);
unicode = 0070;
},
{
glyphname = q;
lastChange = "2017-07-23 09:41:04 +0000";
layers = (
{
layerId = "EC1CA293-A2FE-4C5B-B0FE-1EC2B6DFF2A6";
paths = (
{
closed = 1;
nodes = (
"478 386 LINE",
"543 386 LINE",
"598 386 OFFCURVE",
"642 341 OFFCURVE",
"642 284 CURVE",
"642 228 OFFCURVE",
"598 183 OFFCURVE",
"543 183 CURVE",
"478 183 LINE",
"307 183 LINE",
"252 183 OFFCURVE",
"208 228 OFFCURVE",
"208 284 CURVE",
"208 341 OFFCURVE",
"252 386 OFFCURVE",
"307 386 CURVE"
);
},
{
closed = 1;
nodes = (
"502 -1 LINE",
"553 -1 LINE",
"713 -1 OFFCURVE",
"835 130 OFFCURVE",
"835 286 CURVE SMOOTH",
"835 442 OFFCURVE",
"713 573 OFFCURVE",
"553 573 CURVE",
"502 573 LINE",
"297 573 LINE",
"137 573 OFFCURVE",
"15 442 OFFCURVE",
"15 286 CURVE SMOOTH",
"15 130 OFFCURVE",
"137 -1 OFFCURVE",
"297 -1 CURVE"
);
},
{
closed = 1;
nodes = (
"325 299 LINE",
"515 -92 LINE",
"750 -92 LINE",
"544 299 LINE"
);
}
);
width = 850;
}
);
unicode = 0071;
},
{
glyphname = r;
lastChange = "2017-07-23 09:56:30 +0000";
layers = (
{
layerId = "EC1CA293-A2FE-4C5B-B0FE-1EC2B6DFF2A6";
paths = (
{
closed = 1;
nodes = (
"577 199 LINE",
"691 199 OFFCURVE",
"765 287 OFFCURVE",
"765 388 CURVE",
"765 489 OFFCURVE",
"681 571 OFFCURVE",
"577 571 CURVE SMOOTH",
"15 571 LINE",
"15 395 LINE",
"576 395 LINE",
"584 395 OFFCURVE",
"590 390 OFFCURVE",
"590 382 CURVE",
"590 375 OFFCURVE",
"584 370 OFFCURVE",
"576 370 CURVE",
"183 371 LINE",
"184 199 LINE"
);
},
{
closed = 1;
nodes = (
"15 571 LINE",
"15 0 LINE",
"202 0 LINE",
"202 571 LINE"
);
},
{
closed = 1;
nodes = (
"425 271 LINE",
"542 0 LINE",
"739 0 LINE",
"622 271 LINE"
);
}
);
width = 780;
}
);
unicode = 0072;
},
{
glyphname = s;
lastChange = "2017-07-23 09:41:09 +0000";
layers = (
{
layerId = "EC1CA293-A2FE-4C5B-B0FE-1EC2B6DFF2A6";
paths = (
{
closed = 1;
nodes = (
"203 200 LINE",
"89 200 OFFCURVE",
"15 287 OFFCURVE",
"15 388 CURVE",
"15 489 OFFCURVE",
"99 571 OFFCURVE",
"203 571 CURVE SMOOTH",
"815 571 LINE",
"815 395 LINE",
"204 395 LINE",
"196 395 OFFCURVE",
"190 390 OFFCURVE",
"190 382 CURVE",
"190 375 OFFCURVE",
"196 370 OFFCURVE",
"204 370 CURVE",
"627 371 LINE",
"741 371 OFFCURVE",
"815 291 OFFCURVE",
"815 190 CURVE",
"815 89 OFFCURVE",
"731 0 OFFCURVE",
"627 0 CURVE SMOOTH",
"18 0 LINE",
"18 175 LINE",
"626 175 LINE",
"634 175 OFFCURVE",
"640 180 OFFCURVE",
"640 188 CURVE",
"640 195 OFFCURVE",
"634 200 OFFCURVE",
"626 200 CURVE"
);
}
);
width = 830;
},
{
associatedMasterId = "EC1CA293-A2FE-4C5B-B0FE-1EC2B6DFF2A6";
layerId = "1EB5F606-2B39-4D5D-B1B6-38EAC23EF026";
name = "Bold Jul 23 17, 09:06";
paths = (
{
closed = 1;
nodes = (
"518 342 OFFCURVE",
"562 386 OFFCURVE",
"617 386 CURVE",
"850 386 LINE",
"850 573 LINE",
"607 573 LINE",
"460 573 OFFCURVE",
"327 461 OFFCURVE",
"327 321 CURVE SMOOTH",
"327 309 OFFCURVE",
"325 297 OFFCURVE",
"325 285 CURVE",
"325 229 OFFCURVE",
"281 183 OFFCURVE",
"226 183 CURVE",
"50 183 LINE",
"50 -1 LINE",
"236 -1 LINE",
"391 -1 OFFCURVE",
"518 122 OFFCURVE",
"518 272 CURVE SMOOTH",
"518 276 OFFCURVE",
"518 281 OFFCURVE",
"518 285 CURVE"
);
}
);
width = 900;
}
);
unicode = 0073;
},
{
glyphname = t;
lastChange = "2017-07-23 09:41:12 +0000";
layers = (
{
layerId = "EC1CA293-A2FE-4C5B-B0FE-1EC2B6DFF2A6";
paths = (
{
closed = 1;
nodes = (
"322 571 LINE",
"322 0 LINE",
"509 0 LINE",
"509 571 LINE"
);
},
{
closed = 1;
nodes = (
"815 571 LINE",
"15 571 LINE",
"15 396 LINE",
"815 396 LINE"
);
}
);
width = 830;
}
);
unicode = 0074;
},
{
glyphname = u;
lastChange = "2017-07-23 09:41:27 +0000";
layers = (
{
layerId = "EC1CA293-A2FE-4C5B-B0FE-1EC2B6DFF2A6";
paths = (
{
closed = 1;
nodes = (
"15 130 OFFCURVE",
"137 -1 OFFCURVE",
"297 -1 CURVE",
"553 -1 LINE",
"713 -1 OFFCURVE",
"835 130 OFFCURVE",
"835 286 CURVE",
"835 571 LINE",
"645 571 LINE",
"645 294 LINE",
"645 238 OFFCURVE",
"603 183 OFFCURVE",
"538 183 CURVE",
"312 183 LINE",
"247 183 OFFCURVE",
"205 238 OFFCURVE",
"205 294 CURVE",
"205 571 LINE",
"15 571 LINE",
"15 286 LINE"
);
}
);
width = 850;
}
);
unicode = 0075;
},
{
glyphname = v;
lastChange = "2017-07-23 09:52:30 +0000";
layers = (
{
associatedMasterId = "EC1CA293-A2FE-4C5B-B0FE-1EC2B6DFF2A6";
layerId = "835144D6-D725-4ECB-9843-621067D148E7";
name = "Bold Jul 23 17, 12:52";
paths = (
{
closed = 1;
nodes = (
"815 299 LINE",
"628 370 LINE",
"315 0 LINE",
"559 0 LINE"
);
},
{
closed = 1;
nodes = (
"512 0 LINE",
"202 370 LINE",
"15 299 LINE",
"268 0 LINE"
);
},
{
closed = 1;
nodes = (
"15 299 LINE",
"202 299 LINE",
"202 571 LINE",
"15 571 LINE"
);
},
{
closed = 1;
nodes = (
"628 299 LINE",
"815 299 LINE",
"815 571 LINE",
"628 571 LINE"
);
}
);
width = 830;
},
{
associatedMasterId = "EC1CA293-A2FE-4C5B-B0FE-1EC2B6DFF2A6";
layerId = "E21EA676-4C21-4349-B6BA-55C081F2DBDA";
name = "Bold Jul 23 17, 12:52";
paths = (
{
closed = 1;
nodes = (
"815 299 LINE",
"628 370 LINE",
"315 0 LINE",
"559 0 LINE"
);
},
{
closed = 1;
nodes = (
"512 0 LINE",
"202 370 LINE",
"15 299 LINE",
"268 0 LINE"
);
},
{
closed = 1;
nodes = (
"15 299 LINE",
"202 299 LINE",
"202 571 LINE",
"15 571 LINE"
);
},
{
closed = 1;
nodes = (
"628 299 LINE",
"815 299 LINE",
"815 571 LINE",
"628 571 LINE"
);
}
);
width = 830;
},
{
layerId = "EC1CA293-A2FE-4C5B-B0FE-1EC2B6DFF2A6";
paths = (
{
closed = 1;
nodes = (
"815 571 LINE",
"585 571 LINE",
"301 0 LINE",
"529 0 LINE"
);
},
{
closed = 1;
nodes = (
"529 0 LINE",
"245 571 LINE",
"15 571 LINE",
"301 0 LINE"
);
}
);
width = 830;
}
);
unicode = 0076;
},
{
glyphname = w;
lastChange = "2017-07-23 09:59:38 +0000";
layers = (
{
layerId = "EC1CA293-A2FE-4C5B-B0FE-1EC2B6DFF2A6";
paths = (
{
closed = 1;
nodes = (
"96 0 LINE",
"320 0 LINE",
"507 481 LINE",
"301 481 LINE"
);
},
{
closed = 1;
nodes = (
"202 0 LINE",
"202 571 LINE",
"15 571 LINE",
"15 0 LINE"
);
},
{
closed = 1;
nodes = (
"815 0 LINE",
"815 571 LINE",
"628 571 LINE",
"628 0 LINE"
);
},
{
closed = 1;
nodes = (
"321 481 LINE",
"508 0 LINE",
"732 0 LINE",
"527 481 LINE"
);
}
);
width = 830;
},
{
associatedMasterId = "EC1CA293-A2FE-4C5B-B0FE-1EC2B6DFF2A6";
layerId = "4EEBE462-D95E-4103-8EB8-5A0BB7A2888D";
name = "Bold Jul 2 16, 20:43";
paths = (
{
closed = 1;
nodes = (
"133 1 LINE",
"318 1 LINE",
"450 572 LINE",
"259 572 LINE"
);
},
{
closed = 1;
nodes = (
"353 572 LINE",
"485 1 LINE",
"680 1 LINE",
"554 572 LINE"
);
},
{
closed = 1;
nodes = (
"167 0 LINE",
"137 572 LINE",
"-50 572 LINE",
"-20 1 LINE"
);
},
{
closed = 1;
nodes = (
"855 572 LINE",
"678 572 LINE",
"648 0 LINE",
"825 1 LINE"
);
}
);
width = 794;
},
{
associatedMasterId = "EC1CA293-A2FE-4C5B-B0FE-1EC2B6DFF2A6";
layerId = "5CC46494-3CC2-4E11-B0B6-02A4D7C6AA68";
name = "Bold Jul 13 16, 21:20";
paths = (
{
closed = 1;
nodes = (
"433 571 LINE",
"565 0 LINE",
"800 0 LINE",
"644 571 LINE"
);
},
{
closed = 1;
nodes = (
"974 571 LINE",
"797 571 LINE",
"747 -1 LINE",
"924 0 LINE"
);
},
{
closed = 1;
nodes = (
"280 -1 LINE",
"230 571 LINE",
"33 571 LINE",
"83 0 LINE"
);
},
{
closed = 1;
nodes = (
"223 0 LINE",
"458 0 LINE",
"590 571 LINE",
"379 571 LINE"
);
}
);
width = 984;
},
{
associatedMasterId = "EC1CA293-A2FE-4C5B-B0FE-1EC2B6DFF2A6";
layerId = "8959260F-1851-413A-A943-AB1E212FA2C3";
name = "Bold Jul 15 16, 17:22";
paths = (
{
closed = 1;
nodes = (
"714 571 LINE",
"504 571 LINE",
"320 0 LINE",
"526 0 LINE"
);
},
{
closed = 1;
nodes = (
"484 0 LINE",
"250 571 LINE",
"20 571 LINE",
"258 0 LINE"
);
},
{
closed = 1;
nodes = (
"1244 571 LINE",
"1014 571 LINE",
"760 0 LINE",
"986 0 LINE"
);
},
{
closed = 1;
nodes = (
"924 0 LINE",
"740 571 LINE",
"510 571 LINE",
"698 0 LINE"
);
}
);
width = 1234;
}
);
unicode = 0077;
},
{
glyphname = x;
lastChange = "2017-07-23 09:41:35 +0000";
layers = (
{
layerId = "EC1CA293-A2FE-4C5B-B0FE-1EC2B6DFF2A6";
paths = (
{
closed = 1;
nodes = (
"15 0 LINE",
"255 0 LINE",
"815 571 LINE",
"569 571 LINE"
);
},
{
closed = 1;
nodes = (
"136 497 LINE",
"552 -45 LINE",
"708 68 LINE",
"290 609 LINE"
);
}
);
width = 830;
}
);
unicode = 0078;
},
{
glyphname = y;
lastChange = "2017-07-23 09:47:22 +0000";
layers = (
{
layerId = "EC1CA293-A2FE-4C5B-B0FE-1EC2B6DFF2A6";
paths = (
{
closed = 1;
nodes = (
"322 328 LINE",
"322 0 LINE",
"509 0 LINE",
"509 328 LINE"
);
},
{
closed = 1;
nodes = (
"15 571 LINE",
"15 319 LINE",
"202 319 LINE",
"202 571 LINE"
);
},
{
closed = 1;
nodes = (
"627 571 LINE",
"627 319 LINE",
"814 319 LINE",
"814 571 LINE"
);
},
{
closed = 1;
nodes = (
"814 199 LINE",
"814 371 LINE",
"15 371 LINE",
"14 199 LINE"
);
}
);
width = 830;
},
{
associatedMasterId = "EC1CA293-A2FE-4C5B-B0FE-1EC2B6DFF2A6";
layerId = "4996A159-71A9-47C4-80E1-49A271B78E41";
name = "Bold Jul 23 17, 12:46";
paths = (
{
closed = 1;
nodes = (
"815 571 LINE",
"580 571 LINE",
"377 310 LINE",
"505 171 LINE SMOOTH"
);
},
{
closed = 1;
nodes = (
"322 341 LINE",
"322 0 LINE",
"509 0 LINE",
"509 341 LINE"
);
},
{
closed = 1;
nodes = (
"453 310 LINE",
"250 571 LINE",
"15 571 LINE",
"325 171 LINE SMOOTH"
);
}
);
width = 830;
}
);
unicode = 0079;
},
{
glyphname = z;
lastChange = "2017-07-23 09:41:40 +0000";
layers = (
{
layerId = "EC1CA293-A2FE-4C5B-B0FE-1EC2B6DFF2A6";
paths = (
{
closed = 1;
nodes = (
"815 376 LINE",
"815 571 LINE",
"15 571 LINE",
"15 396 LINE",
"450 396 LINE",
"15 195 LINE",
"15 0 LINE",
"815 0 LINE",
"815 175 LINE",
"387 175 LINE"
);
}
);
width = 830;
}
);
unicode = 007A;
},
{
glyphname = braceleft;
layers = (
{
layerId = "EC1CA293-A2FE-4C5B-B0FE-1EC2B6DFF2A6";
paths = (
{
closed = 1;
nodes = (
"142 236 LINE",
"142 18 LINE SMOOTH",
"142 -48 OFFCURVE",
"175 -96 OFFCURVE",
"242 -127 CURVE",
"295 -60 LINE",
"268 -40 OFFCURVE",
"254 -16 OFFCURVE",
"254 13 CURVE SMOOTH",
"254 572 LINE SMOOTH",
"254 603 OFFCURVE",
"268 628 OFFCURVE",
"295 646 CURVE",
"241 715 LINE",
"175 688 OFFCURVE",
"142 637 OFFCURVE",
"142 564 CURVE SMOOTH",
"142 351 LINE",
"49 351 LINE",
"49 236 LINE"
);
}
);
width = 370;
}
);
unicode = 007B;
},
{
glyphname = bar;
layers = (
{
layerId = "EC1CA293-A2FE-4C5B-B0FE-1EC2B6DFF2A6";
paths = (
{
closed = 1;
nodes = (
"183 -69 LINE",
"183 676 LINE",
"70 676 LINE",
"70 -69 LINE"
);
}
);
width = 253;
}
);
unicode = 007C;
},
{
glyphname = braceright;
layers = (
{
layerId = "EC1CA293-A2FE-4C5B-B0FE-1EC2B6DFF2A6";
paths = (
{
closed = 1;
nodes = (
"321 236 LINE",
"321 351 LINE",
"228 351 LINE",
"228 564 LINE SMOOTH",
"228 637 OFFCURVE",
"195 688 OFFCURVE",
"129 715 CURVE",
"75 646 LINE",
"102 628 OFFCURVE",
"116 603 OFFCURVE",
"116 572 CURVE SMOOTH",
"116 13 LINE SMOOTH",
"116 -16 OFFCURVE",
"102 -40 OFFCURVE",
"75 -60 CURVE",
"128 -127 LINE",
"195 -96 OFFCURVE",
"228 -48 OFFCURVE",
"228 18 CURVE SMOOTH",
"228 236 LINE"
);
}
);
width = 370;
}
);
unicode = 007D;
},
{
glyphname = asciitilde;
layers = (
{
layerId = "EC1CA293-A2FE-4C5B-B0FE-1EC2B6DFF2A6";
paths = (
{
closed = 1;
nodes = (
"485 328 LINE",
"442 285 OFFCURVE",
"422 279 OFFCURVE",
"392 279 CURVE SMOOTH",
"361 279 OFFCURVE",
"337 290 OFFCURVE",
"306 305 CURVE SMOOTH",
"263 324 OFFCURVE",
"230 339 OFFCURVE",
"191 339 CURVE SMOOTH",
"140 339 OFFCURVE",
"110 325 OFFCURVE",
"49 264 CURVE",
"97 215 LINE",
"140 258 OFFCURVE",
"158 264 OFFCURVE",
"190 264 CURVE SMOOTH",
"219 264 OFFCURVE",
"244 253 OFFCURVE",
"275 238 CURVE SMOOTH",
"318 219 OFFCURVE",
"353 204 OFFCURVE",
"392 204 CURVE SMOOTH",
"442 204 OFFCURVE",
"472 217 OFFCURVE",
"534 279 CURVE"
);
}
);
width = 583;
}
);
unicode = 007E;
},
{
glyphname = Adieresis;
layers = (
{
layerId = "EC1CA293-A2FE-4C5B-B0FE-1EC2B6DFF2A6";
paths = (
{
closed = 1;
nodes = (
"657 1 LINE",
"370 785 LINE",
"300 785 LINE",
"12 1 LINE",
"101 1 LINE",
"163 178 LINE",
"506 178 LINE",
"568 1 LINE"
);
},
{
closed = 1;
nodes = (
"481 251 LINE",
"189 251 LINE",
"336 665 LINE"
);
},
{
closed = 1;
nodes = (
"487 810 LINE",
"487 908 LINE",
"408 908 LINE",
"408 810 LINE"
);
},
{
closed = 1;
nodes = (
"254 810 LINE",
"254 908 LINE",
"175 908 LINE",
"175 810 LINE"
);
}
);
width = 669;
}
);
unicode = 00C4;
},
{
glyphname = Aring;
layers = (
{
layerId = "EC1CA293-A2FE-4C5B-B0FE-1EC2B6DFF2A6";
paths = (
{
closed = 1;
nodes = (
"657 1 LINE",
"370 785 LINE",
"300 785 LINE",
"12 1 LINE",
"101 1 LINE",
"163 178 LINE",
"506 178 LINE",
"568 1 LINE"
);
},
{
closed = 1;
nodes = (
"481 251 LINE",
"189 251 LINE",
"336 665 LINE"
);
},
{
closed = 1;
nodes = (
"461 966 OFFCURVE",
"403 1023 OFFCURVE",
"331 1023 CURVE SMOOTH",
"259 1023 OFFCURVE",
"201 965 OFFCURVE",
"201 893 CURVE SMOOTH",
"201 821 OFFCURVE",
"259 762 OFFCURVE",
"331 762 CURVE SMOOTH",
"403 762 OFFCURVE",
"461 821 OFFCURVE",
"461 893 CURVE SMOOTH"
);
},
{
closed = 1;
nodes = (
"407 850 OFFCURVE",
"374 817 OFFCURVE",
"331 817 CURVE SMOOTH",
"288 817 OFFCURVE",
"255 850 OFFCURVE",
"255 893 CURVE SMOOTH",
"255 936 OFFCURVE",
"288 968 OFFCURVE",
"331 968 CURVE SMOOTH",
"374 968 OFFCURVE",
"407 936 OFFCURVE",
"407 893 CURVE SMOOTH"
);
}
);
width = 669;
}
);
unicode = 00C5;
},
{
glyphname = Ccedilla;
layers = (
{
layerId = "EC1CA293-A2FE-4C5B-B0FE-1EC2B6DFF2A6";
paths = (
{
closed = 1;
nodes = (
"538 228 LINE",
"517 132 OFFCURVE",
"449 70 OFFCURVE",
"350 70 CURVE SMOOTH",
"298 70 OFFCURVE",
"250 89 OFFCURVE",
"215 125 CURVE SMOOTH",
"166 177 OFFCURVE",
"160 229 OFFCURVE",
"160 393 CURVE SMOOTH",
"160 556 OFFCURVE",
"166 610 OFFCURVE",
"215 661 CURVE SMOOTH",
"250 697 OFFCURVE",
"298 716 OFFCURVE",
"350 716 CURVE SMOOTH",
"449 716 OFFCURVE",
"515 654 OFFCURVE",
"536 558 CURVE",
"622 558 LINE",
"595 706 OFFCURVE",
"490 791 OFFCURVE",
"350 791 CURVE SMOOTH",
"273 791 OFFCURVE",
"203 763 OFFCURVE",
"150 710 CURVE SMOOTH",
"76 636 OFFCURVE",
"76 559 OFFCURVE",
"76 393 CURVE SMOOTH",
"76 227 OFFCURVE",
"76 150 OFFCURVE",
"150 76 CURVE SMOOTH",
"203 23 OFFCURVE",
"273 -5 OFFCURVE",
"350 -5 CURVE SMOOTH",
"490 -5 OFFCURVE",
"598 80 OFFCURVE",
"622 228 CURVE"
);
},
{
closed = 1;
nodes = (
"402 -33 LINE",
"328 -33 LINE",
"250 -197 LINE",
"337 -197 LINE"
);
}
);
width = 687;
}
);
unicode = 00C7;
},
{
glyphname = Eacute;
layers = (
{
layerId = "EC1CA293-A2FE-4C5B-B0FE-1EC2B6DFF2A6";
paths = (
{
closed = 1;
nodes = (
"589 1 LINE",
"589 76 LINE",
"186 76 LINE",
"186 359 LINE",
"530 359 LINE",
"530 434 LINE",
"186 434 LINE",
"186 710 LINE",
"589 710 LINE",
"589 785 LINE",
"103 785 LINE",
"103 1 LINE"
);
},
{
closed = 1;
nodes = (
"469 968 LINE",
"374 968 LINE",
"277 799 LINE",
"350 799 LINE"
);
}
);
width = 644;
}
);
unicode = 00C9;
},
{
glyphname = Ntilde;
layers = (
{
layerId = "EC1CA293-A2FE-4C5B-B0FE-1EC2B6DFF2A6";
paths = (
{
closed = 1;
nodes = (
"656 1 LINE",
"656 785 LINE",
"573 785 LINE",
"573 159 LINE",
"157 785 LINE",
"78 785 LINE",
"78 1 LINE",
"161 1 LINE",
"161 630 LINE",
"577 1 LINE"
);
},
{
closed = 1;
nodes = (
"498 912 LINE",
"466 880 OFFCURVE",
"450 877 OFFCURVE",
"433 877 CURVE SMOOTH",
"410 877 OFFCURVE",
"395 884 OFFCURVE",
"372 899 CURVE",
"344 915 OFFCURVE",
"325 925 OFFCURVE",
"294 925 CURVE SMOOTH",
"266 925 OFFCURVE",
"238 918 OFFCURVE",
"189 869 CURVE",
"230 829 LINE",
"263 862 OFFCURVE",
"276 864 OFFCURVE",
"295 864 CURVE SMOOTH",
"318 864 OFFCURVE",
"335 853 OFFCURVE",
"356 841 CURVE SMOOTH",
"383 826 OFFCURVE",
"403 816 OFFCURVE",
"434 816 CURVE SMOOTH",
"461 816 OFFCURVE",
"488 824 OFFCURVE",
"539 872 CURVE"
);
}
);
width = 732;
}
);
unicode = 00D1;
},
{
glyphname = Odieresis;
layers = (
{
layerId = "EC1CA293-A2FE-4C5B-B0FE-1EC2B6DFF2A6";
paths = (
{
closed = 1;
nodes = (
"624 559 OFFCURVE",
"624 636 OFFCURVE",
"550 710 CURVE SMOOTH",
"496 764 OFFCURVE",
"429 791 OFFCURVE",
"350 791 CURVE SMOOTH",
"271 791 OFFCURVE",
"204 764 OFFCURVE",
"150 710 CURVE SMOOTH",
"76 636 OFFCURVE",
"76 559 OFFCURVE",
"76 393 CURVE SMOOTH",
"76 227 OFFCURVE",
"76 150 OFFCURVE",
"150 76 CURVE SMOOTH",
"204 22 OFFCURVE",
"271 -5 OFFCURVE",
"350 -5 CURVE SMOOTH",
"429 -5 OFFCURVE",
"496 22 OFFCURVE",
"550 76 CURVE SMOOTH",
"624 150 OFFCURVE",
"624 227 OFFCURVE",
"624 393 CURVE SMOOTH"
);
},
{
closed = 1;
nodes = (
"540 228 OFFCURVE",
"534 177 OFFCURVE",
"485 126 CURVE SMOOTH",
"450 90 OFFCURVE",
"402 70 OFFCURVE",
"350 70 CURVE SMOOTH",
"298 70 OFFCURVE",
"250 90 OFFCURVE",
"215 126 CURVE SMOOTH",
"166 177 OFFCURVE",
"160 228 OFFCURVE",
"160 393 CURVE SMOOTH",
"160 557 OFFCURVE",
"167 609 OFFCURVE",
"215 660 CURVE SMOOTH",
"250 696 OFFCURVE",
"298 716 OFFCURVE",
"350 716 CURVE SMOOTH",
"402 716 OFFCURVE",
"450 696 OFFCURVE",
"485 660 CURVE SMOOTH",
"533 609 OFFCURVE",
"540 557 OFFCURVE",
"540 393 CURVE SMOOTH"
);
},
{
closed = 1;
nodes = (
"506 810 LINE",
"506 908 LINE",
"427 908 LINE",
"427 810 LINE"
);
},
{
closed = 1;
nodes = (
"273 810 LINE",
"273 908 LINE",
"194 908 LINE",
"194 810 LINE"
);
}
);
width = 700;
}
);
unicode = 00D6;
},
{
glyphname = Udieresis;
layers = (
{
layerId = "EC1CA293-A2FE-4C5B-B0FE-1EC2B6DFF2A6";
paths = (
{
closed = 1;
nodes = (
"640 785 LINE",
"556 785 LINE",
"556 267 LINE SMOOTH",
"556 148 OFFCURVE",
"481 70 OFFCURVE",
"366 70 CURVE SMOOTH",
"251 70 OFFCURVE",
"177 148 OFFCURVE",
"177 267 CURVE SMOOTH",
"177 785 LINE",
"93 785 LINE",
"93 260 LINE SMOOTH",
"93 104 OFFCURVE",
"207 -5 OFFCURVE",
"366 -5 CURVE SMOOTH",
"524 -5 OFFCURVE",
"640 104 OFFCURVE",
"640 260 CURVE SMOOTH"
);
},
{
closed = 1;
nodes = (
"522 810 LINE",
"522 908 LINE",
"443 908 LINE",
"443 810 LINE"
);
},
{
closed = 1;
nodes = (
"289 810 LINE",
"289 908 LINE",
"210 908 LINE",
"210 810 LINE"
);
}
);
width = 733;
}
);
unicode = 00DC;
},
{
glyphname = aacute;
layers = (
{
layerId = "EC1CA293-A2FE-4C5B-B0FE-1EC2B6DFF2A6";
paths = (
{
closed = 1;
nodes = (
"481 1 LINE",
"481 369 LINE SMOOTH",
"481 488 OFFCURVE",
"409 549 OFFCURVE",
"264 549 CURVE SMOOTH",
"176 549 OFFCURVE",
"121 532 OFFCURVE",
"72 469 CURVE",
"126 419 LINE",
"158 466 OFFCURVE",
"192 481 OFFCURVE",
"263 481 CURVE SMOOTH",
"363 481 OFFCURVE",
"401 442 OFFCURVE",
"401 362 CURVE SMOOTH",
"401 311 LINE",
"238 311 LINE SMOOTH",
"117 311 OFFCURVE",
"51 250 OFFCURVE",
"51 154 CURVE SMOOTH",
"51 111 OFFCURVE",
"65 71 OFFCURVE",
"92 44 CURVE SMOOTH",
"127 9 OFFCURVE",
"169 -5 OFFCURVE",
"245 -5 CURVE SMOOTH",
"318 -5 OFFCURVE",
"357 9 OFFCURVE",
"401 53 CURVE",
"401 1 LINE"
);
},
{
closed = 1;
nodes = (
"401 193 LINE SMOOTH",
"401 148 OFFCURVE",
"392 116 OFFCURVE",
"374 99 CURVE SMOOTH",
"339 66 OFFCURVE",
"300 63 OFFCURVE",
"253 63 CURVE SMOOTH",
"166 63 OFFCURVE",
"128 92 OFFCURVE",
"128 155 CURVE SMOOTH",
"128 219 OFFCURVE",
"168 251 OFFCURVE",
"249 251 CURVE SMOOTH",
"401 251 LINE"
);
},
{
closed = 1;
nodes = (
"406 781 LINE",
"311 781 LINE",
"214 612 LINE",
"287 612 LINE"
);
}
);
width = 546;
}
);
unicode = 00E1;
},
{
glyphname = agrave;
layers = (
{
layerId = "EC1CA293-A2FE-4C5B-B0FE-1EC2B6DFF2A6";
paths = (
{
closed = 1;
nodes = (
"481 1 LINE",
"481 369 LINE SMOOTH",
"481 488 OFFCURVE",
"409 549 OFFCURVE",
"264 549 CURVE SMOOTH",
"176 549 OFFCURVE",
"121 532 OFFCURVE",
"72 469 CURVE",
"126 419 LINE",
"158 466 OFFCURVE",
"192 481 OFFCURVE",
"263 481 CURVE SMOOTH",
"363 481 OFFCURVE",
"401 442 OFFCURVE",
"401 362 CURVE SMOOTH",
"401 311 LINE",
"238 311 LINE SMOOTH",
"117 311 OFFCURVE",
"51 250 OFFCURVE",
"51 154 CURVE SMOOTH",
"51 111 OFFCURVE",
"65 71 OFFCURVE",
"92 44 CURVE SMOOTH",
"127 9 OFFCURVE",
"169 -5 OFFCURVE",
"245 -5 CURVE SMOOTH",
"318 -5 OFFCURVE",
"357 9 OFFCURVE",
"401 53 CURVE",
"401 1 LINE"
);
},
{
closed = 1;
nodes = (
"401 193 LINE SMOOTH",
"401 148 OFFCURVE",
"392 116 OFFCURVE",
"374 99 CURVE SMOOTH",
"339 66 OFFCURVE",
"300 63 OFFCURVE",
"253 63 CURVE SMOOTH",
"166 63 OFFCURVE",
"128 92 OFFCURVE",
"128 155 CURVE SMOOTH",
"128 219 OFFCURVE",
"168 251 OFFCURVE",
"249 251 CURVE SMOOTH",
"401 251 LINE"
);
},
{
closed = 1;
nodes = (
"330 612 LINE",
"233 781 LINE",
"138 781 LINE",
"257 612 LINE"
);
}
);
width = 546;
}
);
unicode = 00E0;
},
{
glyphname = acircumflex;
layers = (
{
layerId = "EC1CA293-A2FE-4C5B-B0FE-1EC2B6DFF2A6";
paths = (
{
closed = 1;
nodes = (
"481 1 LINE",
"481 369 LINE SMOOTH",
"481 488 OFFCURVE",
"409 549 OFFCURVE",
"264 549 CURVE SMOOTH",
"176 549 OFFCURVE",
"121 532 OFFCURVE",
"72 469 CURVE",
"126 419 LINE",
"158 466 OFFCURVE",
"192 481 OFFCURVE",
"263 481 CURVE SMOOTH",
"363 481 OFFCURVE",
"401 442 OFFCURVE",
"401 362 CURVE SMOOTH",
"401 311 LINE",
"238 311 LINE SMOOTH",
"117 311 OFFCURVE",
"51 250 OFFCURVE",
"51 154 CURVE SMOOTH",
"51 111 OFFCURVE",
"65 71 OFFCURVE",
"92 44 CURVE SMOOTH",
"127 9 OFFCURVE",
"169 -5 OFFCURVE",
"245 -5 CURVE SMOOTH",
"318 -5 OFFCURVE",
"357 9 OFFCURVE",
"401 53 CURVE",
"401 1 LINE"
);
},
{
closed = 1;
nodes = (
"401 193 LINE SMOOTH",
"401 148 OFFCURVE",
"392 116 OFFCURVE",
"374 99 CURVE SMOOTH",
"339 66 OFFCURVE",
"300 63 OFFCURVE",
"253 63 CURVE SMOOTH",
"166 63 OFFCURVE",
"128 92 OFFCURVE",
"128 155 CURVE SMOOTH",
"128 219 OFFCURVE",
"168 251 OFFCURVE",
"249 251 CURVE SMOOTH",
"401 251 LINE"
);
},
{
closed = 1;
nodes = (
"447 612 LINE",
"309 781 LINE",
"235 781 LINE",
"97 612 LINE",
"173 612 LINE",
"272 727 LINE",
"371 612 LINE"
);
}
);
width = 546;
}
);
unicode = 00E2;
},
{
glyphname = adieresis;
layers = (
{
layerId = "EC1CA293-A2FE-4C5B-B0FE-1EC2B6DFF2A6";
paths = (
{
closed = 1;
nodes = (
"481 1 LINE",
"481 369 LINE SMOOTH",
"481 488 OFFCURVE",
"409 549 OFFCURVE",
"264 549 CURVE SMOOTH",
"176 549 OFFCURVE",
"121 532 OFFCURVE",
"72 469 CURVE",
"126 419 LINE",
"158 466 OFFCURVE",
"192 481 OFFCURVE",
"263 481 CURVE SMOOTH",
"363 481 OFFCURVE",
"401 442 OFFCURVE",
"401 362 CURVE SMOOTH",
"401 311 LINE",
"238 311 LINE SMOOTH",
"117 311 OFFCURVE",
"51 250 OFFCURVE",
"51 154 CURVE SMOOTH",
"51 111 OFFCURVE",
"65 71 OFFCURVE",
"92 44 CURVE SMOOTH",
"127 9 OFFCURVE",
"169 -5 OFFCURVE",
"245 -5 CURVE SMOOTH",
"318 -5 OFFCURVE",
"357 9 OFFCURVE",
"401 53 CURVE",
"401 1 LINE"
);
},
{
closed = 1;
nodes = (
"401 193 LINE SMOOTH",
"401 148 OFFCURVE",
"392 116 OFFCURVE",
"374 99 CURVE SMOOTH",
"339 66 OFFCURVE",
"300 63 OFFCURVE",
"253 63 CURVE SMOOTH",
"166 63 OFFCURVE",
"128 92 OFFCURVE",
"128 155 CURVE SMOOTH",
"128 219 OFFCURVE",
"168 251 OFFCURVE",
"249 251 CURVE SMOOTH",
"401 251 LINE"
);
},
{
closed = 1;
nodes = (
"428 623 LINE",
"428 721 LINE",
"349 721 LINE",
"349 623 LINE"
);
},
{
closed = 1;
nodes = (
"195 623 LINE",
"195 721 LINE",
"116 721 LINE",
"116 623 LINE"
);
}
);
width = 546;
}
);
unicode = 00E4;
},
{
glyphname = atilde;
layers = (
{
layerId = "EC1CA293-A2FE-4C5B-B0FE-1EC2B6DFF2A6";
paths = (
{
closed = 1;
nodes = (
"481 1 LINE",
"481 369 LINE SMOOTH",
"481 488 OFFCURVE",
"409 549 OFFCURVE",
"264 549 CURVE SMOOTH",
"176 549 OFFCURVE",
"121 532 OFFCURVE",
"72 469 CURVE",
"126 419 LINE",
"158 466 OFFCURVE",
"192 481 OFFCURVE",
"263 481 CURVE SMOOTH",
"363 481 OFFCURVE",
"401 442 OFFCURVE",
"401 362 CURVE SMOOTH",
"401 311 LINE",
"238 311 LINE SMOOTH",
"117 311 OFFCURVE",
"51 250 OFFCURVE",
"51 154 CURVE SMOOTH",
"51 111 OFFCURVE",
"65 71 OFFCURVE",
"92 44 CURVE SMOOTH",
"127 9 OFFCURVE",
"169 -5 OFFCURVE",
"245 -5 CURVE SMOOTH",
"318 -5 OFFCURVE",
"357 9 OFFCURVE",
"401 53 CURVE",
"401 1 LINE"
);
},
{
closed = 1;
nodes = (
"401 193 LINE SMOOTH",
"401 148 OFFCURVE",
"392 116 OFFCURVE",
"374 99 CURVE SMOOTH",
"339 66 OFFCURVE",
"300 63 OFFCURVE",
"253 63 CURVE SMOOTH",
"166 63 OFFCURVE",
"128 92 OFFCURVE",
"128 155 CURVE SMOOTH",
"128 219 OFFCURVE",
"168 251 OFFCURVE",
"249 251 CURVE SMOOTH",
"401 251 LINE"
);
},
{
closed = 1;
nodes = (
"404 725 LINE",
"372 693 OFFCURVE",
"356 690 OFFCURVE",
"339 690 CURVE SMOOTH",
"316 690 OFFCURVE",
"301 697 OFFCURVE",
"278 712 CURVE",
"250 728 OFFCURVE",
"231 738 OFFCURVE",
"200 738 CURVE SMOOTH",
"172 738 OFFCURVE",
"144 731 OFFCURVE",
"95 682 CURVE",
"136 642 LINE",
"169 675 OFFCURVE",
"182 677 OFFCURVE",
"201 677 CURVE SMOOTH",
"224 677 OFFCURVE",
"241 666 OFFCURVE",
"262 654 CURVE SMOOTH",
"289 639 OFFCURVE",
"309 629 OFFCURVE",
"340 629 CURVE SMOOTH",
"367 629 OFFCURVE",
"394 637 OFFCURVE",
"445 685 CURVE"
);
}
);
width = 546;
}
);
unicode = 00E3;
},
{
glyphname = aring;
layers = (
{
layerId = "EC1CA293-A2FE-4C5B-B0FE-1EC2B6DFF2A6";
paths = (
{
closed = 1;
nodes = (
"481 1 LINE",
"481 369 LINE SMOOTH",
"481 488 OFFCURVE",
"409 549 OFFCURVE",
"264 549 CURVE SMOOTH",
"176 549 OFFCURVE",
"121 532 OFFCURVE",
"72 469 CURVE",
"126 419 LINE",
"158 466 OFFCURVE",
"192 481 OFFCURVE",
"263 481 CURVE SMOOTH",
"363 481 OFFCURVE",
"401 442 OFFCURVE",
"401 362 CURVE SMOOTH",
"401 311 LINE",
"238 311 LINE SMOOTH",
"117 311 OFFCURVE",
"51 250 OFFCURVE",
"51 154 CURVE SMOOTH",
"51 111 OFFCURVE",
"65 71 OFFCURVE",
"92 44 CURVE SMOOTH",
"127 9 OFFCURVE",
"169 -5 OFFCURVE",
"245 -5 CURVE SMOOTH",
"318 -5 OFFCURVE",
"357 9 OFFCURVE",
"401 53 CURVE",
"401 1 LINE"
);
},
{
closed = 1;
nodes = (
"401 193 LINE SMOOTH",
"401 148 OFFCURVE",
"392 116 OFFCURVE",
"374 99 CURVE SMOOTH",
"339 66 OFFCURVE",
"300 63 OFFCURVE",
"253 63 CURVE SMOOTH",
"166 63 OFFCURVE",
"128 92 OFFCURVE",
"128 155 CURVE SMOOTH",
"128 219 OFFCURVE",
"168 251 OFFCURVE",
"249 251 CURVE SMOOTH",
"401 251 LINE"
);
},
{
closed = 1;
nodes = (
"402 786 OFFCURVE",
"344 843 OFFCURVE",
"272 843 CURVE SMOOTH",
"200 843 OFFCURVE",
"142 785 OFFCURVE",
"142 713 CURVE SMOOTH",
"142 641 OFFCURVE",
"200 582 OFFCURVE",
"272 582 CURVE SMOOTH",
"344 582 OFFCURVE",
"402 641 OFFCURVE",
"402 713 CURVE SMOOTH"
);
},
{
closed = 1;
nodes = (
"348 670 OFFCURVE",
"315 637 OFFCURVE",
"272 637 CURVE SMOOTH",
"229 637 OFFCURVE",
"196 670 OFFCURVE",
"196 713 CURVE SMOOTH",
"196 756 OFFCURVE",
"229 788 OFFCURVE",
"272 788 CURVE SMOOTH",
"315 788 OFFCURVE",
"348 756 OFFCURVE",
"348 713 CURVE SMOOTH"
);
}
);
width = 546;
}
);
unicode = 00E5;
},
{
glyphname = ccedilla;
layers = (
{
layerId = "EC1CA293-A2FE-4C5B-B0FE-1EC2B6DFF2A6";
paths = (
{
closed = 1;
nodes = (
"427 127 LINE",
"386 82 OFFCURVE",
"355 65 OFFCURVE",
"303 65 CURVE SMOOTH",
"248 65 OFFCURVE",
"206 86 OFFCURVE",
"177 127 CURVE SMOOTH",
"152 162 OFFCURVE",
"142 204 OFFCURVE",
"142 272 CURVE SMOOTH",
"142 340 OFFCURVE",
"152 382 OFFCURVE",
"177 417 CURVE SMOOTH",
"206 458 OFFCURVE",
"248 479 OFFCURVE",
"303 479 CURVE SMOOTH",
"355 479 OFFCURVE",
"386 463 OFFCURVE",
"427 418 CURVE",
"481 469 LINE",
"425 529 OFFCURVE",
"378 549 OFFCURVE",
"303 549 CURVE SMOOTH",
"166 549 OFFCURVE",
"63 456 OFFCURVE",
"63 272 CURVE SMOOTH",
"63 88 OFFCURVE",
"166 -5 OFFCURVE",
"303 -5 CURVE SMOOTH",
"378 -5 OFFCURVE",
"425 15 OFFCURVE",
"481 75 CURVE"
);
},
{
closed = 1;
nodes = (
"339 -33 LINE",
"265 -33 LINE",
"187 -197 LINE",
"274 -197 LINE"
);
}
);
width = 528;
}
);
unicode = 00E7;
},
{
glyphname = eacute;
layers = (
{
layerId = "EC1CA293-A2FE-4C5B-B0FE-1EC2B6DFF2A6";
paths = (
{
closed = 1;
nodes = (
"507 251 LINE",
"507 287 LINE SMOOTH",
"507 447 OFFCURVE",
"425 549 OFFCURVE",
"285 549 CURVE SMOOTH",
"146 549 OFFCURVE",
"63 448 OFFCURVE",
"63 272 CURVE SMOOTH",
"63 81 OFFCURVE",
"156 -5 OFFCURVE",
"299 -5 CURVE SMOOTH",
"392 -5 OFFCURVE",
"441 22 OFFCURVE",
"497 78 CURVE",
"443 126 LINE",
"400 83 OFFCURVE",
"365 64 OFFCURVE",
"302 64 CURVE SMOOTH",
"198 64 OFFCURVE",
"142 131 OFFCURVE",
"142 251 CURVE"
);
},
{
closed = 1;
nodes = (
"142 311 LINE",
"145 353 OFFCURVE",
"145 372 OFFCURVE",
"158 401 CURVE SMOOTH",
"179 450 OFFCURVE",
"228 482 OFFCURVE",
"285 482 CURVE SMOOTH",
"342 482 OFFCURVE",
"391 450 OFFCURVE",
"412 401 CURVE",
"423 371 OFFCURVE",
"425 354 OFFCURVE",
"428 311 CURVE"
);
},
{
closed = 1;
nodes = (
"422 781 LINE",
"327 781 LINE",
"230 612 LINE",
"303 612 LINE"
);
}
);
width = 570;
}
);
unicode = 00E9;
},
{
glyphname = egrave;
layers = (
{
layerId = "EC1CA293-A2FE-4C5B-B0FE-1EC2B6DFF2A6";
paths = (
{
closed = 1;
nodes = (
"507 251 LINE",
"507 287 LINE SMOOTH",
"507 447 OFFCURVE",
"425 549 OFFCURVE",
"285 549 CURVE SMOOTH",
"146 549 OFFCURVE",
"63 448 OFFCURVE",
"63 272 CURVE SMOOTH",
"63 81 OFFCURVE",
"156 -5 OFFCURVE",
"299 -5 CURVE SMOOTH",
"392 -5 OFFCURVE",
"441 22 OFFCURVE",
"497 78 CURVE",
"443 126 LINE",
"400 83 OFFCURVE",
"365 64 OFFCURVE",
"302 64 CURVE SMOOTH",
"198 64 OFFCURVE",
"142 131 OFFCURVE",
"142 251 CURVE"
);
},
{
closed = 1;
nodes = (
"142 311 LINE",
"145 353 OFFCURVE",
"145 372 OFFCURVE",
"158 401 CURVE SMOOTH",
"179 450 OFFCURVE",
"228 482 OFFCURVE",
"285 482 CURVE SMOOTH",
"342 482 OFFCURVE",
"391 450 OFFCURVE",
"412 401 CURVE",
"423 371 OFFCURVE",
"425 354 OFFCURVE",
"428 311 CURVE"
);
},
{
closed = 1;
nodes = (
"346 612 LINE",
"249 781 LINE",
"154 781 LINE",
"273 612 LINE"
);
}
);
width = 570;
}
);
unicode = 00E8;
},
{
glyphname = ecircumflex;
layers = (
{
layerId = "EC1CA293-A2FE-4C5B-B0FE-1EC2B6DFF2A6";
paths = (
{
closed = 1;
nodes = (
"507 251 LINE",
"507 287 LINE SMOOTH",
"507 447 OFFCURVE",
"425 549 OFFCURVE",
"285 549 CURVE SMOOTH",
"146 549 OFFCURVE",
"63 448 OFFCURVE",
"63 272 CURVE SMOOTH",
"63 81 OFFCURVE",
"156 -5 OFFCURVE",
"299 -5 CURVE SMOOTH",
"392 -5 OFFCURVE",
"441 22 OFFCURVE",
"497 78 CURVE",
"443 126 LINE",
"400 83 OFFCURVE",
"365 64 OFFCURVE",
"302 64 CURVE SMOOTH",
"198 64 OFFCURVE",
"142 131 OFFCURVE",
"142 251 CURVE"
);
},
{
closed = 1;
nodes = (
"142 311 LINE",
"145 353 OFFCURVE",
"145 372 OFFCURVE",
"158 401 CURVE SMOOTH",
"179 450 OFFCURVE",
"228 482 OFFCURVE",
"285 482 CURVE SMOOTH",
"342 482 OFFCURVE",
"391 450 OFFCURVE",
"412 401 CURVE",
"423 371 OFFCURVE",
"425 354 OFFCURVE",
"428 311 CURVE"
);
},
{
closed = 1;
nodes = (
"463 612 LINE",
"325 781 LINE",
"251 781 LINE",
"113 612 LINE",
"189 612 LINE",
"288 727 LINE",
"387 612 LINE"
);
}
);
width = 570;
}
);
unicode = 00EA;
},
{
glyphname = edieresis;
layers = (
{
layerId = "EC1CA293-A2FE-4C5B-B0FE-1EC2B6DFF2A6";
paths = (
{
closed = 1;
nodes = (
"507 251 LINE",
"507 287 LINE SMOOTH",
"507 447 OFFCURVE",
"425 549 OFFCURVE",
"285 549 CURVE SMOOTH",
"146 549 OFFCURVE",
"63 448 OFFCURVE",
"63 272 CURVE SMOOTH",
"63 81 OFFCURVE",
"156 -5 OFFCURVE",
"299 -5 CURVE SMOOTH",
"392 -5 OFFCURVE",
"441 22 OFFCURVE",
"497 78 CURVE",
"443 126 LINE",
"400 83 OFFCURVE",
"365 64 OFFCURVE",
"302 64 CURVE SMOOTH",
"198 64 OFFCURVE",
"142 131 OFFCURVE",
"142 251 CURVE"
);
},
{
closed = 1;
nodes = (
"142 311 LINE",
"145 353 OFFCURVE",
"145 372 OFFCURVE",
"158 401 CURVE SMOOTH",
"179 450 OFFCURVE",
"228 482 OFFCURVE",
"285 482 CURVE SMOOTH",
"342 482 OFFCURVE",
"391 450 OFFCURVE",
"412 401 CURVE",
"423 371 OFFCURVE",
"425 354 OFFCURVE",
"428 311 CURVE"
);
},
{
closed = 1;
nodes = (
"444 623 LINE",
"444 721 LINE",
"365 721 LINE",
"365 623 LINE"
);
},
{
closed = 1;
nodes = (
"211 623 LINE",
"211 721 LINE",
"132 721 LINE",
"132 623 LINE"
);
}
);
width = 570;
}
);
unicode = 00EB;
},
{
glyphname = iacute;
layers = (
{
layerId = "EC1CA293-A2FE-4C5B-B0FE-1EC2B6DFF2A6";
paths = (
{
closed = 1;
nodes = (
"166 1 LINE",
"166 543 LINE",
"86 543 LINE",
"86 1 LINE"
);
}
);
width = 253;
}
);
unicode = 00ED;
},
{
glyphname = igrave;
layers = (
{
layerId = "EC1CA293-A2FE-4C5B-B0FE-1EC2B6DFF2A6";
paths = (
{
closed = 1;
nodes = (
"166 1 LINE",
"166 543 LINE",
"86 543 LINE",
"86 1 LINE"
);
},
{
closed = 1;
nodes = (
"201 612 LINE",
"104 781 LINE",
"9 781 LINE",
"128 612 LINE"
);
}
);
width = 253;
}
);
unicode = 00EC;
},
{
glyphname = icircumflex;
layers = (
{
layerId = "EC1CA293-A2FE-4C5B-B0FE-1EC2B6DFF2A6";
paths = (
{
closed = 1;
nodes = (
"166 1 LINE",
"166 543 LINE",
"86 543 LINE",
"86 1 LINE"
);
},
{
closed = 1;
nodes = (
"301 612 LINE",
"163 781 LINE",
"89 781 LINE",
"-49 612 LINE",
"27 612 LINE",
"126 727 LINE",
"225 612 LINE"
);
}
);
width = 253;
}
);
unicode = 00EE;
},
{
glyphname = idieresis;
layers = (
{
layerId = "EC1CA293-A2FE-4C5B-B0FE-1EC2B6DFF2A6";
paths = (
{
closed = 1;
nodes = (
"166 1 LINE",
"166 543 LINE",
"86 543 LINE",
"86 1 LINE"
);
}
);
width = 252;
}
);
unicode = 00EF;
},
{
glyphname = ntilde;
layers = (
{
layerId = "EC1CA293-A2FE-4C5B-B0FE-1EC2B6DFF2A6";
paths = (
{
closed = 1;
nodes = (
"516 1 LINE",
"516 348 LINE SMOOTH",
"516 411 OFFCURVE",
"499 461 OFFCURVE",
"460 498 CURVE SMOOTH",
"426 532 OFFCURVE",
"380 549 OFFCURVE",
"322 549 CURVE SMOOTH",
"261 549 OFFCURVE",
"209 527 OFFCURVE",
"170 483 CURVE",
"170 542 LINE",
"91 542 LINE",
"91 1 LINE",
"170 1 LINE",
"170 334 LINE SMOOTH",
"170 430 OFFCURVE",
"223 479 OFFCURVE",
"304 479 CURVE SMOOTH",
"385 479 OFFCURVE",
"437 430 OFFCURVE",
"437 334 CURVE SMOOTH",
"437 1 LINE"
);
},
{
closed = 1;
nodes = (
"417 725 LINE",
"385 693 OFFCURVE",
"369 690 OFFCURVE",
"352 690 CURVE SMOOTH",
"329 690 OFFCURVE",
"314 697 OFFCURVE",
"291 712 CURVE",
"263 728 OFFCURVE",
"244 738 OFFCURVE",
"213 738 CURVE SMOOTH",
"185 738 OFFCURVE",
"157 731 OFFCURVE",
"108 682 CURVE",
"149 642 LINE",
"182 675 OFFCURVE",
"195 677 OFFCURVE",
"214 677 CURVE SMOOTH",
"237 677 OFFCURVE",
"254 666 OFFCURVE",
"275 654 CURVE SMOOTH",
"302 639 OFFCURVE",
"322 629 OFFCURVE",
"353 629 CURVE SMOOTH",
"380 629 OFFCURVE",
"407 637 OFFCURVE",
"458 685 CURVE"
);
}
);
width = 602;
}
);
unicode = 00F1;
},
{
glyphname = oacute;
layers = (
{
layerId = "EC1CA293-A2FE-4C5B-B0FE-1EC2B6DFF2A6";
paths = (
{
closed = 1;
nodes = (
"506 356 OFFCURVE",
"495 432 OFFCURVE",
"440 488 CURVE SMOOTH",
"403 525 OFFCURVE",
"352 549 OFFCURVE",
"285 549 CURVE SMOOTH",
"218 549 OFFCURVE",
"167 525 OFFCURVE",
"130 488 CURVE SMOOTH",
"75 432 OFFCURVE",
"64 356 OFFCURVE",
"64 272 CURVE SMOOTH",
"64 188 OFFCURVE",
"75 112 OFFCURVE",
"130 56 CURVE SMOOTH",
"167 19 OFFCURVE",
"218 -5 OFFCURVE",
"285 -5 CURVE SMOOTH",
"352 -5 OFFCURVE",
"403 19 OFFCURVE",
"440 56 CURVE SMOOTH",
"495 112 OFFCURVE",
"506 188 OFFCURVE",
"506 272 CURVE SMOOTH"
);
},
{
closed = 1;
nodes = (
"427 210 OFFCURVE",
"424 145 OFFCURVE",
"384 105 CURVE",
"359 78 OFFCURVE",
"326 65 OFFCURVE",
"285 65 CURVE SMOOTH",
"245 65 OFFCURVE",
"212 78 OFFCURVE",
"187 105 CURVE",
"147 145 OFFCURVE",
"143 209 OFFCURVE",
"143 272 CURVE SMOOTH",
"143 335 OFFCURVE",
"147 399 OFFCURVE",
"187 439 CURVE",
"212 466 OFFCURVE",
"245 479 OFFCURVE",
"285 479 CURVE SMOOTH",
"326 479 OFFCURVE",
"359 466 OFFCURVE",
"384 439 CURVE",
"424 399 OFFCURVE",
"427 334 OFFCURVE",
"427 272 CURVE SMOOTH"
);
},
{
closed = 1;
nodes = (
"399 781 LINE",
"304 781 LINE",
"207 612 LINE",
"280 612 LINE"
);
}
);
width = 570;
}
);
unicode = 00F3;
},
{
glyphname = ograve;
layers = (
{
layerId = "EC1CA293-A2FE-4C5B-B0FE-1EC2B6DFF2A6";
paths = (
{
closed = 1;
nodes = (
"506 356 OFFCURVE",
"495 432 OFFCURVE",
"440 488 CURVE SMOOTH",
"403 525 OFFCURVE",
"352 549 OFFCURVE",
"285 549 CURVE SMOOTH",
"218 549 OFFCURVE",
"167 525 OFFCURVE",
"130 488 CURVE SMOOTH",
"75 432 OFFCURVE",
"64 356 OFFCURVE",
"64 272 CURVE SMOOTH",
"64 188 OFFCURVE",
"75 112 OFFCURVE",
"130 56 CURVE SMOOTH",
"167 19 OFFCURVE",
"218 -5 OFFCURVE",
"285 -5 CURVE SMOOTH",
"352 -5 OFFCURVE",
"403 19 OFFCURVE",
"440 56 CURVE SMOOTH",
"495 112 OFFCURVE",
"506 188 OFFCURVE",
"506 272 CURVE SMOOTH"
);
},
{
closed = 1;
nodes = (
"427 210 OFFCURVE",
"424 145 OFFCURVE",
"384 105 CURVE",
"359 78 OFFCURVE",
"326 65 OFFCURVE",
"285 65 CURVE SMOOTH",
"245 65 OFFCURVE",
"212 78 OFFCURVE",
"187 105 CURVE",
"147 145 OFFCURVE",
"143 209 OFFCURVE",
"143 272 CURVE SMOOTH",
"143 335 OFFCURVE",
"147 399 OFFCURVE",
"187 439 CURVE",
"212 466 OFFCURVE",
"245 479 OFFCURVE",
"285 479 CURVE SMOOTH",
"326 479 OFFCURVE",
"359 466 OFFCURVE",
"384 439 CURVE",
"424 399 OFFCURVE",
"427 334 OFFCURVE",
"427 272 CURVE SMOOTH"
);
},
{
closed = 1;
nodes = (
"314 612 LINE",
"217 781 LINE",
"122 781 LINE",
"241 612 LINE"
);
}
);
width = 570;
}
);
unicode = 00F2;
},
{
glyphname = ocircumflex;
layers = (
{
layerId = "EC1CA293-A2FE-4C5B-B0FE-1EC2B6DFF2A6";
paths = (
{
closed = 1;
nodes = (
"506 356 OFFCURVE",
"495 432 OFFCURVE",
"440 488 CURVE SMOOTH",
"403 525 OFFCURVE",
"352 549 OFFCURVE",
"285 549 CURVE SMOOTH",
"218 549 OFFCURVE",
"167 525 OFFCURVE",
"130 488 CURVE SMOOTH",
"75 432 OFFCURVE",
"64 356 OFFCURVE",
"64 272 CURVE SMOOTH",
"64 188 OFFCURVE",
"75 112 OFFCURVE",
"130 56 CURVE SMOOTH",
"167 19 OFFCURVE",
"218 -5 OFFCURVE",
"285 -5 CURVE SMOOTH",
"352 -5 OFFCURVE",
"403 19 OFFCURVE",
"440 56 CURVE SMOOTH",
"495 112 OFFCURVE",
"506 188 OFFCURVE",
"506 272 CURVE SMOOTH"
);
},
{
closed = 1;
nodes = (
"427 210 OFFCURVE",
"424 145 OFFCURVE",
"384 105 CURVE",
"359 78 OFFCURVE",
"326 65 OFFCURVE",
"285 65 CURVE SMOOTH",
"245 65 OFFCURVE",
"212 78 OFFCURVE",
"187 105 CURVE",
"147 145 OFFCURVE",
"143 209 OFFCURVE",
"143 272 CURVE SMOOTH",
"143 335 OFFCURVE",
"147 399 OFFCURVE",
"187 439 CURVE",
"212 466 OFFCURVE",
"245 479 OFFCURVE",
"285 479 CURVE SMOOTH",
"326 479 OFFCURVE",
"359 466 OFFCURVE",
"384 439 CURVE",
"424 399 OFFCURVE",
"427 334 OFFCURVE",
"427 272 CURVE SMOOTH"
);
},
{
closed = 1;
nodes = (
"441 612 LINE",
"303 781 LINE",
"229 781 LINE",
"91 612 LINE",
"167 612 LINE",
"266 727 LINE",
"365 612 LINE"
);
}
);
width = 570;
}
);
unicode = 00F4;
},
{
glyphname = odieresis;
layers = (
{
layerId = "EC1CA293-A2FE-4C5B-B0FE-1EC2B6DFF2A6";
paths = (
{
closed = 1;
nodes = (
"506 356 OFFCURVE",
"495 432 OFFCURVE",
"440 488 CURVE SMOOTH",
"403 525 OFFCURVE",
"352 549 OFFCURVE",
"285 549 CURVE SMOOTH",
"218 549 OFFCURVE",
"167 525 OFFCURVE",
"130 488 CURVE SMOOTH",
"75 432 OFFCURVE",
"64 356 OFFCURVE",
"64 272 CURVE SMOOTH",
"64 188 OFFCURVE",
"75 112 OFFCURVE",
"130 56 CURVE SMOOTH",
"167 19 OFFCURVE",
"218 -5 OFFCURVE",
"285 -5 CURVE SMOOTH",
"352 -5 OFFCURVE",
"403 19 OFFCURVE",
"440 56 CURVE SMOOTH",
"495 112 OFFCURVE",
"506 188 OFFCURVE",
"506 272 CURVE SMOOTH"
);
},
{
closed = 1;
nodes = (
"427 210 OFFCURVE",
"424 145 OFFCURVE",
"384 105 CURVE",
"359 78 OFFCURVE",
"326 65 OFFCURVE",
"285 65 CURVE SMOOTH",
"245 65 OFFCURVE",
"212 78 OFFCURVE",
"187 105 CURVE",
"147 145 OFFCURVE",
"143 209 OFFCURVE",
"143 272 CURVE SMOOTH",
"143 335 OFFCURVE",
"147 399 OFFCURVE",
"187 439 CURVE",
"212 466 OFFCURVE",
"245 479 OFFCURVE",
"285 479 CURVE SMOOTH",
"326 479 OFFCURVE",
"359 466 OFFCURVE",
"384 439 CURVE",
"424 399 OFFCURVE",
"427 334 OFFCURVE",
"427 272 CURVE SMOOTH"
);
},
{
closed = 1;
nodes = (
"421 623 LINE",
"421 721 LINE",
"342 721 LINE",
"342 623 LINE"
);
},
{
closed = 1;
nodes = (
"188 623 LINE",
"188 721 LINE",
"109 721 LINE",
"109 623 LINE"
);
}
);
width = 570;
}
);
unicode = 00F6;
},
{
glyphname = otilde;
layers = (
{
layerId = "EC1CA293-A2FE-4C5B-B0FE-1EC2B6DFF2A6";
paths = (
{
closed = 1;
nodes = (
"506 356 OFFCURVE",
"495 432 OFFCURVE",
"440 488 CURVE SMOOTH",
"403 525 OFFCURVE",
"352 549 OFFCURVE",
"285 549 CURVE SMOOTH",
"218 549 OFFCURVE",
"167 525 OFFCURVE",
"130 488 CURVE SMOOTH",
"75 432 OFFCURVE",
"64 356 OFFCURVE",
"64 272 CURVE SMOOTH",
"64 188 OFFCURVE",
"75 112 OFFCURVE",
"130 56 CURVE SMOOTH",
"167 19 OFFCURVE",
"218 -5 OFFCURVE",
"285 -5 CURVE SMOOTH",
"352 -5 OFFCURVE",
"403 19 OFFCURVE",
"440 56 CURVE SMOOTH",
"495 112 OFFCURVE",
"506 188 OFFCURVE",
"506 272 CURVE SMOOTH"
);
},
{
closed = 1;
nodes = (
"427 210 OFFCURVE",
"424 145 OFFCURVE",
"384 105 CURVE",
"359 78 OFFCURVE",
"326 65 OFFCURVE",
"285 65 CURVE SMOOTH",
"245 65 OFFCURVE",
"212 78 OFFCURVE",
"187 105 CURVE",
"147 145 OFFCURVE",
"143 209 OFFCURVE",
"143 272 CURVE SMOOTH",
"143 335 OFFCURVE",
"147 399 OFFCURVE",
"187 439 CURVE",
"212 466 OFFCURVE",
"245 479 OFFCURVE",
"285 479 CURVE SMOOTH",
"326 479 OFFCURVE",
"359 466 OFFCURVE",
"384 439 CURVE",
"424 399 OFFCURVE",
"427 334 OFFCURVE",
"427 272 CURVE SMOOTH"
);
},
{
closed = 1;
nodes = (
"398 725 LINE",
"366 693 OFFCURVE",
"350 690 OFFCURVE",
"333 690 CURVE SMOOTH",
"310 690 OFFCURVE",
"295 697 OFFCURVE",
"272 712 CURVE",
"244 728 OFFCURVE",
"225 738 OFFCURVE",
"194 738 CURVE SMOOTH",
"166 738 OFFCURVE",
"138 731 OFFCURVE",
"89 682 CURVE",
"130 642 LINE",
"163 675 OFFCURVE",
"176 677 OFFCURVE",
"195 677 CURVE SMOOTH",
"218 677 OFFCURVE",
"235 666 OFFCURVE",
"256 654 CURVE SMOOTH",
"283 639 OFFCURVE",
"303 629 OFFCURVE",
"334 629 CURVE SMOOTH",
"361 629 OFFCURVE",
"388 637 OFFCURVE",
"439 685 CURVE"
);
}
);
width = 570;
}
);
unicode = 00F5;
},
{
glyphname = uacute;
layers = (
{
layerId = "EC1CA293-A2FE-4C5B-B0FE-1EC2B6DFF2A6";
paths = (
{
closed = 1;
nodes = (
"511 2 LINE",
"511 543 LINE",
"432 543 LINE",
"432 210 LINE SMOOTH",
"432 114 OFFCURVE",
"378 65 OFFCURVE",
"297 65 CURVE SMOOTH",
"214 65 OFFCURVE",
"165 114 OFFCURVE",
"165 210 CURVE SMOOTH",
"165 543 LINE",
"86 543 LINE",
"86 197 LINE SMOOTH",
"86 134 OFFCURVE",
"102 83 OFFCURVE",
"141 46 CURVE SMOOTH",
"175 12 OFFCURVE",
"221 -5 OFFCURVE",
"280 -5 CURVE SMOOTH",
"341 -5 OFFCURVE",
"394 18 OFFCURVE",
"433 62 CURVE",
"433 2 LINE"
);
},
{
closed = 1;
nodes = (
"412 781 LINE",
"317 781 LINE",
"220 612 LINE",
"293 612 LINE"
);
}
);
width = 602;
}
);
unicode = 00FA;
},
{
glyphname = ugrave;
layers = (
{
layerId = "EC1CA293-A2FE-4C5B-B0FE-1EC2B6DFF2A6";
paths = (
{
closed = 1;
nodes = (
"511 2 LINE",
"511 543 LINE",
"432 543 LINE",
"432 210 LINE SMOOTH",
"432 114 OFFCURVE",
"378 65 OFFCURVE",
"297 65 CURVE SMOOTH",
"214 65 OFFCURVE",
"165 114 OFFCURVE",
"165 210 CURVE SMOOTH",
"165 543 LINE",
"86 543 LINE",
"86 197 LINE SMOOTH",
"86 134 OFFCURVE",
"102 83 OFFCURVE",
"141 46 CURVE SMOOTH",
"175 12 OFFCURVE",
"221 -5 OFFCURVE",
"280 -5 CURVE SMOOTH",
"341 -5 OFFCURVE",
"394 18 OFFCURVE",
"433 62 CURVE",
"433 2 LINE"
);
},
{
closed = 1;
nodes = (
"336 612 LINE",
"239 781 LINE",
"144 781 LINE",
"263 612 LINE"
);
}
);
width = 602;
}
);
unicode = 00F9;
},
{
glyphname = ucircumflex;
layers = (
{
layerId = "EC1CA293-A2FE-4C5B-B0FE-1EC2B6DFF2A6";
paths = (
{
closed = 1;
nodes = (
"511 2 LINE",
"511 543 LINE",
"432 543 LINE",
"432 210 LINE SMOOTH",
"432 114 OFFCURVE",
"378 65 OFFCURVE",
"297 65 CURVE SMOOTH",
"214 65 OFFCURVE",
"165 114 OFFCURVE",
"165 210 CURVE SMOOTH",
"165 543 LINE",
"86 543 LINE",
"86 197 LINE SMOOTH",
"86 134 OFFCURVE",
"102 83 OFFCURVE",
"141 46 CURVE SMOOTH",
"175 12 OFFCURVE",
"221 -5 OFFCURVE",
"280 -5 CURVE SMOOTH",
"341 -5 OFFCURVE",
"394 18 OFFCURVE",
"433 62 CURVE",
"433 2 LINE"
);
},
{
closed = 1;
nodes = (
"453 612 LINE",
"315 781 LINE",
"241 781 LINE",
"103 612 LINE",
"179 612 LINE",
"278 727 LINE",
"377 612 LINE"
);
}
);
width = 602;
}
);
unicode = 00FB;
},
{
glyphname = udieresis;
layers = (
{
layerId = "EC1CA293-A2FE-4C5B-B0FE-1EC2B6DFF2A6";
paths = (
{
closed = 1;
nodes = (
"511 2 LINE",
"511 543 LINE",
"432 543 LINE",
"432 210 LINE SMOOTH",
"432 114 OFFCURVE",
"378 65 OFFCURVE",
"297 65 CURVE SMOOTH",
"214 65 OFFCURVE",
"165 114 OFFCURVE",
"165 210 CURVE SMOOTH",
"165 543 LINE",
"86 543 LINE",
"86 197 LINE SMOOTH",
"86 134 OFFCURVE",
"102 83 OFFCURVE",
"141 46 CURVE SMOOTH",
"175 12 OFFCURVE",
"221 -5 OFFCURVE",
"280 -5 CURVE SMOOTH",
"341 -5 OFFCURVE",
"394 18 OFFCURVE",
"433 62 CURVE",
"433 2 LINE"
);
},
{
closed = 1;
nodes = (
"434 623 LINE",
"434 721 LINE",
"355 721 LINE",
"355 623 LINE"
);
},
{
closed = 1;
nodes = (
"201 623 LINE",
"201 721 LINE",
"122 721 LINE",
"122 623 LINE"
);
}
);
width = 602;
}
);
unicode = 00FC;
},
{
glyphname = dagger;
layers = (
{
layerId = "EC1CA293-A2FE-4C5B-B0FE-1EC2B6DFF2A6";
paths = (
{
closed = 1;
nodes = (
"554 454 LINE",
"554 524 LINE",
"340 524 LINE",
"340 748 LINE",
"261 748 LINE",
"261 524 LINE",
"51 524 LINE",
"51 454 LINE",
"261 454 LINE",
"261 -36 LINE",
"340 -36 LINE",
"340 454 LINE"
);
}
);
width = 605;
}
);
unicode = 2020;
},
{
glyphname = degree;
layers = (
{
layerId = "EC1CA293-A2FE-4C5B-B0FE-1EC2B6DFF2A6";
paths = (
{
closed = 1;
nodes = (
"429 657 OFFCURVE",
"349 737 OFFCURVE",
"249 737 CURVE SMOOTH",
"149 737 OFFCURVE",
"67 657 OFFCURVE",
"67 557 CURVE SMOOTH",
"67 457 OFFCURVE",
"149 377 OFFCURVE",
"249 377 CURVE SMOOTH",
"349 377 OFFCURVE",
"429 457 OFFCURVE",
"429 557 CURVE SMOOTH"
);
},
{
closed = 1;
nodes = (
"362 490 OFFCURVE",
"314 440 OFFCURVE",
"249 440 CURVE SMOOTH",
"184 440 OFFCURVE",
"135 490 OFFCURVE",
"135 557 CURVE SMOOTH",
"135 623 OFFCURVE",
"183 674 OFFCURVE",
"248 674 CURVE SMOOTH",
"313 674 OFFCURVE",
"362 623 OFFCURVE",
"362 557 CURVE SMOOTH"
);
}
);
width = 480;
}
);
unicode = 00B0;
},
{
glyphname = cent;
layers = (
{
layerId = "EC1CA293-A2FE-4C5B-B0FE-1EC2B6DFF2A6";
paths = (
{
closed = 1;
nodes = (
"432 223 LINE",
"396 182 OFFCURVE",
"366 166 OFFCURVE",
"322 162 CURVE",
"322 572 LINE",
"366 568 OFFCURVE",
"396 552 OFFCURVE",
"432 511 CURVE",
"486 562 LINE",
"435 617 OFFCURVE",
"392 639 OFFCURVE",
"327 643 CURVE",
"327 748 LINE",
"262 748 LINE",
"262 641 LINE",
"141 622 OFFCURVE",
"63 526 OFFCURVE",
"63 367 CURVE SMOOTH",
"63 208 OFFCURVE",
"141 112 OFFCURVE",
"262 93 CURVE",
"262 -36 LINE",
"327 -36 LINE",
"327 91 LINE",
"392 95 OFFCURVE",
"435 117 OFFCURVE",
"486 172 CURVE"
);
},
{
closed = 1;
nodes = (
"266 165 LINE",
"230 171 OFFCURVE",
"201 190 OFFCURVE",
"178 222 CURVE SMOOTH",
"153 257 OFFCURVE",
"142 299 OFFCURVE",
"142 367 CURVE SMOOTH",
"142 435 OFFCURVE",
"153 477 OFFCURVE",
"178 512 CURVE SMOOTH",
"201 544 OFFCURVE",
"230 563 OFFCURVE",
"266 569 CURVE"
);
}
);
width = 536;
}
);
unicode = 00A2;
},
{
glyphname = sterling;
layers = (
{
layerId = "EC1CA293-A2FE-4C5B-B0FE-1EC2B6DFF2A6";
paths = (
{
closed = 1;
nodes = (
"541 -36 LINE",
"541 39 LINE",
"201 39 LINE",
"201 327 LINE",
"362 327 LINE",
"362 387 LINE",
"201 387 LINE",
"201 499 LINE SMOOTH",
"201 615 OFFCURVE",
"259 679 OFFCURVE",
"362 679 CURVE SMOOTH",
"427 679 OFFCURVE",
"456 656 OFFCURVE",
"484 627 CURVE",
"541 684 LINE",
"493 732 OFFCURVE",
"438 754 OFFCURVE",
"362 754 CURVE SMOOTH",
"218 754 OFFCURVE",
"117 660 OFFCURVE",
"117 510 CURVE SMOOTH",
"117 387 LINE",
"47 387 LINE",
"47 327 LINE",
"117 327 LINE",
"117 -36 LINE"
);
}
);
width = 593;
}
);
unicode = 00A3;
},
{
glyphname = section;
layers = (
{
layerId = "EC1CA293-A2FE-4C5B-B0FE-1EC2B6DFF2A6";
paths = (
{
closed = 1;
nodes = (
"508 355 OFFCURVE",
"453 429 OFFCURVE",
"357 456 CURVE SMOOTH",
"272 480 LINE SMOOTH",
"216 496 OFFCURVE",
"179 527 OFFCURVE",
"179 586 CURVE SMOOTH",
"179 658 OFFCURVE",
"223 695 OFFCURVE",
"298 695 CURVE SMOOTH",
"369 695 OFFCURVE",
"414 665 OFFCURVE",
"419 593 CURVE",
"498 593 LINE",
"493 699 OFFCURVE",
"413 765 OFFCURVE",
"298 765 CURVE SMOOTH",
"182 765 OFFCURVE",
"100 692 OFFCURVE",
"100 585 CURVE SMOOTH",
"100 505 OFFCURVE",
"139 462 OFFCURVE",
"202 433 CURVE",
"142 403 OFFCURVE",
"87 343 OFFCURVE",
"87 253 CURVE SMOOTH",
"87 152 OFFCURVE",
"141 79 OFFCURVE",
"237 51 CURVE SMOOTH",
"323 27 LINE SMOOTH",
"386 8 OFFCURVE",
"420 -34 OFFCURVE",
"420 -85 CURVE SMOOTH",
"420 -160 OFFCURVE",
"374 -201 OFFCURVE",
"298 -201 CURVE SMOOTH",
"223 -201 OFFCURVE",
"177 -164 OFFCURVE",
"170 -96 CURVE",
"90 -96 LINE",
"98 -214 OFFCURVE",
"189 -273 OFFCURVE",
"298 -273 CURVE SMOOTH",
"411 -273 OFFCURVE",
"500 -199 OFFCURVE",
"500 -84 CURVE SMOOTH",
"500 -4 OFFCURVE",
"457 51 OFFCURVE",
"394 74 CURVE",
"453 103 OFFCURVE",
"508 164 OFFCURVE",
"508 255 CURVE SMOOTH"
);
},
{
closed = 1;
nodes = (
"428 206 OFFCURVE",
"416 177 OFFCURVE",
"393 152 CURVE SMOOTH",
"369 126 OFFCURVE",
"337 113 OFFCURVE",
"298 113 CURVE SMOOTH",
"259 113 OFFCURVE",
"227 126 OFFCURVE",
"203 152 CURVE SMOOTH",
"182 176 OFFCURVE",
"167 206 OFFCURVE",
"167 254 CURVE SMOOTH",
"167 299 OFFCURVE",
"178 327 OFFCURVE",
"203 355 CURVE SMOOTH",
"226 380 OFFCURVE",
"259 395 OFFCURVE",
"298 395 CURVE SMOOTH",
"337 395 OFFCURVE",
"366 380 OFFCURVE",
"393 355 CURVE",
"420 327 OFFCURVE",
"428 297 OFFCURVE",
"428 254 CURVE SMOOTH"
);
}
);
width = 595;
}
);
unicode = 00A7;
},
{
glyphname = bullet;
layers = (
{
layerId = "EC1CA293-A2FE-4C5B-B0FE-1EC2B6DFF2A6";
paths = (
{
closed = 1;
nodes = (
"312 342 OFFCURVE",
"267 387 OFFCURVE",
"208 387 CURVE SMOOTH",
"148 387 OFFCURVE",
"103 342 OFFCURVE",
"103 283 CURVE SMOOTH",
"103 224 OFFCURVE",
"149 178 OFFCURVE",
"208 178 CURVE SMOOTH",
"265 178 OFFCURVE",
"312 224 OFFCURVE",
"312 283 CURVE SMOOTH"
);
}
);
width = 415;
}
);
unicode = 2022;
},
{
glyphname = paragraph;
layers = (
{
layerId = "EC1CA293-A2FE-4C5B-B0FE-1EC2B6DFF2A6";
paths = (
{
closed = 1;
nodes = (
"546 -267 LINE",
"546 759 LINE",
"281 759 LINE SMOOTH",
"130 759 OFFCURVE",
"42 662 OFFCURVE",
"42 545 CURVE SMOOTH",
"42 437 OFFCURVE",
"127 334 OFFCURVE",
"259 334 CURVE",
"259 -267 LINE",
"338 -267 LINE",
"338 684 LINE",
"467 684 LINE",
"467 -267 LINE"
);
}
);
width = 649;
}
);
unicode = 00B6;
},
{
glyphname = germandbls;
layers = (
{
layerId = "EC1CA293-A2FE-4C5B-B0FE-1EC2B6DFF2A6";
paths = (
{
closed = 1;
nodes = (
"524 346 LINE SMOOTH",
"524 417 OFFCURVE",
"507 450 OFFCURVE",
"454 478 CURVE",
"498 507 OFFCURVE",
"524 549 OFFCURVE",
"524 609 CURVE SMOOTH",
"524 737 OFFCURVE",
"427 792 OFFCURVE",
"311 792 CURVE SMOOTH",
"175 792 OFFCURVE",
"90 716 OFFCURVE",
"90 577 CURVE SMOOTH",
"90 1 LINE",
"171 1 LINE",
"171 574 LINE SMOOTH",
"171 662 OFFCURVE",
"209 723 OFFCURVE",
"307 723 CURVE SMOOTH",
"354 723 OFFCURVE",
"388 712 OFFCURVE",
"410 691 CURVE SMOOTH",
"431 671 OFFCURVE",
"445 640 OFFCURVE",
"445 608 CURVE SMOOTH",
"445 547 OFFCURVE",
"405 508 OFFCURVE",
"348 508 CURVE SMOOTH",
"308 508 LINE",
"308 442 LINE",
"357 442 LINE SMOOTH",
"384 442 OFFCURVE",
"406 434 OFFCURVE",
"421 419 CURVE SMOOTH",
"438 403 OFFCURVE",
"445 383 OFFCURVE",
"445 351 CURVE SMOOTH",
"445 165 LINE SMOOTH",
"445 130 OFFCURVE",
"436 106 OFFCURVE",
"417 91 CURVE SMOOTH",
"398 76 OFFCURVE",
"384 69 OFFCURVE",
"352 69 CURVE SMOOTH",
"308 69 LINE",
"308 1 LINE",
"368 1 LINE SMOOTH",
"419 1 OFFCURVE",
"450 13 OFFCURVE",
"481 41 CURVE SMOOTH",
"508 66 OFFCURVE",
"524 107 OFFCURVE",
"524 156 CURVE SMOOTH"
);
}
);
width = 596;
}
);
unicode = 00DF;
},
{
glyphname = registered;
layers = (
{
layerId = "EC1CA293-A2FE-4C5B-B0FE-1EC2B6DFF2A6";
paths = (
{
closed = 1;
nodes = (
"874 575 OFFCURVE",
"695 754 OFFCURVE",
"476 754 CURVE SMOOTH",
"255 754 OFFCURVE",
"78 575 OFFCURVE",
"78 356 CURVE SMOOTH",
"78 135 OFFCURVE",
"255 -42 OFFCURVE",
"476 -42 CURVE SMOOTH",
"695 -42 OFFCURVE",
"874 135 OFFCURVE",
"874 356 CURVE SMOOTH"
);
},
{
closed = 1;
nodes = (
"812 169 OFFCURVE",
"661 16 OFFCURVE",
"476 16 CURVE SMOOTH",
"291 16 OFFCURVE",
"142 169 OFFCURVE",
"142 356 CURVE SMOOTH",
"142 543 OFFCURVE",
"291 696 OFFCURVE",
"476 696 CURVE SMOOTH",
"661 696 OFFCURVE",
"812 543 OFFCURVE",
"812 356 CURVE SMOOTH"
);
},
{
closed = 1;
nodes = (
"643 138 LINE",
"539 324 LINE",
"594 341 OFFCURVE",
"632 380 OFFCURVE",
"632 444 CURVE SMOOTH",
"632 519 OFFCURVE",
"571 575 OFFCURVE",
"495 575 CURVE SMOOTH",
"346 575 LINE",
"346 138 LINE",
"407 138 LINE",
"407 316 LINE",
"473 316 LINE",
"573 138 LINE"
);
},
{
closed = 1;
nodes = (
"571 400 OFFCURVE",
"537 368 OFFCURVE",
"488 368 CURVE SMOOTH",
"407 368 LINE",
"407 521 LINE",
"488 521 LINE SMOOTH",
"537 521 OFFCURVE",
"571 488 OFFCURVE",
"571 444 CURVE SMOOTH"
);
}
);
width = 952;
}
);
unicode = 00AE;
},
{
glyphname = copyright;
layers = (
{
layerId = "EC1CA293-A2FE-4C5B-B0FE-1EC2B6DFF2A6";
paths = (
{
closed = 1;
nodes = (
"874 575 OFFCURVE",
"695 754 OFFCURVE",
"476 754 CURVE SMOOTH",
"255 754 OFFCURVE",
"78 575 OFFCURVE",
"78 356 CURVE SMOOTH",
"78 135 OFFCURVE",
"255 -42 OFFCURVE",
"476 -42 CURVE SMOOTH",
"695 -42 OFFCURVE",
"874 135 OFFCURVE",
"874 356 CURVE SMOOTH"
);
},
{
closed = 1;
nodes = (
"810 170 OFFCURVE",
"661 17 OFFCURVE",
"476 17 CURVE SMOOTH",
"291 17 OFFCURVE",
"143 170 OFFCURVE",
"143 356 CURVE SMOOTH",
"143 542 OFFCURVE",
"291 695 OFFCURVE",
"476 695 CURVE SMOOTH",
"661 695 OFFCURVE",
"810 542 OFFCURVE",
"810 356 CURVE SMOOTH"
);
},
{
closed = 1;
nodes = (
"586 229 LINE",
"550 198 OFFCURVE",
"522 188 OFFCURVE",
"482 188 CURVE SMOOTH",
"381 188 OFFCURVE",
"347 264 OFFCURVE",
"347 356 CURVE SMOOTH",
"347 448 OFFCURVE",
"381 525 OFFCURVE",
"482 525 CURVE SMOOTH",
"522 525 OFFCURVE",
"550 514 OFFCURVE",
"586 483 CURVE",
"626 522 LINE",
"581 562 OFFCURVE",
"543 580 OFFCURVE",
"482 580 CURVE SMOOTH",
"354 580 OFFCURVE",
"286 484 OFFCURVE",
"286 356 CURVE SMOOTH",
"286 227 OFFCURVE",
"354 133 OFFCURVE",
"482 133 CURVE SMOOTH",
"543 133 OFFCURVE",
"583 151 OFFCURVE",
"626 190 CURVE"
);
}
);
width = 952;
}
);
unicode = 00A9;
},
{
glyphname = trademark;
layers = (
{
layerId = "EC1CA293-A2FE-4C5B-B0FE-1EC2B6DFF2A6";
paths = (
{
closed = 1;
nodes = (
"855 264 LINE",
"855 733 LINE",
"793 733 LINE",
"650 448 LINE",
"507 733 LINE",
"443 733 LINE",
"443 264 LINE",
"507 264 LINE",
"507 602 LINE",
"619 380 LINE",
"680 380 LINE",
"793 602 LINE",
"793 264 LINE"
);
},
{
closed = 1;
nodes = (
"360 675 LINE",
"360 733 LINE",
"36 733 LINE",
"36 675 LINE",
"165 675 LINE",
"165 264 LINE",
"229 264 LINE",
"229 675 LINE"
);
}
);
width = 913;
}
);
unicode = 2122;
},
{
glyphname = acute;
layers = (
{
layerId = "EC1CA293-A2FE-4C5B-B0FE-1EC2B6DFF2A6";
paths = (
{
closed = 1;
nodes = (
"393 781 LINE",
"298 781 LINE",
"201 612 LINE",
"274 612 LINE"
);
}
);
width = 518;
}
);
unicode = 00B4;
},
{
glyphname = dieresis;
layers = (
{
layerId = "EC1CA293-A2FE-4C5B-B0FE-1EC2B6DFF2A6";
paths = (
{
closed = 1;
nodes = (
"420 623 LINE",
"420 721 LINE",
"341 721 LINE",
"341 623 LINE"
);
},
{
closed = 1;
nodes = (
"187 623 LINE",
"187 721 LINE",
"108 721 LINE",
"108 623 LINE"
);
}
);
width = 528;
}
);
unicode = 00A8;
},
{
glyphname = AE;
layers = (
{
layerId = "EC1CA293-A2FE-4C5B-B0FE-1EC2B6DFF2A6";
paths = (
{
closed = 1;
nodes = (
"953 -10 LINE",
"953 65 LINE",
"550 65 LINE",
"550 346 LINE",
"894 346 LINE",
"894 421 LINE",
"550 421 LINE",
"550 699 LINE",
"953 699 LINE",
"953 774 LINE",
"422 774 LINE",
"8 -10 LINE",
"99 -10 LINE",
"196 176 LINE",
"468 176 LINE",
"468 -10 LINE"
);
},
{
closed = 1;
nodes = (
"468 249 LINE",
"232 249 LINE",
"468 699 LINE"
);
}
);
width = 1008;
}
);
unicode = 00C6;
},
{
glyphname = Oslash;
layers = (
{
layerId = "EC1CA293-A2FE-4C5B-B0FE-1EC2B6DFF2A6";
paths = (
{
closed = 1;
nodes = (
"624 548 OFFCURVE",
"624 625 OFFCURVE",
"550 699 CURVE SMOOTH",
"547 702 OFFCURVE",
"545 705 OFFCURVE",
"541 708 CURVE",
"596 822 LINE",
"525 822 LINE",
"488 746 LINE",
"447 769 OFFCURVE",
"401 780 OFFCURVE",
"350 780 CURVE SMOOTH",
"271 780 OFFCURVE",
"204 753 OFFCURVE",
"150 699 CURVE SMOOTH",
"76 625 OFFCURVE",
"76 548 OFFCURVE",
"76 382 CURVE SMOOTH",
"76 216 OFFCURVE",
"76 139 OFFCURVE",
"150 65 CURVE SMOOTH",
"159 56 LINE",
"104 -58 LINE",
"175 -58 LINE",
"211 19 LINE",
"252 -4 OFFCURVE",
"299 -16 OFFCURVE",
"350 -16 CURVE SMOOTH",
"429 -16 OFFCURVE",
"496 11 OFFCURVE",
"550 65 CURVE SMOOTH",
"624 139 OFFCURVE",
"624 216 OFFCURVE",
"624 382 CURVE SMOOTH"
);
},
{
closed = 1;
nodes = (
"539 218 OFFCURVE",
"535 165 OFFCURVE",
"485 115 CURVE SMOOTH",
"450 79 OFFCURVE",
"402 59 OFFCURVE",
"350 59 CURVE SMOOTH",
"311 59 OFFCURVE",
"275 71 OFFCURVE",
"244 90 CURVE",
"502 630 LINE",
"536 583 OFFCURVE",
"539 525 OFFCURVE",
"539 382 CURVE SMOOTH"
);
},
{
closed = 1;
nodes = (
"198 134 LINE",
"164 182 OFFCURVE",
"160 239 OFFCURVE",
"160 382 CURVE SMOOTH",
"160 546 OFFCURVE",
"164 598 OFFCURVE",
"215 649 CURVE SMOOTH",
"250 685 OFFCURVE",
"298 705 OFFCURVE",
"350 705 CURVE SMOOTH",
"389 705 OFFCURVE",
"425 693 OFFCURVE",
"456 674 CURVE"
);
}
);
width = 700;
}
);
unicode = 00D8;
},
{
glyphname = plusminus;
layers = (
{
layerId = "EC1CA293-A2FE-4C5B-B0FE-1EC2B6DFF2A6";
paths = (
{
closed = 1;
nodes = (
"512 317 LINE",
"512 391 LINE",
"319 391 LINE",
"319 584 LINE",
"246 584 LINE",
"246 391 LINE",
"52 391 LINE",
"52 317 LINE",
"246 317 LINE",
"246 123 LINE",
"319 123 LINE",
"319 317 LINE"
);
},
{
closed = 1;
nodes = (
"512 -1 LINE",
"512 73 LINE",
"52 73 LINE",
"52 -1 LINE"
);
}
);
width = 564;
}
);
unicode = 00B1;
},
{
glyphname = yen;
layers = (
{
layerId = "EC1CA293-A2FE-4C5B-B0FE-1EC2B6DFF2A6";
paths = (
{
closed = 1;
nodes = (
"556 785 LINE",
"467 785 LINE",
"283 410 LINE",
"98 785 LINE",
"8 785 LINE",
"181 443 LINE",
"71 443 LINE",
"71 383 LINE",
"212 383 LINE",
"240 325 LINE",
"240 268 LINE",
"71 268 LINE",
"71 207 LINE",
"240 207 LINE",
"240 1 LINE",
"325 1 LINE",
"325 207 LINE",
"493 207 LINE",
"493 268 LINE",
"325 268 LINE",
"325 325 LINE",
"354 383 LINE",
"493 383 LINE",
"493 443 LINE",
"383 443 LINE"
);
}
);
width = 564;
}
);
unicode = 00A5;
},
{
glyphname = mu1;
layers = (
{
layerId = "EC1CA293-A2FE-4C5B-B0FE-1EC2B6DFF2A6";
paths = (
{
closed = 1;
nodes = (
"509 1 LINE",
"509 543 LINE",
"430 543 LINE",
"430 209 LINE SMOOTH",
"430 114 OFFCURVE",
"376 65 OFFCURVE",
"295 65 CURVE SMOOTH",
"212 65 OFFCURVE",
"162 113 OFFCURVE",
"162 209 CURVE SMOOTH",
"162 543 LINE",
"83 543 LINE",
"83 -241 LINE",
"162 -241 LINE",
"162 35 LINE",
"191 8 OFFCURVE",
"229 -5 OFFCURVE",
"278 -5 CURVE SMOOTH",
"341 -5 OFFCURVE",
"391 17 OFFCURVE",
"430 62 CURVE",
"430 1 LINE"
);
}
);
width = 599;
}
);
unicode = 00B5;
},
{
glyphname = ordfeminine;
layers = (
{
layerId = "EC1CA293-A2FE-4C5B-B0FE-1EC2B6DFF2A6";
paths = (
{
closed = 1;
nodes = (
"396 325 LINE",
"396 617 LINE SMOOTH",
"396 710 OFFCURVE",
"342 762 OFFCURVE",
"226 762 CURVE SMOOTH",
"157 762 OFFCURVE",
"111 747 OFFCURVE",
"72 696 CURVE",
"117 655 LINE",
"144 692 OFFCURVE",
"170 704 OFFCURVE",
"225 704 CURVE SMOOTH",
"304 704 OFFCURVE",
"332 674 OFFCURVE",
"332 611 CURVE SMOOTH",
"332 572 LINE",
"205 572 LINE SMOOTH",
"109 572 OFFCURVE",
"56 522 OFFCURVE",
"56 446 CURVE SMOOTH",
"56 411 OFFCURVE",
"69 382 OFFCURVE",
"89 359 CURVE",
"117 332 OFFCURVE",
"150 320 OFFCURVE",
"210 320 CURVE SMOOTH",
"267 320 OFFCURVE",
"298 332 OFFCURVE",
"333 365 CURVE",
"333 325 LINE"
);
},
{
closed = 1;
nodes = (
"332 478 LINE SMOOTH",
"332 442 OFFCURVE",
"325 418 OFFCURVE",
"311 405 CURVE",
"284 378 OFFCURVE",
"252 377 OFFCURVE",
"216 377 CURVE SMOOTH",
"149 377 OFFCURVE",
"121 400 OFFCURVE",
"121 449 CURVE SMOOTH",
"121 498 OFFCURVE",
"152 522 OFFCURVE",
"214 522 CURVE SMOOTH",
"332 522 LINE"
);
}
);
width = 480;
}
);
unicode = 00AA;
},
{
glyphname = ordmasculine;
layers = (
{
layerId = "EC1CA293-A2FE-4C5B-B0FE-1EC2B6DFF2A6";
paths = (
{
closed = 1;
nodes = (
"419 608 OFFCURVE",
"410 666 OFFCURVE",
"366 713 CURVE SMOOTH",
"337 742 OFFCURVE",
"296 762 OFFCURVE",
"243 762 CURVE SMOOTH",
"190 762 OFFCURVE",
"149 742 OFFCURVE",
"120 713 CURVE SMOOTH",
"76 666 OFFCURVE",
"67 608 OFFCURVE",
"67 541 CURVE SMOOTH",
"67 473 OFFCURVE",
"76 414 OFFCURVE",
"120 369 CURVE SMOOTH",
"149 340 OFFCURVE",
"190 321 OFFCURVE",
"243 321 CURVE SMOOTH",
"296 321 OFFCURVE",
"337 340 OFFCURVE",
"366 369 CURVE SMOOTH",
"410 414 OFFCURVE",
"419 473 OFFCURVE",
"419 541 CURVE SMOOTH"
);
},
{
closed = 1;
nodes = (
"354 494 OFFCURVE",
"351 442 OFFCURVE",
"320 411 CURVE SMOOTH",
"300 391 OFFCURVE",
"274 379 OFFCURVE",
"243 379 CURVE SMOOTH",
"212 379 OFFCURVE",
"186 391 OFFCURVE",
"166 411 CURVE SMOOTH",
"135 442 OFFCURVE",
"133 494 OFFCURVE",
"133 541 CURVE SMOOTH",
"133 588 OFFCURVE",
"135 641 OFFCURVE",
"166 672 CURVE SMOOTH",
"187 693 OFFCURVE",
"212 703 OFFCURVE",
"243 703 CURVE SMOOTH",
"274 703 OFFCURVE",
"299 693 OFFCURVE",
"320 672 CURVE SMOOTH",
"351 641 OFFCURVE",
"354 588 OFFCURVE",
"354 541 CURVE SMOOTH"
);
}
);
width = 487;
}
);
unicode = 00BA;
},
{
glyphname = ae;
layers = (
{
layerId = "EC1CA293-A2FE-4C5B-B0FE-1EC2B6DFF2A6";
paths = (
{
closed = 1;
nodes = (
"845 251 LINE",
"845 287 LINE SMOOTH",
"845 447 OFFCURVE",
"763 549 OFFCURVE",
"623 549 CURVE SMOOTH",
"548 549 OFFCURVE",
"492 521 OFFCURVE",
"454 465 CURVE",
"424 521 OFFCURVE",
"360 549 OFFCURVE",
"263 549 CURVE SMOOTH",
"175 549 OFFCURVE",
"120 532 OFFCURVE",
"72 469 CURVE",
"126 419 LINE",
"158 466 OFFCURVE",
"193 481 OFFCURVE",
"262 481 CURVE SMOOTH",
"362 481 OFFCURVE",
"401 442 OFFCURVE",
"401 362 CURVE SMOOTH",
"401 311 LINE",
"238 311 LINE SMOOTH",
"117 311 OFFCURVE",
"51 250 OFFCURVE",
"51 154 CURVE SMOOTH",
"51 111 OFFCURVE",
"65 71 OFFCURVE",
"92 44 CURVE SMOOTH",
"127 9 OFFCURVE",
"169 -5 OFFCURVE",
"244 -5 CURVE SMOOTH",
"338 -5 OFFCURVE",
"393 18 OFFCURVE",
"442 88 CURVE",
"482 24 OFFCURVE",
"550 -5 OFFCURVE",
"635 -5 CURVE SMOOTH",
"727 -5 OFFCURVE",
"780 23 OFFCURVE",
"835 78 CURVE",
"780 126 LINE",
"737 83 OFFCURVE",
"702 64 OFFCURVE",
"639 64 CURVE SMOOTH",
"535 64 OFFCURVE",
"479 131 OFFCURVE",
"479 251 CURVE"
);
},
{
closed = 1;
nodes = (
"479 311 LINE",
"482 353 OFFCURVE",
"483 372 OFFCURVE",
"496 401 CURVE SMOOTH",
"517 450 OFFCURVE",
"566 482 OFFCURVE",
"623 482 CURVE SMOOTH",
"680 482 OFFCURVE",
"729 450 OFFCURVE",
"749 401 CURVE SMOOTH",
"762 371 OFFCURVE",
"763 354 OFFCURVE",
"766 311 CURVE"
);
},
{
closed = 1;
nodes = (
"401 193 LINE SMOOTH",
"401 148 OFFCURVE",
"392 117 OFFCURVE",
"373 99 CURVE SMOOTH",
"338 66 OFFCURVE",
"299 63 OFFCURVE",
"252 63 CURVE SMOOTH",
"165 63 OFFCURVE",
"128 92 OFFCURVE",
"128 155 CURVE SMOOTH",
"128 219 OFFCURVE",
"168 251 OFFCURVE",
"249 251 CURVE SMOOTH",
"401 251 LINE"
);
}
);
width = 907;
}
);
unicode = 00E6;
},
{
glyphname = oslash;
layers = (
{
layerId = "EC1CA293-A2FE-4C5B-B0FE-1EC2B6DFF2A6";
paths = (
{
closed = 1;
nodes = (
"506 356 OFFCURVE",
"495 429 OFFCURVE",
"442 485 CURVE",
"505 591 LINE",
"443 591 LINE",
"401 520 LINE",
"369 539 OFFCURVE",
"330 549 OFFCURVE",
"285 549 CURVE SMOOTH",
"218 549 OFFCURVE",
"167 525 OFFCURVE",
"130 488 CURVE SMOOTH",
"75 432 OFFCURVE",
"64 356 OFFCURVE",
"64 272 CURVE SMOOTH",
"64 188 OFFCURVE",
"75 115 OFFCURVE",
"128 59 CURVE",
"65 -47 LINE",
"128 -47 LINE",
"169 24 LINE",
"201 5 OFFCURVE",
"240 -5 OFFCURVE",
"285 -5 CURVE SMOOTH",
"352 -5 OFFCURVE",
"403 19 OFFCURVE",
"440 56 CURVE SMOOTH",
"495 112 OFFCURVE",
"506 188 OFFCURVE",
"506 272 CURVE SMOOTH"
);
},
{
closed = 1;
nodes = (
"427 210 OFFCURVE",
"424 145 OFFCURVE",
"384 105 CURVE",
"359 78 OFFCURVE",
"326 65 OFFCURVE",
"285 65 CURVE SMOOTH",
"256 65 OFFCURVE",
"229 73 OFFCURVE",
"206 89 CURVE",
"401 418 LINE",
"425 379 OFFCURVE",
"427 324 OFFCURVE",
"427 272 CURVE SMOOTH"
);
},
{
closed = 1;
nodes = (
"171 126 LINE",
"146 165 OFFCURVE",
"143 220 OFFCURVE",
"143 272 CURVE SMOOTH",
"143 335 OFFCURVE",
"147 399 OFFCURVE",
"187 439 CURVE",
"212 466 OFFCURVE",
"245 479 OFFCURVE",
"285 479 CURVE SMOOTH",
"315 479 OFFCURVE",
"341 471 OFFCURVE",
"364 456 CURVE"
);
}
);
width = 570;
}
);
unicode = 00F8;
},
{
glyphname = questiondown;
layers = (
{
layerId = "EC1CA293-A2FE-4C5B-B0FE-1EC2B6DFF2A6";
paths = (
{
closed = 1;
nodes = (
"293 462 LINE",
"293 554 LINE",
"199 554 LINE",
"199 462 LINE"
);
},
{
closed = 1;
nodes = (
"380 -35 LINE",
"380 -104 OFFCURVE",
"330 -164 OFFCURVE",
"253 -164 CURVE SMOOTH",
"178 -164 OFFCURVE",
"125 -108 OFFCURVE",
"125 -35 CURVE SMOOTH",
"125 4 OFFCURVE",
"141 28 OFFCURVE",
"162 59 CURVE SMOOTH",
"251 187 LINE SMOOTH",
"274 220 OFFCURVE",
"286 247 OFFCURVE",
"286 290 CURVE SMOOTH",
"286 335 LINE",
"207 335 LINE",
"207 291 LINE SMOOTH",
"207 272 OFFCURVE",
"200 247 OFFCURVE",
"187 227 CURVE SMOOTH",
"97 97 LINE SMOOTH",
"68 56 OFFCURVE",
"46 17 OFFCURVE",
"46 -35 CURVE SMOOTH",
"46 -152 OFFCURVE",
"137 -236 OFFCURVE",
"253 -236 CURVE SMOOTH",
"372 -236 OFFCURVE",
"459 -147 OFFCURVE",
"459 -35 CURVE"
);
}
);
width = 535;
}
);
unicode = 00BF;
},
{
glyphname = exclamdown;
layers = (
{
layerId = "EC1CA293-A2FE-4C5B-B0FE-1EC2B6DFF2A6";
paths = (
{
closed = 1;
nodes = (
"193 461 LINE",
"193 554 LINE",
"99 554 LINE",
"99 461 LINE"
);
},
{
closed = 1;
nodes = (
"192 -230 LINE",
"180 334 LINE",
"112 334 LINE",
"101 -230 LINE"
);
}
);
width = 324;
}
);
unicode = 00A1;
},
{
glyphname = logicalnot;
layers = (
{
layerId = "EC1CA293-A2FE-4C5B-B0FE-1EC2B6DFF2A6";
paths = (
{
closed = 1;
nodes = (
"513 119 LINE",
"513 343 LINE",
"51 343 LINE",
"51 270 LINE",
"439 270 LINE",
"439 119 LINE"
);
}
);
width = 564;
}
);
unicode = 00AC;
},
{
glyphname = guillemotleft;
layers = (
{
layerId = "EC1CA293-A2FE-4C5B-B0FE-1EC2B6DFF2A6";
paths = (
{
closed = 1;
nodes = (
"498 63 LINE",
"498 161 LINE",
"365 294 LINE",
"498 426 LINE",
"498 525 LINE",
"267 294 LINE"
);
},
{
closed = 1;
nodes = (
"249 63 LINE",
"249 161 LINE",
"117 294 LINE",
"249 426 LINE",
"249 525 LINE",
"18 294 LINE"
);
}
);
width = 554;
}
);
unicode = 00AB;
},
{
glyphname = guillemotright;
layers = (
{
layerId = "EC1CA293-A2FE-4C5B-B0FE-1EC2B6DFF2A6";
paths = (
{
closed = 1;
nodes = (
"536 294 LINE",
"305 525 LINE",
"305 426 LINE",
"437 294 LINE",
"305 161 LINE",
"305 63 LINE"
);
},
{
closed = 1;
nodes = (
"287 294 LINE",
"56 525 LINE",
"56 426 LINE",
"189 294 LINE",
"56 161 LINE",
"56 63 LINE"
);
}
);
width = 554;
}
);
unicode = 00BB;
},
{
glyphname = ellipsis;
layers = (
{
layerId = "EC1CA293-A2FE-4C5B-B0FE-1EC2B6DFF2A6";
paths = (
{
closed = 1;
nodes = (
"698 21 LINE",
"698 123 LINE",
"597 123 LINE",
"597 21 LINE"
);
},
{
closed = 1;
nodes = (
"429 21 LINE",
"429 123 LINE",
"327 123 LINE",
"327 21 LINE"
);
},
{
closed = 1;
nodes = (
"160 21 LINE",
"160 123 LINE",
"59 123 LINE",
"59 21 LINE"
);
}
);
width = 757;
}
);
unicode = 2026;
},
{
glyphname = Agrave;
layers = (
{
layerId = "EC1CA293-A2FE-4C5B-B0FE-1EC2B6DFF2A6";
paths = (
{
closed = 1;
nodes = (
"657 1 LINE",
"370 785 LINE",
"300 785 LINE",
"12 1 LINE",
"101 1 LINE",
"163 178 LINE",
"506 178 LINE",
"568 1 LINE"
);
},
{
closed = 1;
nodes = (
"481 251 LINE",
"189 251 LINE",
"336 665 LINE"
);
},
{
closed = 1;
nodes = (
"389 799 LINE",
"292 968 LINE",
"197 968 LINE",
"316 799 LINE"
);
}
);
width = 669;
}
);
unicode = 00C0;
},
{
glyphname = Atilde;
layers = (
{
layerId = "EC1CA293-A2FE-4C5B-B0FE-1EC2B6DFF2A6";
paths = (
{
closed = 1;
nodes = (
"657 1 LINE",
"370 785 LINE",
"300 785 LINE",
"12 1 LINE",
"101 1 LINE",
"163 178 LINE",
"506 178 LINE",
"568 1 LINE"
);
},
{
closed = 1;
nodes = (
"481 251 LINE",
"189 251 LINE",
"336 665 LINE"
);
},
{
closed = 1;
nodes = (
"463 912 LINE",
"431 880 OFFCURVE",
"415 877 OFFCURVE",
"398 877 CURVE SMOOTH",
"375 877 OFFCURVE",
"360 884 OFFCURVE",
"337 899 CURVE",
"309 915 OFFCURVE",
"290 925 OFFCURVE",
"259 925 CURVE SMOOTH",
"231 925 OFFCURVE",
"203 918 OFFCURVE",
"154 869 CURVE",
"195 829 LINE",
"228 862 OFFCURVE",
"241 864 OFFCURVE",
"260 864 CURVE SMOOTH",
"283 864 OFFCURVE",
"300 853 OFFCURVE",
"321 841 CURVE SMOOTH",
"348 826 OFFCURVE",
"368 816 OFFCURVE",
"399 816 CURVE SMOOTH",
"426 816 OFFCURVE",
"453 824 OFFCURVE",
"504 872 CURVE"
);
}
);
width = 669;
}
);
unicode = 00C3;
},
{
glyphname = Otilde;
layers = (
{
layerId = "EC1CA293-A2FE-4C5B-B0FE-1EC2B6DFF2A6";
paths = (
{
closed = 1;
nodes = (
"624 559 OFFCURVE",
"624 636 OFFCURVE",
"550 710 CURVE SMOOTH",
"496 764 OFFCURVE",
"429 791 OFFCURVE",
"350 791 CURVE SMOOTH",
"271 791 OFFCURVE",
"204 764 OFFCURVE",
"150 710 CURVE SMOOTH",
"76 636 OFFCURVE",
"76 559 OFFCURVE",
"76 393 CURVE SMOOTH",
"76 227 OFFCURVE",
"76 150 OFFCURVE",
"150 76 CURVE SMOOTH",
"204 22 OFFCURVE",
"271 -5 OFFCURVE",
"350 -5 CURVE SMOOTH",
"429 -5 OFFCURVE",
"496 22 OFFCURVE",
"550 76 CURVE SMOOTH",
"624 150 OFFCURVE",
"624 227 OFFCURVE",
"624 393 CURVE SMOOTH"
);
},
{
closed = 1;
nodes = (
"540 228 OFFCURVE",
"534 177 OFFCURVE",
"485 126 CURVE SMOOTH",
"450 90 OFFCURVE",
"402 70 OFFCURVE",
"350 70 CURVE SMOOTH",
"298 70 OFFCURVE",
"250 90 OFFCURVE",
"215 126 CURVE SMOOTH",
"166 177 OFFCURVE",
"160 228 OFFCURVE",
"160 393 CURVE SMOOTH",
"160 557 OFFCURVE",
"167 609 OFFCURVE",
"215 660 CURVE SMOOTH",
"250 696 OFFCURVE",
"298 716 OFFCURVE",
"350 716 CURVE SMOOTH",
"402 716 OFFCURVE",
"450 696 OFFCURVE",
"485 660 CURVE SMOOTH",
"533 609 OFFCURVE",
"540 557 OFFCURVE",
"540 393 CURVE SMOOTH"
);
},
{
closed = 1;
nodes = (
"482 912 LINE",
"450 880 OFFCURVE",
"434 877 OFFCURVE",
"417 877 CURVE SMOOTH",
"394 877 OFFCURVE",
"379 884 OFFCURVE",
"356 899 CURVE",
"328 915 OFFCURVE",
"309 925 OFFCURVE",
"278 925 CURVE SMOOTH",
"250 925 OFFCURVE",
"222 918 OFFCURVE",
"173 869 CURVE",
"214 829 LINE",
"247 862 OFFCURVE",
"260 864 OFFCURVE",
"279 864 CURVE SMOOTH",
"302 864 OFFCURVE",
"319 853 OFFCURVE",
"340 841 CURVE SMOOTH",
"367 826 OFFCURVE",
"387 816 OFFCURVE",
"418 816 CURVE SMOOTH",
"445 816 OFFCURVE",
"472 824 OFFCURVE",
"523 872 CURVE"
);
}
);
width = 700;
}
);
unicode = 00D5;
},
{
glyphname = OE;
layers = (
{
layerId = "EC1CA293-A2FE-4C5B-B0FE-1EC2B6DFF2A6";
paths = (
{
closed = 1;
nodes = (
"976 -10 LINE",
"976 64 LINE",
"580 64 LINE",
"580 152 OFFCURVE",
"581 262 OFFCURVE",
"581 350 CURVE",
"915 350 LINE",
"915 421 LINE",
"581 421 LINE",
"581 504 OFFCURVE",
"580 615 OFFCURVE",
"580 700 CURVE",
"974 700 LINE",
"974 774 LINE",
"496 774 LINE",
"496 692 LINE",
"448 752 OFFCURVE",
"383 780 OFFCURVE",
"306 780 CURVE SMOOTH",
"227 780 OFFCURVE",
"161 753 OFFCURVE",
"107 699 CURVE SMOOTH",
"35 627 OFFCURVE",
"33 547 OFFCURVE",
"33 382 CURVE SMOOTH",
"33 217 OFFCURVE",
"35 137 OFFCURVE",
"107 65 CURVE SMOOTH",
"161 11 OFFCURVE",
"227 -16 OFFCURVE",
"306 -16 CURVE SMOOTH",
"378 -16 OFFCURVE",
"448 12 OFFCURVE",
"496 72 CURVE",
"496 -10 LINE"
);
},
{
closed = 1;
nodes = (
"496 218 OFFCURVE",
"492 165 OFFCURVE",
"442 115 CURVE SMOOTH",
"407 79 OFFCURVE",
"359 59 OFFCURVE",
"307 59 CURVE SMOOTH",
"255 59 OFFCURVE",
"207 79 OFFCURVE",
"172 115 CURVE SMOOTH",
"121 166 OFFCURVE",
"117 218 OFFCURVE",
"117 382 CURVE SMOOTH",
"117 546 OFFCURVE",
"121 598 OFFCURVE",
"172 649 CURVE SMOOTH",
"207 685 OFFCURVE",
"255 705 OFFCURVE",
"307 705 CURVE SMOOTH",
"359 705 OFFCURVE",
"407 685 OFFCURVE",
"442 649 CURVE SMOOTH",
"492 599 OFFCURVE",
"496 545 OFFCURVE",
"496 382 CURVE SMOOTH"
);
}
);
width = 989;
}
);
unicode = 0152;
},
{
glyphname = oe;
layers = (
{
layerId = "EC1CA293-A2FE-4C5B-B0FE-1EC2B6DFF2A6";
paths = (
{
closed = 1;
nodes = (
"872 251 LINE",
"872 287 LINE SMOOTH",
"872 447 OFFCURVE",
"790 549 OFFCURVE",
"650 549 CURVE SMOOTH",
"568 549 OFFCURVE",
"508 514 OFFCURVE",
"470 445 CURVE",
"435 512 OFFCURVE",
"368 549 OFFCURVE",
"285 549 CURVE SMOOTH",
"218 549 OFFCURVE",
"169 525 OFFCURVE",
"130 488 CURVE",
"75 432 OFFCURVE",
"64 356 OFFCURVE",
"64 272 CURVE SMOOTH",
"64 188 OFFCURVE",
"75 112 OFFCURVE",
"130 56 CURVE",
"169 19 OFFCURVE",
"218 -5 OFFCURVE",
"285 -5 CURVE SMOOTH",
"368 -5 OFFCURVE",
"434 32 OFFCURVE",
"469 99 CURVE",
"508 30 OFFCURVE",
"573 -5 OFFCURVE",
"664 -5 CURVE SMOOTH",
"757 -5 OFFCURVE",
"806 22 OFFCURVE",
"862 78 CURVE",
"808 126 LINE",
"765 83 OFFCURVE",
"729 64 OFFCURVE",
"666 64 CURVE SMOOTH",
"562 64 OFFCURVE",
"507 131 OFFCURVE",
"507 251 CURVE"
);
},
{
closed = 1;
nodes = (
"507 311 LINE",
"510 353 OFFCURVE",
"510 372 OFFCURVE",
"523 401 CURVE SMOOTH",
"544 450 OFFCURVE",
"591 482 OFFCURVE",
"650 482 CURVE SMOOTH",
"707 482 OFFCURVE",
"755 450 OFFCURVE",
"776 401 CURVE",
"787 371 OFFCURVE",
"791 354 OFFCURVE",
"794 311 CURVE"
);
},
{
closed = 1;
nodes = (
"427 210 OFFCURVE",
"424 145 OFFCURVE",
"384 105 CURVE",
"359 78 OFFCURVE",
"326 65 OFFCURVE",
"285 65 CURVE SMOOTH",
"246 65 OFFCURVE",
"214 78 OFFCURVE",
"187 105 CURVE SMOOTH",
"148 144 OFFCURVE",
"143 210 OFFCURVE",
"143 272 CURVE SMOOTH",
"143 334 OFFCURVE",
"148 400 OFFCURVE",
"187 439 CURVE SMOOTH",
"214 466 OFFCURVE",
"246 479 OFFCURVE",
"285 479 CURVE SMOOTH",
"326 479 OFFCURVE",
"359 466 OFFCURVE",
"384 439 CURVE",
"424 399 OFFCURVE",
"427 334 OFFCURVE",
"427 272 CURVE SMOOTH"
);
}
);
width = 936;
}
);
unicode = 0153;
},
{
glyphname = endash;
lastChange = "2017-07-23 07:29:29 +0000";
layers = (
{
layerId = "EC1CA293-A2FE-4C5B-B0FE-1EC2B6DFF2A6";
paths = (
{
closed = 1;
nodes = (
"850 199 LINE",
"850 371 LINE",
"51 371 LINE",
"50 199 LINE"
);
}
);
width = 900;
}
);
unicode = 2013;
},
{
glyphname = emdash;
layers = (
{
layerId = "EC1CA293-A2FE-4C5B-B0FE-1EC2B6DFF2A6";
paths = (
{
closed = 1;
nodes = (
"532 223 LINE",
"532 360 LINE",
"70 360 LINE",
"70 223 LINE"
);
}
);
width = 602;
}
);
unicode = 2014;
},
{
glyphname = quotedblleft;
layers = (
{
layerId = "EC1CA293-A2FE-4C5B-B0FE-1EC2B6DFF2A6";
paths = (
{
closed = 1;
nodes = (
"212 585 LINE",
"80 585 LINE",
"30 302 LINE",
"113 302 LINE"
);
},
{
closed = 1;
nodes = (
"391 585 LINE",
"259 585 LINE",
"209 302 LINE",
"292 302 LINE"
);
}
);
width = 392;
}
);
unicode = 201C;
},
{
glyphname = quotedblright;
layers = (
{
layerId = "EC1CA293-A2FE-4C5B-B0FE-1EC2B6DFF2A6";
paths = (
{
closed = 1;
nodes = (
"212 585 LINE",
"80 585 LINE",
"30 302 LINE",
"113 302 LINE"
);
},
{
closed = 1;
nodes = (
"391 585 LINE",
"259 585 LINE",
"209 302 LINE",
"292 302 LINE"
);
}
);
width = 392;
}
);
unicode = 201D;
},
{
glyphname = quoteleft;
layers = (
{
layerId = "EC1CA293-A2FE-4C5B-B0FE-1EC2B6DFF2A6";
paths = (
{
closed = 1;
nodes = (
"201 585 LINE",
"69 585 LINE",
"19 302 LINE",
"102 302 LINE"
);
}
);
width = 222;
}
);
unicode = 2018;
},
{
glyphname = quoteright;
layers = (
{
layerId = "EC1CA293-A2FE-4C5B-B0FE-1EC2B6DFF2A6";
paths = (
{
closed = 1;
nodes = (
"201 585 LINE",
"69 585 LINE",
"19 302 LINE",
"102 302 LINE"
);
}
);
width = 222;
}
);
unicode = 2019;
},
{
glyphname = divide;
layers = (
{
layerId = "EC1CA293-A2FE-4C5B-B0FE-1EC2B6DFF2A6";
paths = (
{
closed = 1;
nodes = (
"339 208 OFFCURVE",
"317 229 OFFCURVE",
"290 229 CURVE SMOOTH",
"263 229 OFFCURVE",
"240 208 OFFCURVE",
"240 181 CURVE SMOOTH",
"240 153 OFFCURVE",
"263 131 OFFCURVE",
"290 131 CURVE SMOOTH",
"315 131 OFFCURVE",
"339 153 OFFCURVE",
"339 181 CURVE SMOOTH"
);
},
{
closed = 1;
nodes = (
"480 367 LINE",
"98 367 LINE",
"98 300 LINE",
"480 300 LINE"
);
},
{
closed = 1;
nodes = (
"339 513 OFFCURVE",
"317 535 OFFCURVE",
"290 535 CURVE SMOOTH",
"263 535 OFFCURVE",
"240 513 OFFCURVE",
"240 485 CURVE SMOOTH",
"240 458 OFFCURVE",
"263 437 OFFCURVE",
"290 437 CURVE SMOOTH",
"315 437 OFFCURVE",
"339 458 OFFCURVE",
"339 485 CURVE SMOOTH"
);
}
);
width = 578;
}
);
unicode = 00F7;
},
{
glyphname = ydieresis;
layers = (
{
layerId = "EC1CA293-A2FE-4C5B-B0FE-1EC2B6DFF2A6";
paths = (
{
closed = 1;
nodes = (
"478 543 LINE",
"392 543 LINE",
"245 109 LINE",
"96 543 LINE",
"11 543 LINE",
"205 13 LINE",
"167 -93 LINE SMOOTH",
"148 -142 OFFCURVE",
"134 -160 OFFCURVE",
"78 -160 CURVE SMOOTH",
"54 -160 LINE",
"54 -230 LINE",
"88 -230 LINE SMOOTH",
"127 -230 OFFCURVE",
"165 -220 OFFCURVE",
"193 -193 CURVE",
"208 -180 OFFCURVE",
"221 -158 OFFCURVE",
"232 -129 CURVE SMOOTH"
);
},
{
closed = 1;
nodes = (
"398 623 LINE",
"398 721 LINE",
"319 721 LINE",
"319 623 LINE"
);
},
{
closed = 1;
nodes = (
"165 623 LINE",
"165 721 LINE",
"86 721 LINE",
"86 623 LINE"
);
}
);
width = 489;
}
);
unicode = 00FF;
},
{
glyphname = Ydieresis;
layers = (
{
layerId = "EC1CA293-A2FE-4C5B-B0FE-1EC2B6DFF2A6";
paths = (
{
closed = 1;
nodes = (
"556 785 LINE",
"466 785 LINE",
"283 410 LINE",
"98 785 LINE",
"8 785 LINE",
"241 325 LINE",
"241 1 LINE",
"325 1 LINE",
"325 325 LINE"
);
},
{
closed = 1;
nodes = (
"442 809 LINE",
"442 907 LINE",
"363 907 LINE",
"363 809 LINE"
);
},
{
closed = 1;
nodes = (
"209 809 LINE",
"209 907 LINE",
"130 907 LINE",
"130 809 LINE"
);
}
);
width = 564;
}
);
unicode = 0178;
},
{
glyphname = fi;
layers = (
{
layerId = "EC1CA293-A2FE-4C5B-B0FE-1EC2B6DFF2A6";
paths = (
{
closed = 1;
nodes = (
"520 703 LINE",
"520 785 LINE",
"430 785 LINE",
"430 703 LINE"
);
},
{
closed = 1;
nodes = (
"514 0 LINE",
"514 538 LINE",
"435 538 LINE",
"435 0 LINE"
);
},
{
closed = 1;
nodes = (
"306 478 LINE",
"306 538 LINE",
"191 538 LINE",
"191 638 LINE SMOOTH",
"191 689 OFFCURVE",
"212 718 OFFCURVE",
"263 718 CURVE SMOOTH",
"306 718 LINE",
"306 786 LINE",
"249 786 LINE SMOOTH",
"157 786 OFFCURVE",
"112 721 OFFCURVE",
"112 641 CURVE SMOOTH",
"112 538 LINE",
"42 538 LINE",
"42 478 LINE",
"112 478 LINE",
"112 0 LINE",
"191 0 LINE",
"191 478 LINE"
);
}
);
width = 606;
}
);
unicode = F001;
},
{
glyphname = fl;
layers = (
{
layerId = "EC1CA293-A2FE-4C5B-B0FE-1EC2B6DFF2A6";
paths = (
{
closed = 1;
nodes = (
"627 0 LINE",
"627 68 LINE",
"583 68 LINE SMOOTH",
"527 68 OFFCURVE",
"510 95 OFFCURVE",
"510 148 CURVE SMOOTH",
"510 784 LINE",
"431 784 LINE",
"431 144 LINE SMOOTH",
"431 62 OFFCURVE",
"476 0 OFFCURVE",
"569 0 CURVE SMOOTH"
);
},
{
closed = 1;
nodes = (
"306 478 LINE",
"306 538 LINE",
"191 538 LINE",
"191 638 LINE SMOOTH",
"191 689 OFFCURVE",
"212 718 OFFCURVE",
"263 718 CURVE SMOOTH",
"306 718 LINE",
"306 786 LINE",
"249 786 LINE SMOOTH",
"157 786 OFFCURVE",
"112 721 OFFCURVE",
"112 641 CURVE SMOOTH",
"112 538 LINE",
"42 538 LINE",
"42 478 LINE",
"112 478 LINE",
"112 0 LINE",
"191 0 LINE",
"191 478 LINE"
);
}
);
width = 656;
}
);
unicode = F002;
},
{
glyphname = daggerdbl;
layers = (
{
layerId = "EC1CA293-A2FE-4C5B-B0FE-1EC2B6DFF2A6";
paths = (
{
closed = 1;
nodes = (
"554 -16 LINE",
"554 54 LINE",
"340 54 LINE",
"340 491 LINE",
"554 491 LINE",
"554 561 LINE",
"340 561 LINE",
"340 785 LINE",
"261 785 LINE",
"261 561 LINE",
"51 561 LINE",
"51 491 LINE",
"261 491 LINE",
"261 54 LINE",
"51 54 LINE",
"51 -16 LINE",
"261 -16 LINE",
"261 -241 LINE",
"340 -241 LINE",
"340 -16 LINE"
);
}
);
width = 605;
}
);
unicode = 2021;
},
{
glyphname = middot;
layers = (
{
layerId = "EC1CA293-A2FE-4C5B-B0FE-1EC2B6DFF2A6";
paths = (
{
closed = 1;
nodes = (
"179 362 OFFCURVE",
"156 385 OFFCURVE",
"125 385 CURVE SMOOTH",
"94 385 OFFCURVE",
"71 362 OFFCURVE",
"71 331 CURVE SMOOTH",
"71 302 OFFCURVE",
"96 277 OFFCURVE",
"125 277 CURVE SMOOTH",
"156 277 OFFCURVE",
"179 300 OFFCURVE",
"179 331 CURVE SMOOTH"
);
}
);
width = 250;
}
);
unicode = 00B7;
},
{
glyphname = quotesinglbase;
layers = (
{
layerId = "EC1CA293-A2FE-4C5B-B0FE-1EC2B6DFF2A6";
paths = (
{
closed = 1;
nodes = (
"77 -113 LINE",
"209 47 LINE",
"134 98 LINE",
"34 -84 LINE"
);
}
);
width = 244;
}
);
unicode = 201A;
},
{
glyphname = quotedblbase;
layers = (
{
layerId = "EC1CA293-A2FE-4C5B-B0FE-1EC2B6DFF2A6";
paths = (
{
closed = 1;
nodes = (
"231 435 LINE",
"363 595 LINE",
"288 646 LINE",
"188 463 LINE"
);
},
{
closed = 1;
nodes = (
"77 435 LINE",
"209 595 LINE",
"134 646 LINE",
"34 463 LINE"
);
}
);
width = 397;
}
);
unicode = 201E;
},
{
glyphname = perthousand;
layers = (
{
layerId = "EC1CA293-A2FE-4C5B-B0FE-1EC2B6DFF2A6";
paths = (
{
closed = 1;
nodes = (
"535 60 OFFCURVE",
"594 5 OFFCURVE",
"668 5 CURVE SMOOTH",
"742 5 OFFCURVE",
"801 60 OFFCURVE",
"801 128 CURVE SMOOTH",
"801 197 OFFCURVE",
"742 252 OFFCURVE",
"668 252 CURVE SMOOTH",
"594 252 OFFCURVE",
"535 197 OFFCURVE",
"535 128 CURVE SMOOTH"
);
},
{
closed = 1;
nodes = (
"592 167 OFFCURVE",
"625 198 OFFCURVE",
"668 198 CURVE SMOOTH",
"711 198 OFFCURVE",
"745 167 OFFCURVE",
"745 128 CURVE SMOOTH",
"745 89 OFFCURVE",
"711 59 OFFCURVE",
"668 59 CURVE SMOOTH",
"625 59 OFFCURVE",
"592 89 OFFCURVE",
"592 128 CURVE SMOOTH"
);
},
{
closed = 1;
nodes = (
"98 411 OFFCURVE",
"158 355 OFFCURVE",
"230 355 CURVE SMOOTH",
"305 355 OFFCURVE",
"364 411 OFFCURVE",
"364 479 CURVE SMOOTH",
"364 547 OFFCURVE",
"305 603 OFFCURVE",
"230 603 CURVE SMOOTH",
"158 603 OFFCURVE",
"98 547 OFFCURVE",
"98 479 CURVE SMOOTH"
);
},
{
closed = 1;
nodes = (
"445 396 LINE",
"103 259 LINE",
"122 212 LINE",
"465 348 LINE"
);
},
{
closed = 1;
nodes = (
"155 518 OFFCURVE",
"188 548 OFFCURVE",
"231 548 CURVE SMOOTH",
"274 548 OFFCURVE",
"308 518 OFFCURVE",
"308 479 CURVE SMOOTH",
"308 440 OFFCURVE",
"274 409 OFFCURVE",
"231 409 CURVE SMOOTH",
"188 409 OFFCURVE",
"155 440 OFFCURVE",
"155 479 CURVE SMOOTH"
);
},
{
closed = 1;
nodes = (
"205 60 OFFCURVE",
"265 5 OFFCURVE",
"337 5 CURVE SMOOTH",
"412 5 OFFCURVE",
"471 60 OFFCURVE",
"471 128 CURVE SMOOTH",
"471 197 OFFCURVE",
"412 252 OFFCURVE",
"337 252 CURVE SMOOTH",
"265 252 OFFCURVE",
"205 197 OFFCURVE",
"205 128 CURVE SMOOTH"
);
},
{
closed = 1;
nodes = (
"262 167 OFFCURVE",
"295 198 OFFCURVE",
"338 198 CURVE SMOOTH",
"381 198 OFFCURVE",
"415 167 OFFCURVE",
"415 128 CURVE SMOOTH",
"415 89 OFFCURVE",
"381 59 OFFCURVE",
"338 59 CURVE SMOOTH",
"295 59 OFFCURVE",
"262 89 OFFCURVE",
"262 128 CURVE SMOOTH"
);
}
);
width = 899;
}
);
unicode = 2030;
},
{
glyphname = Acircumflex;
layers = (
{
layerId = "EC1CA293-A2FE-4C5B-B0FE-1EC2B6DFF2A6";
paths = (
{
closed = 1;
nodes = (
"657 1 LINE",
"370 785 LINE",
"300 785 LINE",
"12 1 LINE",
"101 1 LINE",
"163 178 LINE",
"506 178 LINE",
"568 1 LINE"
);
},
{
closed = 1;
nodes = (
"481 251 LINE",
"189 251 LINE",
"336 665 LINE"
);
},
{
closed = 1;
nodes = (
"506 799 LINE",
"368 968 LINE",
"294 968 LINE",
"156 799 LINE",
"232 799 LINE",
"331 914 LINE",
"430 799 LINE"
);
}
);
width = 669;
}
);
unicode = 00C2;
},
{
glyphname = Ecircumflex;
layers = (
{
layerId = "EC1CA293-A2FE-4C5B-B0FE-1EC2B6DFF2A6";
paths = (
{
closed = 1;
nodes = (
"589 1 LINE",
"589 76 LINE",
"186 76 LINE",
"186 359 LINE",
"530 359 LINE",
"530 434 LINE",
"186 434 LINE",
"186 710 LINE",
"589 710 LINE",
"589 785 LINE",
"103 785 LINE",
"103 1 LINE"
);
},
{
closed = 1;
nodes = (
"510 799 LINE",
"372 968 LINE",
"298 968 LINE",
"160 799 LINE",
"236 799 LINE",
"335 914 LINE",
"434 799 LINE"
);
}
);
width = 644;
}
);
unicode = 00CA;
},
{
glyphname = Aacute;
layers = (
{
layerId = "EC1CA293-A2FE-4C5B-B0FE-1EC2B6DFF2A6";
paths = (
{
closed = 1;
nodes = (
"657 1 LINE",
"370 785 LINE",
"300 785 LINE",
"12 1 LINE",
"101 1 LINE",
"163 178 LINE",
"506 178 LINE",
"568 1 LINE"
);
},
{
closed = 1;
nodes = (
"481 251 LINE",
"189 251 LINE",
"336 665 LINE"
);
},
{
closed = 1;
nodes = (
"465 968 LINE",
"370 968 LINE",
"273 799 LINE",
"346 799 LINE"
);
}
);
width = 669;
}
);
unicode = 00C1;
},
{
glyphname = Edieresis;
layers = (
{
layerId = "EC1CA293-A2FE-4C5B-B0FE-1EC2B6DFF2A6";
paths = (
{
closed = 1;
nodes = (
"589 1 LINE",
"589 76 LINE",
"186 76 LINE",
"186 359 LINE",
"530 359 LINE",
"530 434 LINE",
"186 434 LINE",
"186 710 LINE",
"589 710 LINE",
"589 785 LINE",
"103 785 LINE",
"103 1 LINE"
);
},
{
closed = 1;
nodes = (
"491 810 LINE",
"491 908 LINE",
"412 908 LINE",
"412 810 LINE"
);
},
{
closed = 1;
nodes = (
"258 810 LINE",
"258 908 LINE",
"179 908 LINE",
"179 810 LINE"
);
}
);
width = 644;
}
);
unicode = 00CB;
},
{
glyphname = Egrave;
layers = (
{
layerId = "EC1CA293-A2FE-4C5B-B0FE-1EC2B6DFF2A6";
paths = (
{
closed = 1;
nodes = (
"589 1 LINE",
"589 76 LINE",
"186 76 LINE",
"186 359 LINE",
"530 359 LINE",
"530 434 LINE",
"186 434 LINE",
"186 710 LINE",
"589 710 LINE",
"589 785 LINE",
"103 785 LINE",
"103 1 LINE"
);
},
{
closed = 1;
nodes = (
"393 799 LINE",
"296 968 LINE",
"201 968 LINE",
"320 799 LINE"
);
}
);
width = 644;
}
);
unicode = 00C8;
},
{
glyphname = Iacute;
layers = (
{
layerId = "EC1CA293-A2FE-4C5B-B0FE-1EC2B6DFF2A6";
paths = (
{
closed = 1;
nodes = (
"184 1 LINE",
"184 785 LINE",
"100 785 LINE",
"100 1 LINE"
);
},
{
closed = 1;
nodes = (
"263 968 LINE",
"168 968 LINE",
"71 799 LINE",
"144 799 LINE"
);
}
);
width = 282;
}
);
unicode = 00CD;
},
{
glyphname = Icircumflex;
layers = (
{
layerId = "EC1CA293-A2FE-4C5B-B0FE-1EC2B6DFF2A6";
paths = (
{
closed = 1;
nodes = (
"184 1 LINE",
"184 785 LINE",
"100 785 LINE",
"100 1 LINE"
);
},
{
closed = 1;
nodes = (
"315 799 LINE",
"177 968 LINE",
"103 968 LINE",
"-35 799 LINE",
"41 799 LINE",
"140 914 LINE",
"239 799 LINE"
);
}
);
width = 282;
}
);
unicode = 00CE;
},
{
glyphname = Idieresis;
layers = (
{
layerId = "EC1CA293-A2FE-4C5B-B0FE-1EC2B6DFF2A6";
paths = (
{
closed = 1;
nodes = (
"184 1 LINE",
"184 785 LINE",
"100 785 LINE",
"100 1 LINE"
);
},
{
closed = 1;
nodes = (
"297 810 LINE",
"297 908 LINE",
"218 908 LINE",
"218 810 LINE"
);
},
{
closed = 1;
nodes = (
"64 810 LINE",
"64 908 LINE",
"-15 908 LINE",
"-15 810 LINE"
);
}
);
width = 282;
}
);
unicode = 00CF;
},
{
glyphname = Igrave;
layers = (
{
layerId = "EC1CA293-A2FE-4C5B-B0FE-1EC2B6DFF2A6";
paths = (
{
closed = 1;
nodes = (
"184 1 LINE",
"184 785 LINE",
"100 785 LINE",
"100 1 LINE"
);
},
{
closed = 1;
nodes = (
"215 799 LINE",
"118 968 LINE",
"23 968 LINE",
"142 799 LINE"
);
}
);
width = 282;
}
);
unicode = 00CC;
},
{
glyphname = Oacute;
layers = (
{
layerId = "EC1CA293-A2FE-4C5B-B0FE-1EC2B6DFF2A6";
paths = (
{
closed = 1;
nodes = (
"624 559 OFFCURVE",
"624 636 OFFCURVE",
"550 710 CURVE SMOOTH",
"496 764 OFFCURVE",
"429 791 OFFCURVE",
"350 791 CURVE SMOOTH",
"271 791 OFFCURVE",
"204 764 OFFCURVE",
"150 710 CURVE SMOOTH",
"76 636 OFFCURVE",
"76 559 OFFCURVE",
"76 393 CURVE SMOOTH",
"76 227 OFFCURVE",
"76 150 OFFCURVE",
"150 76 CURVE SMOOTH",
"204 22 OFFCURVE",
"271 -5 OFFCURVE",
"350 -5 CURVE SMOOTH",
"429 -5 OFFCURVE",
"496 22 OFFCURVE",
"550 76 CURVE SMOOTH",
"624 150 OFFCURVE",
"624 227 OFFCURVE",
"624 393 CURVE SMOOTH"
);
},
{
closed = 1;
nodes = (
"540 228 OFFCURVE",
"534 177 OFFCURVE",
"485 126 CURVE SMOOTH",
"450 90 OFFCURVE",
"402 70 OFFCURVE",
"350 70 CURVE SMOOTH",
"298 70 OFFCURVE",
"250 90 OFFCURVE",
"215 126 CURVE SMOOTH",
"166 177 OFFCURVE",
"160 228 OFFCURVE",
"160 393 CURVE SMOOTH",
"160 557 OFFCURVE",
"167 609 OFFCURVE",
"215 660 CURVE SMOOTH",
"250 696 OFFCURVE",
"298 716 OFFCURVE",
"350 716 CURVE SMOOTH",
"402 716 OFFCURVE",
"450 696 OFFCURVE",
"485 660 CURVE SMOOTH",
"533 609 OFFCURVE",
"540 557 OFFCURVE",
"540 393 CURVE SMOOTH"
);
},
{
closed = 1;
nodes = (
"484 968 LINE",
"389 968 LINE",
"292 799 LINE",
"365 799 LINE"
);
}
);
width = 700;
}
);
unicode = 00D3;
},
{
glyphname = Ocircumflex;
layers = (
{
layerId = "EC1CA293-A2FE-4C5B-B0FE-1EC2B6DFF2A6";
paths = (
{
closed = 1;
nodes = (
"624 559 OFFCURVE",
"624 636 OFFCURVE",
"550 710 CURVE SMOOTH",
"496 764 OFFCURVE",
"429 791 OFFCURVE",
"350 791 CURVE SMOOTH",
"271 791 OFFCURVE",
"204 764 OFFCURVE",
"150 710 CURVE SMOOTH",
"76 636 OFFCURVE",
"76 559 OFFCURVE",
"76 393 CURVE SMOOTH",
"76 227 OFFCURVE",
"76 150 OFFCURVE",
"150 76 CURVE SMOOTH",
"204 22 OFFCURVE",
"271 -5 OFFCURVE",
"350 -5 CURVE SMOOTH",
"429 -5 OFFCURVE",
"496 22 OFFCURVE",
"550 76 CURVE SMOOTH",
"624 150 OFFCURVE",
"624 227 OFFCURVE",
"624 393 CURVE SMOOTH"
);
},
{
closed = 1;
nodes = (
"540 228 OFFCURVE",
"534 177 OFFCURVE",
"485 126 CURVE SMOOTH",
"450 90 OFFCURVE",
"402 70 OFFCURVE",
"350 70 CURVE SMOOTH",
"298 70 OFFCURVE",
"250 90 OFFCURVE",
"215 126 CURVE SMOOTH",
"166 177 OFFCURVE",
"160 228 OFFCURVE",
"160 393 CURVE SMOOTH",
"160 557 OFFCURVE",
"167 609 OFFCURVE",
"215 660 CURVE SMOOTH",
"250 696 OFFCURVE",
"298 716 OFFCURVE",
"350 716 CURVE SMOOTH",
"402 716 OFFCURVE",
"450 696 OFFCURVE",
"485 660 CURVE SMOOTH",
"533 609 OFFCURVE",
"540 557 OFFCURVE",
"540 393 CURVE SMOOTH"
);
},
{
closed = 1;
nodes = (
"525 799 LINE",
"387 968 LINE",
"313 968 LINE",
"175 799 LINE",
"251 799 LINE",
"350 914 LINE",
"449 799 LINE"
);
}
);
width = 700;
}
);
unicode = 00D4;
},
{
glyphname = Ograve;
layers = (
{
layerId = "EC1CA293-A2FE-4C5B-B0FE-1EC2B6DFF2A6";
paths = (
{
closed = 1;
nodes = (
"624 559 OFFCURVE",
"624 636 OFFCURVE",
"550 710 CURVE SMOOTH",
"496 764 OFFCURVE",
"429 791 OFFCURVE",
"350 791 CURVE SMOOTH",
"271 791 OFFCURVE",
"204 764 OFFCURVE",
"150 710 CURVE SMOOTH",
"76 636 OFFCURVE",
"76 559 OFFCURVE",
"76 393 CURVE SMOOTH",
"76 227 OFFCURVE",
"76 150 OFFCURVE",
"150 76 CURVE SMOOTH",
"204 22 OFFCURVE",
"271 -5 OFFCURVE",
"350 -5 CURVE SMOOTH",
"429 -5 OFFCURVE",
"496 22 OFFCURVE",
"550 76 CURVE SMOOTH",
"624 150 OFFCURVE",
"624 227 OFFCURVE",
"624 393 CURVE SMOOTH"
);
},
{
closed = 1;
nodes = (
"540 228 OFFCURVE",
"534 177 OFFCURVE",
"485 126 CURVE SMOOTH",
"450 90 OFFCURVE",
"402 70 OFFCURVE",
"350 70 CURVE SMOOTH",
"298 70 OFFCURVE",
"250 90 OFFCURVE",
"215 126 CURVE SMOOTH",
"166 177 OFFCURVE",
"160 228 OFFCURVE",
"160 393 CURVE SMOOTH",
"160 557 OFFCURVE",
"167 609 OFFCURVE",
"215 660 CURVE SMOOTH",
"250 696 OFFCURVE",
"298 716 OFFCURVE",
"350 716 CURVE SMOOTH",
"402 716 OFFCURVE",
"450 696 OFFCURVE",
"485 660 CURVE SMOOTH",
"533 609 OFFCURVE",
"540 557 OFFCURVE",
"540 393 CURVE SMOOTH"
);
},
{
closed = 1;
nodes = (
"408 799 LINE",
"311 968 LINE",
"216 968 LINE",
"335 799 LINE"
);
}
);
width = 700;
}
);
unicode = 00D2;
},
{
glyphname = Uacute;
layers = (
{
layerId = "EC1CA293-A2FE-4C5B-B0FE-1EC2B6DFF2A6";
paths = (
{
closed = 1;
nodes = (
"640 785 LINE",
"556 785 LINE",
"556 267 LINE SMOOTH",
"556 148 OFFCURVE",
"481 70 OFFCURVE",
"366 70 CURVE SMOOTH",
"251 70 OFFCURVE",
"177 148 OFFCURVE",
"177 267 CURVE SMOOTH",
"177 785 LINE",
"93 785 LINE",
"93 260 LINE SMOOTH",
"93 104 OFFCURVE",
"207 -5 OFFCURVE",
"366 -5 CURVE SMOOTH",
"524 -5 OFFCURVE",
"640 104 OFFCURVE",
"640 260 CURVE SMOOTH"
);
},
{
closed = 1;
nodes = (
"500 968 LINE",
"405 968 LINE",
"308 799 LINE",
"381 799 LINE"
);
}
);
width = 733;
}
);
unicode = 00DA;
},
{
glyphname = Ucircumflex;
layers = (
{
layerId = "EC1CA293-A2FE-4C5B-B0FE-1EC2B6DFF2A6";
paths = (
{
closed = 1;
nodes = (
"640 785 LINE",
"556 785 LINE",
"556 267 LINE SMOOTH",
"556 148 OFFCURVE",
"481 70 OFFCURVE",
"366 70 CURVE SMOOTH",
"251 70 OFFCURVE",
"177 148 OFFCURVE",
"177 267 CURVE SMOOTH",
"177 785 LINE",
"93 785 LINE",
"93 260 LINE SMOOTH",
"93 104 OFFCURVE",
"207 -5 OFFCURVE",
"366 -5 CURVE SMOOTH",
"524 -5 OFFCURVE",
"640 104 OFFCURVE",
"640 260 CURVE SMOOTH"
);
},
{
closed = 1;
nodes = (
"541 799 LINE",
"403 968 LINE",
"329 968 LINE",
"191 799 LINE",
"267 799 LINE",
"366 914 LINE",
"465 799 LINE"
);
}
);
width = 733;
}
);
unicode = 00DB;
},
{
glyphname = Ugrave;
layers = (
{
layerId = "EC1CA293-A2FE-4C5B-B0FE-1EC2B6DFF2A6";
paths = (
{
closed = 1;
nodes = (
"640 785 LINE",
"556 785 LINE",
"556 267 LINE SMOOTH",
"556 148 OFFCURVE",
"481 70 OFFCURVE",
"366 70 CURVE SMOOTH",
"251 70 OFFCURVE",
"177 148 OFFCURVE",
"177 267 CURVE SMOOTH",
"177 785 LINE",
"93 785 LINE",
"93 260 LINE SMOOTH",
"93 104 OFFCURVE",
"207 -5 OFFCURVE",
"366 -5 CURVE SMOOTH",
"524 -5 OFFCURVE",
"640 104 OFFCURVE",
"640 260 CURVE SMOOTH"
);
},
{
closed = 1;
nodes = (
"424 799 LINE",
"327 968 LINE",
"232 968 LINE",
"351 799 LINE"
);
}
);
width = 733;
}
);
unicode = 00D9;
},
{
glyphname = circumflex;
layers = (
{
layerId = "EC1CA293-A2FE-4C5B-B0FE-1EC2B6DFF2A6";
paths = (
{
closed = 1;
nodes = (
"441 612 LINE",
"303 781 LINE",
"229 781 LINE",
"91 612 LINE",
"167 612 LINE",
"266 727 LINE",
"365 612 LINE"
);
}
);
width = 532;
}
);
unicode = 02C6;
},
{
glyphname = cedilla;
layers = (
{
layerId = "EC1CA293-A2FE-4C5B-B0FE-1EC2B6DFF2A6";
paths = (
{
closed = 1;
nodes = (
"327 -33 LINE",
"253 -33 LINE",
"175 -197 LINE",
"262 -197 LINE"
);
}
);
width = 514;
}
);
unicode = 00B8;
},
{
glyphname = hungarumlaut;
layers = (
{
layerId = "EC1CA293-A2FE-4C5B-B0FE-1EC2B6DFF2A6";
paths = (
{
closed = 1;
nodes = (
"481 781 LINE",
"387 781 LINE",
"289 612 LINE",
"361 612 LINE"
);
},
{
closed = 1;
nodes = (
"302 781 LINE",
"208 781 LINE",
"110 612 LINE",
"183 612 LINE"
);
}
);
width = 534;
}
);
unicode = 02DD;
},
{
glyphname = ogonek;
layers = (
{
layerId = "EC1CA293-A2FE-4C5B-B0FE-1EC2B6DFF2A6";
paths = (
{
closed = 1;
nodes = (
"337 -197 LINE",
"259 -33 LINE",
"186 -33 LINE",
"251 -197 LINE"
);
}
);
width = 514;
}
);
unicode = 02DB;
},
{
glyphname = caron;
layers = (
{
layerId = "EC1CA293-A2FE-4C5B-B0FE-1EC2B6DFF2A6";
paths = (
{
closed = 1;
nodes = (
"441 781 LINE",
"365 781 LINE",
"266 665 LINE",
"167 781 LINE",
"91 781 LINE",
"229 612 LINE",
"303 612 LINE"
);
}
);
width = 532;
}
);
unicode = 02C7;
},
{
glyphname = Lslash;
layers = (
{
layerId = "EC1CA293-A2FE-4C5B-B0FE-1EC2B6DFF2A6";
paths = (
{
closed = 1;
nodes = (
"604 1 LINE",
"604 76 LINE",
"204 76 LINE",
"204 373 LINE",
"374 481 LINE",
"374 554 LINE",
"204 446 LINE",
"204 785 LINE",
"120 785 LINE",
"120 393 LINE",
"39 342 LINE",
"39 269 LINE",
"120 319 LINE",
"120 1 LINE"
);
}
);
width = 634;
}
);
unicode = 0141;
},
{
glyphname = lslash;
layers = (
{
layerId = "EC1CA293-A2FE-4C5B-B0FE-1EC2B6DFF2A6";
paths = (
{
closed = 1;
nodes = (
"302 1 LINE",
"302 70 LINE",
"258 70 LINE SMOOTH",
"202 70 OFFCURVE",
"185 96 OFFCURVE",
"185 149 CURVE SMOOTH",
"185 426 LINE",
"275 481 LINE",
"275 549 LINE",
"185 494 LINE",
"185 785 LINE",
"106 785 LINE",
"106 446 LINE",
"37 403 LINE",
"37 335 LINE",
"106 378 LINE",
"106 145 LINE SMOOTH",
"106 63 OFFCURVE",
"150 1 OFFCURVE",
"245 1 CURVE SMOOTH"
);
}
);
width = 339;
}
);
unicode = 0142;
},
{
glyphname = Scaron;
layers = (
{
layerId = "EC1CA293-A2FE-4C5B-B0FE-1EC2B6DFF2A6";
paths = (
{
closed = 1;
nodes = (
"582 282 OFFCURVE",
"559 336 OFFCURVE",
"516 372 CURVE SMOOTH",
"483 401 OFFCURVE",
"446 416 OFFCURVE",
"373 427 CURVE SMOOTH",
"287 440 LINE SMOOTH",
"246 447 OFFCURVE",
"205 462 OFFCURVE",
"181 483 CURVE SMOOTH",
"158 504 OFFCURVE",
"146 534 OFFCURVE",
"146 573 CURVE SMOOTH",
"146 661 OFFCURVE",
"206 719 OFFCURVE",
"311 719 CURVE SMOOTH",
"394 719 OFFCURVE",
"445 696 OFFCURVE",
"494 652 CURVE",
"547 705 LINE",
"480 766 OFFCURVE",
"414 791 OFFCURVE",
"314 791 CURVE SMOOTH",
"159 791 OFFCURVE",
"63 702 OFFCURVE",
"63 570 CURVE SMOOTH",
"63 507 OFFCURVE",
"83 459 OFFCURVE",
"123 424 CURVE SMOOTH",
"157 394 OFFCURVE",
"205 374 OFFCURVE",
"267 364 CURVE SMOOTH",
"358 350 LINE SMOOTH",
"415 342 OFFCURVE",
"435 334 OFFCURVE",
"461 313 CURVE",
"486 290 OFFCURVE",
"498 255 OFFCURVE",
"498 215 CURVE SMOOTH",
"498 123 OFFCURVE",
"429 70 OFFCURVE",
"313 70 CURVE SMOOTH",
"224 70 OFFCURVE",
"165 90 OFFCURVE",
"100 155 CURVE",
"42 98 LINE",
"117 23 OFFCURVE",
"193 -5 OFFCURVE",
"311 -5 CURVE SMOOTH",
"474 -5 OFFCURVE",
"582 79 OFFCURVE",
"582 217 CURVE SMOOTH"
);
},
{
closed = 1;
nodes = (
"489 968 LINE",
"413 968 LINE",
"314 852 LINE",
"215 968 LINE",
"139 968 LINE",
"277 799 LINE",
"351 799 LINE"
);
}
);
width = 638;
}
);
unicode = 0160;
},
{
glyphname = scaron;
layers = (
{
layerId = "EC1CA293-A2FE-4C5B-B0FE-1EC2B6DFF2A6";
paths = (
{
closed = 1;
nodes = (
"485 260 OFFCURVE",
"420 298 OFFCURVE",
"326 306 CURVE SMOOTH",
"239 314 LINE SMOOTH",
"170 319 OFFCURVE",
"144 346 OFFCURVE",
"144 393 CURVE SMOOTH",
"144 449 OFFCURVE",
"185 482 OFFCURVE",
"265 482 CURVE SMOOTH",
"321 482 OFFCURVE",
"370 470 OFFCURVE",
"409 439 CURVE",
"461 491 LINE",
"413 531 OFFCURVE",
"343 549 OFFCURVE",
"266 549 CURVE SMOOTH",
"151 549 OFFCURVE",
"67 490 OFFCURVE",
"67 391 CURVE SMOOTH",
"67 302 OFFCURVE",
"122 254 OFFCURVE",
"229 246 CURVE SMOOTH",
"318 238 LINE SMOOTH",
"382 231 OFFCURVE",
"408 206 OFFCURVE",
"408 159 CURVE SMOOTH",
"408 95 OFFCURVE",
"353 63 OFFCURVE",
"264 63 CURVE SMOOTH",
"196 63 OFFCURVE",
"139 81 OFFCURVE",
"96 126 CURVE",
"43 73 LINE",
"103 16 OFFCURVE",
"173 -5 OFFCURVE",
"265 -5 CURVE SMOOTH",
"396 -5 OFFCURVE",
"485 55 OFFCURVE",
"485 160 CURVE SMOOTH"
);
},
{
closed = 1;
nodes = (
"422 781 LINE",
"346 781 LINE",
"247 665 LINE",
"148 781 LINE",
"72 781 LINE",
"210 612 LINE",
"284 612 LINE"
);
}
);
width = 536;
}
);
unicode = 0161;
},
{
glyphname = Zcaron;
layers = (
{
layerId = "EC1CA293-A2FE-4C5B-B0FE-1EC2B6DFF2A6";
paths = (
{
closed = 1;
nodes = (
"543 1 LINE",
"543 76 LINE",
"148 76 LINE",
"543 714 LINE",
"543 785 LINE",
"72 785 LINE",
"72 710 LINE",
"449 710 LINE",
"57 81 LINE",
"57 1 LINE"
);
},
{
closed = 1;
nodes = (
"481 968 LINE",
"405 968 LINE",
"306 852 LINE",
"207 968 LINE",
"131 968 LINE",
"269 799 LINE",
"343 799 LINE"
);
}
);
width = 600;
}
);
unicode = 017D;
},
{
glyphname = zcaron;
layers = (
{
layerId = "EC1CA293-A2FE-4C5B-B0FE-1EC2B6DFF2A6";
paths = (
{
closed = 1;
nodes = (
"443 1 LINE",
"443 72 LINE",
"140 72 LINE",
"443 476 LINE",
"443 543 LINE",
"67 543 LINE",
"67 472 LINE",
"352 472 LINE",
"50 70 LINE",
"50 1 LINE"
);
},
{
closed = 1;
nodes = (
"410 781 LINE",
"334 781 LINE",
"235 665 LINE",
"136 781 LINE",
"60 781 LINE",
"198 612 LINE",
"272 612 LINE"
);
}
);
width = 495;
}
);
unicode = 017E;
},
{
glyphname = brokenbar;
layers = (
{
layerId = "EC1CA293-A2FE-4C5B-B0FE-1EC2B6DFF2A6";
paths = (
{
closed = 1;
nodes = (
"88 675 LINE",
"88 325 LINE",
"179 325 LINE",
"179 675 LINE"
);
},
{
closed = 1;
nodes = (
"179 -175 LINE",
"179 175 LINE",
"88 175 LINE",
"88 -175 LINE"
);
}
);
width = 267;
}
);
unicode = 00A6;
},
{
glyphname = minus;
layers = (
{
layerId = "EC1CA293-A2FE-4C5B-B0FE-1EC2B6DFF2A6";
paths = (
{
closed = 1;
nodes = (
"546 301 LINE",
"98 301 LINE",
"98 267 LINE",
"546 267 LINE"
);
}
);
width = 644;
}
);
unicode = 2212;
},
{
glyphname = multiply;
layers = (
{
layerId = "EC1CA293-A2FE-4C5B-B0FE-1EC2B6DFF2A6";
paths = (
{
closed = 1;
nodes = (
"461 145 LINE",
"337 269 LINE",
"460 392 LINE",
"394 459 LINE",
"271 335 LINE",
"150 456 LINE",
"84 389 LINE",
"205 268 LINE",
"84 148 LINE",
"150 81 LINE",
"270 202 LINE",
"395 77 LINE"
);
}
);
width = 558;
}
);
unicode = 00D7;
},
{
glyphname = onesuperior;
layers = (
{
layerId = "EC1CA293-A2FE-4C5B-B0FE-1EC2B6DFF2A6";
paths = (
{
closed = 1;
nodes = (
"263 292 LINE",
"263 348 LINE",
"213 348 LINE",
"213 584 LINE",
"118 584 LINE",
"118 528 LINE",
"157 528 LINE",
"157 348 LINE",
"107 348 LINE",
"107 292 LINE"
);
}
);
width = 308;
}
);
unicode = 00B9;
},
{
glyphname = twosuperior;
layers = (
{
layerId = "EC1CA293-A2FE-4C5B-B0FE-1EC2B6DFF2A6";
paths = (
{
closed = 1;
nodes = (
"97 506 LINE",
"153 506 LINE",
"153 514 LINE SMOOTH",
"153 519 OFFCURVE",
"161 528 OFFCURVE",
"167 528 CURVE SMOOTH",
"233 528 LINE SMOOTH",
"239 528 OFFCURVE",
"247 519 OFFCURVE",
"247 514 CURVE SMOOTH",
"247 474 LINE",
"123 383 LINE SMOOTH",
"108 372 OFFCURVE",
"100 357 OFFCURVE",
"100 338 CURVE SMOOTH",
"100 292 LINE",
"293 292 LINE",
"293 347 LINE",
"166 347 LINE",
"167 350 OFFCURVE",
"166 352 OFFCURVE",
"171 356 CURVE",
"278 433 LINE SMOOTH",
"294 444 OFFCURVE",
"303 461 OFFCURVE",
"303 479 CURVE SMOOTH",
"303 516 LINE SMOOTH",
"303 547 OFFCURVE",
"266 584 OFFCURVE",
"234 584 CURVE SMOOTH",
"165 584 LINE SMOOTH",
"133 584 OFFCURVE",
"97 547 OFFCURVE",
"97 516 CURVE SMOOTH"
);
}
);
width = 405;
}
);
unicode = 00B2;
},
{
glyphname = threesuperior;
layers = (
{
layerId = "EC1CA293-A2FE-4C5B-B0FE-1EC2B6DFF2A6";
paths = (
{
closed = 1;
nodes = (
"311 399 LINE SMOOTH",
"311 418 OFFCURVE",
"303 430 OFFCURVE",
"291 441 CURVE",
"303 452 OFFCURVE",
"311 464 OFFCURVE",
"311 483 CURVE SMOOTH",
"311 516 LINE SMOOTH",
"311 547 OFFCURVE",
"274 584 OFFCURVE",
"242 584 CURVE SMOOTH",
"173 584 LINE SMOOTH",
"141 584 OFFCURVE",
"105 547 OFFCURVE",
"105 516 CURVE SMOOTH",
"105 506 LINE",
"161 506 LINE",
"161 514 LINE SMOOTH",
"161 519 OFFCURVE",
"169 528 OFFCURVE",
"175 528 CURVE SMOOTH",
"241 528 LINE SMOOTH",
"247 528 OFFCURVE",
"255 519 OFFCURVE",
"255 514 CURVE SMOOTH",
"255 482 LINE SMOOTH",
"255 476 OFFCURVE",
"247 467 OFFCURVE",
"241 467 CURVE SMOOTH",
"183 467 LINE",
"183 414 LINE",
"241 414 LINE SMOOTH",
"247 414 OFFCURVE",
"255 405 OFFCURVE",
"255 399 CURVE SMOOTH",
"255 362 LINE SMOOTH",
"255 357 OFFCURVE",
"247 348 OFFCURVE",
"241 348 CURVE SMOOTH",
"175 348 LINE SMOOTH",
"169 348 OFFCURVE",
"161 357 OFFCURVE",
"161 362 CURVE SMOOTH",
"161 370 LINE",
"105 370 LINE",
"105 360 LINE SMOOTH",
"105 329 OFFCURVE",
"141 292 OFFCURVE",
"173 292 CURVE SMOOTH",
"242 292 LINE SMOOTH",
"274 292 OFFCURVE",
"311 329 OFFCURVE",
"311 360 CURVE SMOOTH"
);
}
);
width = 405;
}
);
unicode = 00B3;
},
{
glyphname = onehalf;
layers = (
{
layerId = "EC1CA293-A2FE-4C5B-B0FE-1EC2B6DFF2A6";
paths = (
{
closed = 1;
nodes = (
"489 584 LINE",
"407 584 LINE",
"234 1 LINE",
"316 1 LINE"
);
},
{
closed = 1;
nodes = (
"263 292 LINE",
"263 348 LINE",
"213 348 LINE",
"213 584 LINE",
"118 584 LINE",
"118 528 LINE",
"157 528 LINE",
"157 348 LINE",
"107 348 LINE",
"107 292 LINE"
);
},
{
closed = 1;
nodes = (
"452 225 LINE SMOOTH",
"452 256 OFFCURVE",
"488 293 OFFCURVE",
"520 293 CURVE SMOOTH",
"589 293 LINE SMOOTH",
"621 293 OFFCURVE",
"658 256 OFFCURVE",
"658 225 CURVE SMOOTH",
"658 188 LINE SMOOTH",
"658 170 OFFCURVE",
"649 153 OFFCURVE",
"633 142 CURVE SMOOTH",
"526 65 LINE",
"521 61 OFFCURVE",
"522 59 OFFCURVE",
"521 56 CURVE",
"648 56 LINE",
"648 1 LINE",
"455 1 LINE",
"455 47 LINE SMOOTH",
"455 66 OFFCURVE",
"463 81 OFFCURVE",
"478 92 CURVE SMOOTH",
"602 183 LINE",
"602 223 LINE SMOOTH",
"602 228 OFFCURVE",
"594 237 OFFCURVE",
"588 237 CURVE SMOOTH",
"522 237 LINE SMOOTH",
"516 237 OFFCURVE",
"508 228 OFFCURVE",
"508 223 CURVE SMOOTH",
"508 215 LINE",
"452 215 LINE"
);
}
);
width = 742;
}
);
unicode = 00BD;
},
{
glyphname = onequarter;
layers = (
{
layerId = "EC1CA293-A2FE-4C5B-B0FE-1EC2B6DFF2A6";
paths = (
{
closed = 1;
nodes = (
"489 584 LINE",
"407 584 LINE",
"234 1 LINE",
"316 1 LINE"
);
},
{
closed = 1;
nodes = (
"263 292 LINE",
"263 348 LINE",
"213 348 LINE",
"213 584 LINE",
"118 584 LINE",
"118 528 LINE",
"157 528 LINE",
"157 348 LINE",
"107 348 LINE",
"107 292 LINE"
);
},
{
closed = 1;
nodes = (
"651 73 LINE",
"651 129 LINE",
"620 129 LINE",
"620 197 LINE",
"565 197 LINE",
"565 129 LINE",
"491 129 LINE",
"599 293 LINE",
"532 293 LINE",
"417 116 LINE",
"417 73 LINE",
"565 73 LINE",
"565 1 LINE",
"620 1 LINE",
"620 73 LINE"
);
}
);
width = 742;
}
);
unicode = 00BC;
},
{
glyphname = threequarters;
layers = (
{
layerId = "EC1CA293-A2FE-4C5B-B0FE-1EC2B6DFF2A6";
paths = (
{
closed = 1;
nodes = (
"489 584 LINE",
"407 584 LINE",
"234 1 LINE",
"316 1 LINE"
);
},
{
closed = 1;
nodes = (
"651 73 LINE",
"651 129 LINE",
"620 129 LINE",
"620 197 LINE",
"565 197 LINE",
"565 129 LINE",
"491 129 LINE",
"599 293 LINE",
"532 293 LINE",
"417 116 LINE",
"417 73 LINE",
"565 73 LINE",
"565 1 LINE",
"620 1 LINE",
"620 73 LINE"
);
},
{
closed = 1;
nodes = (
"261 360 LINE SMOOTH",
"261 329 OFFCURVE",
"224 292 OFFCURVE",
"192 292 CURVE SMOOTH",
"123 292 LINE SMOOTH",
"91 292 OFFCURVE",
"55 329 OFFCURVE",
"55 360 CURVE SMOOTH",
"55 370 LINE",
"111 370 LINE",
"111 362 LINE SMOOTH",
"111 357 OFFCURVE",
"119 348 OFFCURVE",
"125 348 CURVE SMOOTH",
"191 348 LINE SMOOTH",
"197 348 OFFCURVE",
"205 357 OFFCURVE",
"205 362 CURVE SMOOTH",
"205 399 LINE SMOOTH",
"205 405 OFFCURVE",
"197 414 OFFCURVE",
"191 414 CURVE SMOOTH",
"133 414 LINE",
"133 467 LINE",
"191 467 LINE SMOOTH",
"197 467 OFFCURVE",
"205 476 OFFCURVE",
"205 482 CURVE SMOOTH",
"205 514 LINE SMOOTH",
"205 519 OFFCURVE",
"197 528 OFFCURVE",
"191 528 CURVE SMOOTH",
"125 528 LINE SMOOTH",
"119 528 OFFCURVE",
"111 519 OFFCURVE",
"111 514 CURVE SMOOTH",
"111 506 LINE",
"55 506 LINE",
"55 516 LINE SMOOTH",
"55 547 OFFCURVE",
"91 584 OFFCURVE",
"123 584 CURVE SMOOTH",
"192 584 LINE SMOOTH",
"224 584 OFFCURVE",
"261 547 OFFCURVE",
"261 516 CURVE SMOOTH",
"261 483 LINE SMOOTH",
"261 464 OFFCURVE",
"253 452 OFFCURVE",
"241 441 CURVE",
"253 430 OFFCURVE",
"261 418 OFFCURVE",
"261 399 CURVE SMOOTH"
);
}
);
width = 742;
}
);
unicode = 00BE;
},
{
glyphname = overscore;
layers = (
{
layerId = "EC1CA293-A2FE-4C5B-B0FE-1EC2B6DFF2A6";
paths = (
{
closed = 1;
nodes = (
"431 637 LINE",
"431 700 LINE",
"99 700 LINE",
"99 637 LINE"
);
}
);
width = 530;
}
);
unicode = 00AF;
},
{
glyphname = peseta;
layers = (
{
layerId = "EC1CA293-A2FE-4C5B-B0FE-1EC2B6DFF2A6";
paths = (
{
closed = 1;
nodes = (
"21 645 LINE",
"86 644 OFFCURVE",
"109 618 OFFCURVE",
"109 566 CURVE SMOOTH",
"109 108 LINE",
"106 33 OFFCURVE",
"92 23 OFFCURVE",
"21 17 CURVE",
"21 0 LINE",
"300 0 LINE",
"300 17 LINE",
"239 16 OFFCURVE",
"212 42 OFFCURVE",
"212 101 CURVE SMOOTH",
"212 317 LINE",
"257 304 OFFCURVE",
"291 296 OFFCURVE",
"318 296 CURVE SMOOTH",
"365 296 OFFCURVE",
"407 308 OFFCURVE",
"443 333 CURVE SMOOTH",
"468 351 OFFCURVE",
"490 379 OFFCURVE",
"508 418 CURVE",
"518 418 LINE",
"518 117 LINE",
"517 93 LINE",
"517 18 OFFCURVE",
"548 -13 OFFCURVE",
"589 -13 CURVE SMOOTH",
"617 -13 OFFCURVE",
"640 -1 OFFCURVE",
"677 42 CURVE",
"677 0 LINE",
"698 0 LINE",
"704 4 OFFCURVE",
"710 6 OFFCURVE",
"715 6 CURVE SMOOTH",
"722 6 OFFCURVE",
"734 4 OFFCURVE",
"750 -1 CURVE SMOOTH",
"777 -9 OFFCURVE",
"798 -13 OFFCURVE",
"813 -13 CURVE SMOOTH",
"854 -13 OFFCURVE",
"888 0 OFFCURVE",
"915 25 CURVE SMOOTH",
"942 51 OFFCURVE",
"956 83 OFFCURVE",
"956 121 CURVE SMOOTH",
"956 147 OFFCURVE",
"948 170 OFFCURVE",
"932 191 CURVE SMOOTH",
"917 212 OFFCURVE",
"886 236 OFFCURVE",
"839 262 CURVE SMOOTH",
"793 288 OFFCURVE",
"764 307 OFFCURVE",
"753 318 CURVE SMOOTH",
"738 333 OFFCURVE",
"730 350 OFFCURVE",
"730 367 CURVE SMOOTH",
"730 400 OFFCURVE",
"761 430 OFFCURVE",
"798 430 CURVE SMOOTH",
"851 430 OFFCURVE",
"894 396 OFFCURVE",
"907 311 CURVE",
"925 311 LINE",
"925 445 LINE",
"904 445 LINE",
"897 442 OFFCURVE",
"891 440 OFFCURVE",
"887 440 CURVE SMOOTH",
"884 440 OFFCURVE",
"877 442 OFFCURVE",
"867 445 CURVE SMOOTH",
"839 453 OFFCURVE",
"817 457 OFFCURVE",
"800 457 CURVE SMOOTH",
"765 457 OFFCURVE",
"736 445 OFFCURVE",
"712 420 CURVE SMOOTH",
"688 396 OFFCURVE",
"676 366 OFFCURVE",
"676 330 CURVE SMOOTH",
"676 304 OFFCURVE",
"683 282 OFFCURVE",
"697 263 CURVE SMOOTH",
"712 244 OFFCURVE",
"740 223 OFFCURVE",
"783 198 CURVE SMOOTH",
"826 173 OFFCURVE",
"855 153 OFFCURVE",
"868 137 CURVE SMOOTH",
"881 120 OFFCURVE",
"888 103 OFFCURVE",
"888 86 CURVE SMOOTH",
"888 47 OFFCURVE",
"855 16 OFFCURVE",
"814 16 CURVE SMOOTH",
"782 16 OFFCURVE",
"739 39 OFFCURVE",
"718 75 CURVE SMOOTH",
"708 93 OFFCURVE",
"700 118 OFFCURVE",
"695 149 CURVE",
"677 149 LINE",
"677 81 LINE",
"646 52 OFFCURVE",
"639 49 OFFCURVE",
"628 49 CURVE SMOOTH",
"616 49 OFFCURVE",
"604 57 OFFCURVE",
"599 72 CURVE",
"597 79 OFFCURVE",
"596 95 OFFCURVE",
"596 118 CURVE SMOOTH",
"596 418 LINE",
"679 418 LINE",
"679 446 LINE",
"596 446 LINE",
"596 588 LINE",
"579 588 LINE",
"569 561 OFFCURVE",
"560 540 OFFCURVE",
"552 527 CURVE",
"545 514 OFFCURVE",
"533 498 OFFCURVE",
"517 481 CURVE",
"514 516 OFFCURVE",
"505 544 OFFCURVE",
"491 565 CURVE SMOOTH",
"450 629 OFFCURVE",
"371 662 OFFCURVE",
"272 662 CURVE SMOOTH",
"21 662 LINE"
);
},
{
closed = 1;
nodes = (
"212 615 LINE",
"231 621 OFFCURVE",
"248 624 OFFCURVE",
"262 624 CURVE SMOOTH",
"342 624 OFFCURVE",
"398 568 OFFCURVE",
"398 476 CURVE SMOOTH",
"398 388 OFFCURVE",
"343 331 OFFCURVE",
"279 331 CURVE SMOOTH",
"259 331 OFFCURVE",
"237 337 OFFCURVE",
"212 349 CURVE"
);
},
{
closed = 1;
nodes = (
"410 77 OFFCURVE",
"443 127 OFFCURVE",
"492 148 CURVE",
"443 169 OFFCURVE",
"410 219 OFFCURVE",
"393 299 CURVE",
"376 219 OFFCURVE",
"344 169 OFFCURVE",
"295 148 CURVE",
"344 127 OFFCURVE",
"376 77 OFFCURVE",
"393 -3 CURVE"
);
}
);
width = 969;
}
);
unicode = 20A7;
},
{
glyphname = sheva;
layers = (
{
anchors = (
{
name = _class0;
position = "{0, 0}";
}
);
layerId = "EC1CA293-A2FE-4C5B-B0FE-1EC2B6DFF2A6";
paths = (
{
closed = 1;
nodes = (
"50 -73 OFFCURVE",
"31 -48 OFFCURVE",
"0 -48 CURVE SMOOTH",
"-31 -48 OFFCURVE",
"-50 -73 OFFCURVE",
"-50 -100 CURVE SMOOTH",
"-50 -128 OFFCURVE",
"-31 -153 OFFCURVE",
"0 -153 CURVE SMOOTH",
"31 -153 OFFCURVE",
"50 -128 OFFCURVE",
"50 -100 CURVE SMOOTH"
);
},
{
closed = 1;
nodes = (
"50 -199 OFFCURVE",
"31 -174 OFFCURVE",
"0 -174 CURVE SMOOTH",
"-31 -174 OFFCURVE",
"-50 -199 OFFCURVE",
"-50 -226 CURVE SMOOTH",
"-50 -254 OFFCURVE",
"-31 -279 OFFCURVE",
"0 -279 CURVE SMOOTH",
"31 -279 OFFCURVE",
"50 -254 OFFCURVE",
"50 -226 CURVE SMOOTH"
);
}
);
width = 0;
}
);
unicode = 05B0;
},
{
glyphname = hatafsegol;
layers = (
{
anchors = (
{
name = _class0;
position = "{0, 0}";
}
);
layerId = "EC1CA293-A2FE-4C5B-B0FE-1EC2B6DFF2A6";
paths = (
{
closed = 1;
nodes = (
"50 -73 OFFCURVE",
"30 -48 OFFCURVE",
"-1 -48 CURVE SMOOTH",
"-32 -48 OFFCURVE",
"-51 -73 OFFCURVE",
"-51 -100 CURVE SMOOTH",
"-51 -128 OFFCURVE",
"-32 -153 OFFCURVE",
"-1 -153 CURVE SMOOTH",
"30 -153 OFFCURVE",
"50 -128 OFFCURVE",
"50 -100 CURVE SMOOTH"
);
},
{
closed = 1;
nodes = (
"-72 -73 OFFCURVE",
"-90 -48 OFFCURVE",
"-121 -48 CURVE SMOOTH",
"-152 -48 OFFCURVE",
"-171 -73 OFFCURVE",
"-171 -100 CURVE SMOOTH",
"-171 -128 OFFCURVE",
"-152 -153 OFFCURVE",
"-121 -153 CURVE SMOOTH",
"-90 -153 OFFCURVE",
"-72 -128 OFFCURVE",
"-72 -100 CURVE SMOOTH"
);
},
{
closed = 1;
nodes = (
"172 -73 OFFCURVE",
"153 -48 OFFCURVE",
"122 -48 CURVE SMOOTH",
"91 -48 OFFCURVE",
"72 -73 OFFCURVE",
"72 -100 CURVE SMOOTH",
"72 -128 OFFCURVE",
"91 -153 OFFCURVE",
"122 -153 CURVE SMOOTH",
"153 -153 OFFCURVE",
"172 -128 OFFCURVE",
"172 -100 CURVE SMOOTH"
);
},
{
closed = 1;
nodes = (
"172 -199 OFFCURVE",
"153 -174 OFFCURVE",
"122 -174 CURVE SMOOTH",
"91 -174 OFFCURVE",
"72 -199 OFFCURVE",
"72 -226 CURVE SMOOTH",
"72 -254 OFFCURVE",
"91 -279 OFFCURVE",
"122 -279 CURVE SMOOTH",
"153 -279 OFFCURVE",
"172 -254 OFFCURVE",
"172 -226 CURVE SMOOTH"
);
},
{
closed = 1;
nodes = (
"-11 -199 OFFCURVE",
"-30 -174 OFFCURVE",
"-61 -174 CURVE SMOOTH",
"-92 -174 OFFCURVE",
"-111 -199 OFFCURVE",
"-111 -226 CURVE SMOOTH",
"-111 -254 OFFCURVE",
"-92 -279 OFFCURVE",
"-61 -279 CURVE SMOOTH",
"-30 -279 OFFCURVE",
"-11 -254 OFFCURVE",
"-11 -226 CURVE SMOOTH"
);
}
);
width = 1;
}
);
unicode = 05B1;
},
{
glyphname = hatafpatah;
layers = (
{
anchors = (
{
name = _class0;
position = "{0, 0}";
}
);
layerId = "EC1CA293-A2FE-4C5B-B0FE-1EC2B6DFF2A6";
paths = (
{
closed = 1;
nodes = (
"35 -136 LINE",
"35 -64 LINE",
"-158 -64 LINE",
"-158 -136 LINE"
);
},
{
closed = 1;
nodes = (
"160 -73 OFFCURVE",
"141 -48 OFFCURVE",
"110 -48 CURVE SMOOTH",
"79 -48 OFFCURVE",
"60 -73 OFFCURVE",
"60 -100 CURVE SMOOTH",
"60 -128 OFFCURVE",
"79 -153 OFFCURVE",
"110 -153 CURVE SMOOTH",
"141 -153 OFFCURVE",
"160 -128 OFFCURVE",
"160 -100 CURVE SMOOTH"
);
},
{
closed = 1;
nodes = (
"160 -199 OFFCURVE",
"141 -174 OFFCURVE",
"110 -174 CURVE SMOOTH",
"79 -174 OFFCURVE",
"60 -199 OFFCURVE",
"60 -226 CURVE SMOOTH",
"60 -254 OFFCURVE",
"79 -279 OFFCURVE",
"110 -279 CURVE SMOOTH",
"141 -279 OFFCURVE",
"160 -254 OFFCURVE",
"160 -226 CURVE SMOOTH"
);
}
);
width = 1;
}
);
unicode = 05B2;
},
{
glyphname = hatafqamats;
layers = (
{
anchors = (
{
name = _class0;
position = "{0, 0}";
}
);
layerId = "EC1CA293-A2FE-4C5B-B0FE-1EC2B6DFF2A6";
paths = (
{
closed = 1;
nodes = (
"165 -73 OFFCURVE",
"146 -48 OFFCURVE",
"115 -48 CURVE SMOOTH",
"84 -48 OFFCURVE",
"65 -73 OFFCURVE",
"65 -100 CURVE SMOOTH",
"65 -128 OFFCURVE",
"84 -153 OFFCURVE",
"115 -153 CURVE SMOOTH",
"146 -153 OFFCURVE",
"165 -128 OFFCURVE",
"165 -100 CURVE SMOOTH"
);
},
{
closed = 1;
nodes = (
"165 -199 OFFCURVE",
"146 -174 OFFCURVE",
"115 -174 CURVE SMOOTH",
"84 -174 OFFCURVE",
"65 -199 OFFCURVE",
"65 -226 CURVE SMOOTH",
"65 -254 OFFCURVE",
"84 -279 OFFCURVE",
"115 -279 CURVE SMOOTH",
"146 -279 OFFCURVE",
"165 -254 OFFCURVE",
"165 -226 CURVE SMOOTH"
);
},
{
closed = 1;
nodes = (
"41 -64 LINE",
"-164 -64 LINE",
"-164 -136 LINE",
"-96 -136 LINE",
"-102 -268 LINE",
"-21 -268 LINE",
"-27 -136 LINE",
"40 -136 LINE"
);
}
);
width = 1;
}
);
unicode = 05B3;
},
{
glyphname = hiriq;
layers = (
{
anchors = (
{
name = _class0;
position = "{0, 0}";
}
);
layerId = "EC1CA293-A2FE-4C5B-B0FE-1EC2B6DFF2A6";
paths = (
{
closed = 1;
nodes = (
"50 -71 OFFCURVE",
"27 -48 OFFCURVE",
"0 -48 CURVE SMOOTH",
"-31 -48 OFFCURVE",
"-50 -71 OFFCURVE",
"-50 -100 CURVE SMOOTH",
"-50 -128 OFFCURVE",
"-31 -153 OFFCURVE",
"0 -153 CURVE SMOOTH",
"27 -153 OFFCURVE",
"50 -129 OFFCURVE",
"50 -102 CURVE SMOOTH"
);
}
);
width = 0;
}
);
unicode = 05B4;
},
{
glyphname = tsere;
layers = (
{
anchors = (
{
name = _class0;
position = "{0, 0}";
}
);
layerId = "EC1CA293-A2FE-4C5B-B0FE-1EC2B6DFF2A6";
paths = (
{
closed = 1;
nodes = (
"118 -73 OFFCURVE",
"100 -48 OFFCURVE",
"69 -48 CURVE SMOOTH",
"37 -48 OFFCURVE",
"19 -73 OFFCURVE",
"19 -100 CURVE SMOOTH",
"19 -128 OFFCURVE",
"37 -153 OFFCURVE",
"69 -153 CURVE SMOOTH",
"100 -153 OFFCURVE",
"118 -128 OFFCURVE",
"118 -100 CURVE SMOOTH"
);
},
{
closed = 1;
nodes = (
"-19 -73 OFFCURVE",
"-37 -48 OFFCURVE",
"-69 -48 CURVE SMOOTH",
"-100 -48 OFFCURVE",
"-118 -73 OFFCURVE",
"-118 -100 CURVE SMOOTH",
"-118 -128 OFFCURVE",
"-100 -153 OFFCURVE",
"-69 -153 CURVE SMOOTH",
"-37 -153 OFFCURVE",
"-19 -128 OFFCURVE",
"-19 -100 CURVE SMOOTH"
);
}
);
width = 0;
}
);
unicode = 05B5;
},
{
glyphname = segol;
layers = (
{
anchors = (
{
name = _class0;
position = "{0, 0}";
}
);
layerId = "EC1CA293-A2FE-4C5B-B0FE-1EC2B6DFF2A6";
paths = (
{
closed = 1;
nodes = (
"116 -73 OFFCURVE",
"98 -48 OFFCURVE",
"67 -48 CURVE SMOOTH",
"35 -48 OFFCURVE",
"17 -73 OFFCURVE",
"17 -100 CURVE SMOOTH",
"17 -128 OFFCURVE",
"35 -153 OFFCURVE",
"67 -153 CURVE SMOOTH",
"98 -153 OFFCURVE",
"116 -128 OFFCURVE",
"116 -100 CURVE SMOOTH"
);
},
{
closed = 1;
nodes = (
"-16 -73 OFFCURVE",
"-34 -48 OFFCURVE",
"-66 -48 CURVE SMOOTH",
"-97 -48 OFFCURVE",
"-115 -73 OFFCURVE",
"-115 -100 CURVE SMOOTH",
"-115 -128 OFFCURVE",
"-97 -153 OFFCURVE",
"-66 -153 CURVE SMOOTH",
"-34 -153 OFFCURVE",
"-16 -128 OFFCURVE",
"-16 -100 CURVE SMOOTH"
);
},
{
closed = 1;
nodes = (
"51 -192 OFFCURVE",
"31 -167 OFFCURVE",
"0 -167 CURVE SMOOTH",
"-31 -167 OFFCURVE",
"-50 -192 OFFCURVE",
"-50 -219 CURVE SMOOTH",
"-50 -248 OFFCURVE",
"-31 -272 OFFCURVE",
"0 -272 CURVE SMOOTH",
"31 -272 OFFCURVE",
"51 -248 OFFCURVE",
"51 -219 CURVE SMOOTH"
);
}
);
width = 0;
}
);
unicode = 05B6;
},
{
glyphname = patah;
layers = (
{
anchors = (
{
name = _class0;
position = "{0, 0}";
}
);
layerId = "EC1CA293-A2FE-4C5B-B0FE-1EC2B6DFF2A6";
paths = (
{
closed = 1;
nodes = (
"114 -136 LINE",
"114 -64 LINE",
"-113 -64 LINE",
"-113 -136 LINE"
);
}
);
width = 0;
}
);
unicode = 05B7;
},
{
glyphname = qamats;
layers = (
{
anchors = (
{
name = _class0;
position = "{0, 0}";
}
);
layerId = "EC1CA293-A2FE-4C5B-B0FE-1EC2B6DFF2A6";
paths = (
{
closed = 1;
nodes = (
"117 -64 LINE",
"-117 -64 LINE",
"-116 -136 LINE",
"-33 -136 LINE",
"-40 -268 LINE",
"41 -268 LINE",
"34 -136 LINE",
"116 -136 LINE"
);
}
);
width = 0;
}
);
unicode = 05B8;
},
{
glyphname = holam;
layers = (
{
anchors = (
{
name = _class0;
position = "{0, 0}";
},
{
name = _class1;
position = "{0, 0}";
}
);
layerId = "EC1CA293-A2FE-4C5B-B0FE-1EC2B6DFF2A6";
paths = (
{
closed = 1;
nodes = (
"53 710 OFFCURVE",
"27 733 OFFCURVE",
"0 733 CURVE SMOOTH",
"-27 733 OFFCURVE",
"-53 710 OFFCURVE",
"-53 682 CURVE SMOOTH",
"-53 653 OFFCURVE",
"-27 628 OFFCURVE",
"0 628 CURVE SMOOTH",
"27 628 OFFCURVE",
"53 653 OFFCURVE",
"53 682 CURVE SMOOTH"
);
}
);
width = 0;
}
);
unicode = 05B9;
},
{
glyphname = qubuts;
layers = (
{
anchors = (
{
name = _class0;
position = "{0, 0}";
}
);
layerId = "EC1CA293-A2FE-4C5B-B0FE-1EC2B6DFF2A6";
paths = (
{
closed = 1;
nodes = (
"253 -200 OFFCURVE",
"233 -175 OFFCURVE",
"202 -175 CURVE SMOOTH",
"171 -175 OFFCURVE",
"153 -199 OFFCURVE",
"153 -227 CURVE SMOOTH",
"153 -255 OFFCURVE",
"171 -280 OFFCURVE",
"202 -280 CURVE SMOOTH",
"233 -280 OFFCURVE",
"253 -256 OFFCURVE",
"253 -228 CURVE SMOOTH"
);
},
{
closed = 1;
nodes = (
"153 -137 OFFCURVE",
"133 -112 OFFCURVE",
"102 -112 CURVE SMOOTH",
"71 -112 OFFCURVE",
"53 -136 OFFCURVE",
"53 -163 CURVE SMOOTH",
"53 -194 OFFCURVE",
"71 -216 OFFCURVE",
"102 -216 CURVE SMOOTH",
"133 -216 OFFCURVE",
"153 -195 OFFCURVE",
"153 -164 CURVE SMOOTH"
);
},
{
closed = 1;
nodes = (
"53 -72 OFFCURVE",
"33 -48 OFFCURVE",
"2 -48 CURVE SMOOTH",
"-27 -48 OFFCURVE",
"-47 -71 OFFCURVE",
"-47 -100 CURVE SMOOTH",
"-47 -128 OFFCURVE",
"-27 -153 OFFCURVE",
"2 -153 CURVE SMOOTH",
"33 -153 OFFCURVE",
"53 -129 OFFCURVE",
"53 -101 CURVE SMOOTH"
);
}
);
width = 0;
}
);
unicode = 05BB;
},
{
glyphname = dagesh;
layers = (
{
anchors = (
{
name = _class0;
position = "{0, 0}";
}
);
layerId = "EC1CA293-A2FE-4C5B-B0FE-1EC2B6DFF2A6";
paths = (
{
closed = 1;
nodes = (
"52 329 OFFCURVE",
"28 351 OFFCURVE",
"0 351 CURVE SMOOTH",
"-28 351 OFFCURVE",
"-52 327 OFFCURVE",
"-52 298 CURVE SMOOTH",
"-52 271 OFFCURVE",
"-28 247 OFFCURVE",
"0 247 CURVE SMOOTH",
"27 247 OFFCURVE",
"52 271 OFFCURVE",
"52 298 CURVE SMOOTH"
);
}
);
width = 0;
}
);
unicode = 05BC;
},
{
glyphname = meteg;
layers = (
{
layerId = "EC1CA293-A2FE-4C5B-B0FE-1EC2B6DFF2A6";
paths = (
{
closed = 1;
nodes = (
"46 -63 LINE",
"-6 -63 LINE",
"-6 -277 LINE",
"46 -277 LINE"
);
}
);
width = 0;
}
);
unicode = 05BD;
},
{
glyphname = maqaf;
layers = (
{
layerId = "EC1CA293-A2FE-4C5B-B0FE-1EC2B6DFF2A6";
paths = (
{
closed = 1;
nodes = (
"532 223 LINE",
"532 360 LINE",
"70 360 LINE",
"70 223 LINE"
);
}
);
width = 602;
}
);
unicode = 05BE;
},
{
glyphname = rafe;
layers = (
{
layerId = "EC1CA293-A2FE-4C5B-B0FE-1EC2B6DFF2A6";
paths = (
{
closed = 1;
nodes = (
"403 436 LINE",
"403 585 LINE",
"50 585 LINE",
"50 436 LINE"
);
}
);
width = 453;
}
);
unicode = 05BF;
},
{
glyphname = paseq;
layers = (
{
layerId = "EC1CA293-A2FE-4C5B-B0FE-1EC2B6DFF2A6";
paths = (
{
closed = 1;
nodes = (
"232 -69 LINE",
"232 676 LINE",
"70 676 LINE",
"70 -69 LINE"
);
}
);
width = 302;
}
);
unicode = 05C0;
},
{
glyphname = shindot;
layers = (
{
anchors = (
{
name = _class0;
position = "{0, 0}";
}
);
layerId = "EC1CA293-A2FE-4C5B-B0FE-1EC2B6DFF2A6";
paths = (
{
closed = 1;
nodes = (
"53 710 OFFCURVE",
"27 733 OFFCURVE",
"0 733 CURVE SMOOTH",
"-27 733 OFFCURVE",
"-53 710 OFFCURVE",
"-53 682 CURVE SMOOTH",
"-53 653 OFFCURVE",
"-27 628 OFFCURVE",
"0 628 CURVE SMOOTH",
"27 628 OFFCURVE",
"53 653 OFFCURVE",
"53 682 CURVE SMOOTH"
);
}
);
width = 0;
}
);
unicode = 05C1;
},
{
glyphname = sindot;
layers = (
{
layerId = "EC1CA293-A2FE-4C5B-B0FE-1EC2B6DFF2A6";
paths = (
{
closed = 1;
nodes = (
"53 710 OFFCURVE",
"27 733 OFFCURVE",
"0 733 CURVE SMOOTH",
"-27 733 OFFCURVE",
"-53 710 OFFCURVE",
"-53 682 CURVE SMOOTH",
"-53 653 OFFCURVE",
"-27 628 OFFCURVE",
"0 628 CURVE SMOOTH",
"27 628 OFFCURVE",
"53 653 OFFCURVE",
"53 682 CURVE SMOOTH"
);
}
);
width = 0;
}
);
unicode = 05C2;
},
{
glyphname = sofpasuq;
layers = (
{
layerId = "EC1CA293-A2FE-4C5B-B0FE-1EC2B6DFF2A6";
paths = (
{
closed = 1;
nodes = (
"157 1 LINE",
"157 89 LINE",
"70 89 LINE",
"70 1 LINE"
);
},
{
closed = 1;
nodes = (
"157 375 LINE",
"157 463 LINE",
"70 463 LINE",
"70 375 LINE"
);
}
);
width = 227;
}
);
unicode = 05C3;
},
{
glyphname = uni05C4;
layers = (
{
layerId = "EC1CA293-A2FE-4C5B-B0FE-1EC2B6DFF2A6";
paths = (
{
closed = 1;
nodes = (
"53 710 OFFCURVE",
"27 733 OFFCURVE",
"0 733 CURVE SMOOTH",
"-27 733 OFFCURVE",
"-53 710 OFFCURVE",
"-53 682 CURVE SMOOTH",
"-53 653 OFFCURVE",
"-27 628 OFFCURVE",
"0 628 CURVE SMOOTH",
"27 628 OFFCURVE",
"53 653 OFFCURVE",
"53 682 CURVE SMOOTH"
);
}
);
width = 0;
}
);
unicode = 05C4;
},
{
glyphname = alef;
lastChange = "2016-11-06 07:06:45 +0000";
layers = (
{
layerId = "EC1CA293-A2FE-4C5B-B0FE-1EC2B6DFF2A6";
paths = (
{
closed = 1;
nodes = (
"755 571 LINE",
"568 571 LINE",
"452 171 LINE",
"638 171 LINE"
);
},
{
closed = 1;
nodes = (
"238 571 LINE",
"50 571 LINE",
"50 0 LINE",
"238 0 LINE"
);
},
{
closed = 1;
nodes = (
"284 571 LINE",
"50 571 LINE",
"555 0 LINE",
"796 0 LINE"
);
}
);
width = 806;
}
);
unicode = 05D0;
},
{
glyphname = bet;
lastChange = "2016-07-09 14:16:34 +0000";
layers = (
{
layerId = "EC1CA293-A2FE-4C5B-B0FE-1EC2B6DFF2A6";
paths = (
{
closed = 1;
nodes = (
"661 571 LINE",
"50 571 LINE",
"50 396 LINE",
"474 396 LINE",
"474 175 LINE",
"50 175 LINE",
"50 0 LINE",
"761 0 LINE",
"761 175 LINE",
"661 175 LINE"
);
}
);
width = 786;
},
{
associatedMasterId = "EC1CA293-A2FE-4C5B-B0FE-1EC2B6DFF2A6";
layerId = "54A1B677-0BFA-4060-9970-8E2A6D08A817";
name = "Bold Jun 30 16, 09:31";
paths = (
{
closed = 1;
nodes = (
"661 551 OFFCURVE",
"641 572 OFFCURVE",
"615 572 CURVE",
"50 572 LINE",
"50 397 LINE",
"474 397 LINE",
"474 176 LINE",
"50 176 LINE",
"50 1 LINE",
"761 1 LINE",
"761 176 LINE",
"661 176 LINE",
"661 525 LINE"
);
}
);
width = 786;
}
);
unicode = 05D1;
},
{
glyphname = gimel;
lastChange = "2016-11-06 07:08:09 +0000";
layers = (
{
layerId = "EC1CA293-A2FE-4C5B-B0FE-1EC2B6DFF2A6";
paths = (
{
closed = 1;
nodes = (
"259 140 LINE",
"272 0 LINE",
"456 0 LINE",
"415 571 LINE",
"229 571 LINE"
);
},
{
closed = 1;
nodes = (
"131 396 LINE",
"415 396 LINE",
"415 571 LINE",
"131 571 LINE"
);
},
{
closed = 1;
nodes = (
"81 -28 LINE",
"337 96 LINE",
"265 243 LINE",
"10 119 LINE"
);
}
);
width = 506;
}
);
unicode = 05D2;
},
{
glyphname = dalet;
lastChange = "2016-07-09 14:16:44 +0000";
layers = (
{
layerId = "EC1CA293-A2FE-4C5B-B0FE-1EC2B6DFF2A6";
paths = (
{
closed = 1;
nodes = (
"652 524 LINE SMOOTH",
"652 550 OFFCURVE",
"632 571 OFFCURVE",
"606 571 CURVE SMOOTH",
"40 571 LINE",
"40 396 LINE",
"389 396 LINE",
"389 0 LINE",
"576 0 LINE",
"576 396 LINE",
"652 396 LINE"
);
}
);
width = 692;
}
);
unicode = 05D3;
},
{
glyphname = he;
lastChange = "2016-07-09 14:16:55 +0000";
layers = (
{
layerId = "EC1CA293-A2FE-4C5B-B0FE-1EC2B6DFF2A6";
paths = (
{
closed = 1;
nodes = (
"50 0 LINE",
"236 0 LINE",
"236 290 LINE",
"50 290 LINE"
);
},
{
closed = 1;
nodes = (
"671 550 OFFCURVE",
"651 571 OFFCURVE",
"625 571 CURVE",
"50 571 LINE",
"50 396 LINE",
"484 396 LINE",
"484 0 LINE",
"671 0 LINE",
"671 524 LINE"
);
}
);
width = 721;
}
);
unicode = 05D4;
},
{
glyphname = vav;
lastChange = "2016-08-02 15:26:27 +0000";
layers = (
{
layerId = "EC1CA293-A2FE-4C5B-B0FE-1EC2B6DFF2A6";
paths = (
{
closed = 1;
nodes = (
"146 571 LINE",
"40 571 LINE",
"40 396 LINE",
"146 396 LINE",
"146 0 LINE",
"333 0 LINE",
"333 396 LINE",
"333 571 LINE"
);
}
);
width = 398;
}
);
unicode = 05D5;
},
{
glyphname = zayin;
lastChange = "2016-07-09 14:17:05 +0000";
layers = (
{
layerId = "EC1CA293-A2FE-4C5B-B0FE-1EC2B6DFF2A6";
paths = (
{
closed = 1;
nodes = (
"470 571 LINE",
"354 571 LINE",
"166 571 LINE",
"50 571 LINE",
"50 396 LINE",
"166 396 LINE",
"166 0 LINE",
"354 0 LINE",
"354 396 LINE",
"470 396 LINE"
);
}
);
width = 520;
}
);
unicode = 05D6;
},
{
glyphname = het;
lastChange = "2016-07-09 14:17:08 +0000";
layers = (
{
layerId = "EC1CA293-A2FE-4C5B-B0FE-1EC2B6DFF2A6";
paths = (
{
closed = 1;
nodes = (
"721 550 OFFCURVE",
"701 571 OFFCURVE",
"675 571 CURVE",
"50 571 LINE",
"50 0 LINE",
"236 0 LINE",
"236 396 LINE",
"535 396 LINE",
"535 0 LINE",
"721 0 LINE",
"721 524 LINE"
);
}
);
width = 771;
}
);
unicode = 05D7;
},
{
glyphname = tet;
lastChange = "2016-07-09 14:17:14 +0000";
layers = (
{
layerId = "EC1CA293-A2FE-4C5B-B0FE-1EC2B6DFF2A6";
paths = (
{
closed = 1;
nodes = (
"701 571 LINE",
"694 571 LINE",
"406 571 LINE",
"406 394 LINE",
"554 396 LINE",
"554 175 LINE",
"237 175 LINE",
"237 571 LINE",
"50 571 LINE",
"50 0 LINE",
"740 0 LINE",
"740 524 LINE SMOOTH",
"740 548 OFFCURVE",
"723 567 OFFCURVE",
"701 570 CURVE"
);
}
);
width = 790;
}
);
unicode = 05D8;
},
{
glyphname = yod;
lastChange = "2016-07-09 14:17:18 +0000";
layers = (
{
layerId = "EC1CA293-A2FE-4C5B-B0FE-1EC2B6DFF2A6";
paths = (
{
closed = 1;
nodes = (
"50 571 LINE",
"50 396 LINE",
"161 396 LINE",
"161 280 LINE",
"349 280 LINE",
"349 571 LINE"
);
}
);
width = 399;
}
);
unicode = 05D9;
},
{
glyphname = finalkaf;
lastChange = "2016-07-09 14:17:23 +0000";
layers = (
{
layerId = "EC1CA293-A2FE-4C5B-B0FE-1EC2B6DFF2A6";
paths = (
{
closed = 1;
nodes = (
"50 571 LINE",
"50 396 LINE",
"426 396 LINE",
"426 -235 LINE",
"612 -235 LINE",
"612 571 LINE"
);
}
);
width = 662;
}
);
unicode = 05DA;
},
{
glyphname = kaf;
lastChange = "2016-07-09 14:17:27 +0000";
layers = (
{
layerId = "EC1CA293-A2FE-4C5B-B0FE-1EC2B6DFF2A6";
paths = (
{
closed = 1;
nodes = (
"674 550 OFFCURVE",
"654 571 OFFCURVE",
"628 571 CURVE",
"63 571 LINE",
"63 396 LINE",
"488 396 LINE",
"488 175 LINE",
"63 175 LINE",
"63 0 LINE",
"674 0 LINE",
"674 524 LINE"
);
}
);
width = 724;
},
{
associatedMasterId = "EC1CA293-A2FE-4C5B-B0FE-1EC2B6DFF2A6";
layerId = "C5A8E782-F32C-420B-AA12-7EB212C713CD";
name = "Bold Jun 30 16, 09:31";
paths = (
{
closed = 1;
nodes = (
"63 572 LINE",
"63 397 LINE",
"488 397 LINE",
"488 176 LINE",
"63 176 LINE",
"63 1 LINE",
"674 1 LINE",
"674 572 LINE"
);
}
);
width = 724;
}
);
unicode = 05DB;
},
{
glyphname = lamed;
lastChange = "2016-11-06 07:07:47 +0000";
layers = (
{
layerId = "EC1CA293-A2FE-4C5B-B0FE-1EC2B6DFF2A6";
paths = (
{
closed = 1;
nodes = (
"188 0 LINE",
"412 -1 LINE",
"651 413 LINE",
"431 413 LINE"
);
},
{
closed = 1;
nodes = (
"30 396 LINE",
"216 396 LINE",
"216 671 LINE",
"30 671 LINE"
);
},
{
closed = 1;
nodes = (
"30 396 LINE",
"575 396 LINE",
"651 413 LINE SMOOTH",
"651 571 LINE",
"30 571 LINE"
);
}
);
width = 701;
},
{
associatedMasterId = "EC1CA293-A2FE-4C5B-B0FE-1EC2B6DFF2A6";
layerId = "95334762-40D0-42CE-91DE-8F170016064F";
name = "Bold Jun 30 16, 09:05";
paths = (
{
closed = 1;
nodes = (
"30 397 LINE",
"216 397 LINE",
"216 692 LINE",
"30 692 LINE"
);
},
{
closed = 1;
nodes = (
"30 397 LINE",
"559 397 LINE",
"559 572 LINE",
"30 572 LINE"
);
},
{
closed = 1;
nodes = (
"622 551 OFFCURVE",
"602 572 OFFCURVE",
"576 572 CURVE",
"435 572 LINE",
"435 1 LINE",
"622 1 LINE",
"622 525 LINE"
);
},
{
closed = 1;
nodes = (
"260 1 LINE",
"622 1 LINE",
"622 176 LINE",
"260 176 LINE"
);
}
);
width = 672;
},
{
associatedMasterId = "EC1CA293-A2FE-4C5B-B0FE-1EC2B6DFF2A6";
layerId = "7E8758F2-3C2F-4772-9C39-E14A76D25B26";
name = "Bold Jun 30 16, 09:08";
paths = (
{
closed = 1;
nodes = (
"192 1 LINE",
"412 0 LINE",
"660 572 LINE",
"440 572 LINE"
);
},
{
closed = 1;
nodes = (
"30 397 LINE",
"216 397 LINE",
"216 672 LINE",
"30 672 LINE"
);
},
{
closed = 1;
nodes = (
"30 397 LINE",
"555 397 LINE",
"571 434 LINE SMOOTH",
"631 572 LINE",
"30 572 LINE"
);
}
);
width = 672;
},
{
associatedMasterId = "EC1CA293-A2FE-4C5B-B0FE-1EC2B6DFF2A6";
layerId = "FE2D32E1-0BED-43A5-BD1C-799B975E7F6F";
name = "Bold Jun 30 16, 09:08";
paths = (
{
closed = 1;
nodes = (
"192 1 LINE",
"412 0 LINE",
"631 414 LINE",
"411 414 LINE"
);
},
{
closed = 1;
nodes = (
"30 397 LINE",
"216 397 LINE",
"216 672 LINE",
"30 672 LINE"
);
},
{
closed = 1;
nodes = (
"30 397 LINE",
"555 397 LINE",
"631 414 LINE SMOOTH",
"631 572 LINE",
"30 572 LINE"
);
}
);
width = 672;
},
{
associatedMasterId = "EC1CA293-A2FE-4C5B-B0FE-1EC2B6DFF2A6";
layerId = "14EC44FC-66D6-4542-ACAA-A574F572FB25";
name = "Bold Jun 30 16, 09:05 Jun 30 16, 09:10";
paths = (
{
closed = 1;
nodes = (
"435 1 LINE",
"622 1 LINE",
"622 572 LINE",
"435 572 LINE"
);
},
{
closed = 1;
nodes = (
"30 397 LINE",
"216 397 LINE",
"216 692 LINE",
"30 692 LINE"
);
},
{
closed = 1;
nodes = (
"30 397 LINE",
"559 397 LINE",
"559 572 LINE",
"30 572 LINE"
);
}
);
width = 672;
},
{
associatedMasterId = "EC1CA293-A2FE-4C5B-B0FE-1EC2B6DFF2A6";
layerId = "DE6323E6-D104-40CA-A588-7A11A1C8F38E";
name = "Bold Jun 30 16, 09:05 Jun 30 16, 09:12";
paths = (
{
closed = 1;
nodes = (
"30 397 LINE",
"216 397 LINE",
"216 692 LINE",
"30 692 LINE"
);
},
{
closed = 1;
nodes = (
"30 397 LINE",
"559 397 LINE",
"559 572 LINE",
"30 572 LINE"
);
},
{
closed = 1;
nodes = (
"622 551 OFFCURVE",
"602 572 OFFCURVE",
"576 572 CURVE",
"435 572 LINE",
"435 1 LINE",
"622 1 LINE",
"622 525 LINE"
);
},
{
closed = 1;
nodes = (
"290 1 LINE",
"622 1 LINE",
"622 176 LINE",
"290 176 LINE"
);
}
);
width = 672;
},
{
associatedMasterId = "EC1CA293-A2FE-4C5B-B0FE-1EC2B6DFF2A6";
layerId = "518B9984-C41F-45CB-B177-9CC5246D673B";
name = "Bold Jun 30 16, 09:15";
paths = (
{
closed = 1;
nodes = (
"192 1 LINE",
"412 0 LINE",
"651 414 LINE",
"431 414 LINE"
);
},
{
closed = 1;
nodes = (
"30 397 LINE",
"216 397 LINE",
"216 672 LINE",
"30 672 LINE"
);
},
{
closed = 1;
nodes = (
"30 397 LINE",
"575 397 LINE",
"651 414 LINE SMOOTH",
"651 572 LINE",
"30 572 LINE"
);
}
);
width = 701;
}
);
unicode = 05DC;
},
{
glyphname = finalmem;
lastChange = "2016-11-09 13:21:48 +0000";
layers = (
{
layerId = "EC1CA293-A2FE-4C5B-B0FE-1EC2B6DFF2A6";
paths = (
{
closed = 1;
nodes = (
"585 0 LINE",
"772 0 LINE",
"772 571 LINE",
"585 571 LINE"
);
},
{
closed = 1;
nodes = (
"100 0 LINE",
"286 0 LINE",
"286 571 LINE",
"100 571 LINE"
);
},
{
closed = 1;
nodes = (
"30 396 LINE",
"685 396 LINE",
"685 571 LINE",
"30 571 LINE"
);
},
{
closed = 1;
nodes = (
"192 0 LINE",
"697 0 LINE",
"697 175 LINE",
"192 175 LINE"
);
}
);
width = 802;
}
);
unicode = 05DD;
},
{
glyphname = mem;
lastChange = "2016-07-09 14:17:41 +0000";
layers = (
{
layerId = "EC1CA293-A2FE-4C5B-B0FE-1EC2B6DFF2A6";
paths = (
{
closed = 1;
nodes = (
"73 0 LINE",
"268 0 LINE",
"400 571 LINE",
"199 571 LINE"
);
},
{
closed = 1;
nodes = (
"50 396 LINE",
"656 396 LINE",
"656 571 LINE",
"50 571 LINE"
);
},
{
closed = 1;
nodes = (
"396 0 LINE",
"640 0 LINE",
"640 175 LINE",
"396 175 LINE"
);
},
{
closed = 1;
nodes = (
"743 550 OFFCURVE",
"723 571 OFFCURVE",
"697 571 CURVE",
"556 571 LINE",
"556 0 LINE",
"743 0 LINE",
"743 524 LINE"
);
}
);
width = 793;
},
{
associatedMasterId = "EC1CA293-A2FE-4C5B-B0FE-1EC2B6DFF2A6";
layerId = "AFDDE26E-2974-4BEB-8D9E-5F01C82E9D70";
name = "Bold Jul 2 16, 17:46";
paths = (
{
closed = 1;
nodes = (
"556 1 LINE",
"743 1 LINE",
"743 572 LINE",
"556 572 LINE"
);
},
{
closed = 1;
nodes = (
"73 1 LINE",
"268 1 LINE",
"400 572 LINE",
"199 572 LINE"
);
},
{
closed = 1;
nodes = (
"50 397 LINE",
"656 397 LINE",
"656 572 LINE",
"50 572 LINE"
);
},
{
closed = 1;
nodes = (
"396 1 LINE",
"640 1 LINE",
"640 176 LINE",
"396 176 LINE"
);
}
);
width = 793;
},
{
associatedMasterId = "EC1CA293-A2FE-4C5B-B0FE-1EC2B6DFF2A6";
layerId = "CEC1B082-DC97-4FD0-84DE-2DDF21220A3D";
name = "Bold Jul 2 16, 17:46";
paths = (
{
closed = 1;
nodes = (
"73 1 LINE",
"268 1 LINE",
"400 572 LINE",
"199 572 LINE"
);
},
{
closed = 1;
nodes = (
"50 397 LINE",
"656 397 LINE",
"656 572 LINE",
"50 572 LINE"
);
},
{
closed = 1;
nodes = (
"396 1 LINE",
"640 1 LINE",
"640 176 LINE",
"396 176 LINE"
);
},
{
closed = 1;
nodes = (
"743 551 OFFCURVE",
"723 572 OFFCURVE",
"697 572 CURVE",
"556 572 LINE",
"556 1 LINE",
"743 1 LINE",
"743 525 LINE"
);
}
);
width = 793;
}
);
unicode = 05DE;
},
{
glyphname = finalnun;
lastChange = "2016-07-09 14:17:44 +0000";
layers = (
{
layerId = "EC1CA293-A2FE-4C5B-B0FE-1EC2B6DFF2A6";
paths = (
{
closed = 1;
nodes = (
"207 -235 LINE",
"395 -235 LINE",
"395 571 LINE",
"207 571 LINE"
);
},
{
closed = 1;
nodes = (
"50 396 LINE",
"395 396 LINE",
"395 571 LINE",
"50 571 LINE"
);
}
);
width = 445;
}
);
unicode = 05DF;
},
{
glyphname = nun;
lastChange = "2016-07-09 14:17:48 +0000";
layers = (
{
layerId = "EC1CA293-A2FE-4C5B-B0FE-1EC2B6DFF2A6";
paths = (
{
closed = 1;
nodes = (
"167 0 LINE",
"307 0 LINE SMOOTH",
"331 0 OFFCURVE",
"353 21 OFFCURVE",
"353 47 CURVE SMOOTH",
"353 571 LINE",
"167 571 LINE"
);
},
{
closed = 1;
nodes = (
"70 396 LINE",
"267 396 LINE",
"267 571 LINE",
"70 571 LINE"
);
},
{
closed = 1;
nodes = (
"50 0 LINE",
"267 0 LINE",
"267 175 LINE",
"50 175 LINE"
);
}
);
width = 403;
}
);
unicode = 05E0;
},
{
glyphname = samekh;
lastChange = "2016-07-09 14:17:55 +0000";
layers = (
{
layerId = "EC1CA293-A2FE-4C5B-B0FE-1EC2B6DFF2A6";
paths = (
{
closed = 1;
nodes = (
"317 396 LINE",
"130 396 LINE",
"180 0 LINE",
"367 0 LINE"
);
},
{
closed = 1;
nodes = (
"50 396 LINE",
"692 396 LINE",
"692 571 LINE",
"50 571 LINE"
);
},
{
closed = 1;
nodes = (
"188 47 LINE SMOOTH",
"188 22 OFFCURVE",
"210 0 OFFCURVE",
"236 0 CURVE SMOOTH",
"744 0 LINE SMOOTH",
"787 0 OFFCURVE",
"830 31 OFFCURVE",
"830 73 CURVE SMOOTH",
"830 524 LINE SMOOTH",
"830 550 OFFCURVE",
"809 571 OFFCURVE",
"783 571 CURVE SMOOTH",
"644 571 LINE",
"644 175 LINE",
"188 175 LINE"
);
}
);
width = 880;
}
);
unicode = 05E1;
},
{
glyphname = ayin;
lastChange = "2016-07-09 14:18:02 +0000";
layers = (
{
layerId = "EC1CA293-A2FE-4C5B-B0FE-1EC2B6DFF2A6";
paths = (
{
closed = 1;
nodes = (
"50 0 LINE",
"617 0 LINE",
"617 175 LINE",
"50 175 LINE"
);
},
{
closed = 1;
nodes = (
"199 87 LINE",
"384 87 LINE",
"292 571 LINE",
"108 571 LINE"
);
},
{
closed = 1;
nodes = (
"730 0 OFFCURVE",
"750 21 OFFCURVE",
"750 47 CURVE",
"750 571 LINE",
"564 571 LINE",
"564 0 LINE",
"704 0 LINE"
);
}
);
width = 800;
}
);
unicode = 05E2;
},
{
glyphname = finalpe;
lastChange = "2016-07-09 14:18:08 +0000";
layers = (
{
layerId = "EC1CA293-A2FE-4C5B-B0FE-1EC2B6DFF2A6";
paths = (
{
closed = 1;
nodes = (
"556 -235 LINE",
"742 -235 LINE",
"742 571 LINE",
"556 571 LINE"
);
},
{
closed = 1;
nodes = (
"120 278 LINE",
"307 278 LINE",
"307 564 LINE",
"120 564 LINE"
);
},
{
closed = 1;
nodes = (
"50 396 LINE",
"657 396 LINE",
"657 571 LINE",
"50 571 LINE"
);
}
);
width = 792;
}
);
unicode = 05E3;
},
{
glyphname = pe;
lastChange = "2016-07-09 14:18:13 +0000";
layers = (
{
layerId = "EC1CA293-A2FE-4C5B-B0FE-1EC2B6DFF2A6";
paths = (
{
closed = 1;
nodes = (
"50 280 LINE",
"236 280 LINE",
"236 567 LINE",
"50 567 LINE"
);
},
{
closed = 1;
nodes = (
"50 396 LINE",
"557 396 LINE",
"557 571 LINE",
"50 571 LINE"
);
},
{
closed = 1;
nodes = (
"50 0 LINE",
"557 0 LINE",
"557 175 LINE",
"50 175 LINE"
);
},
{
closed = 1;
nodes = (
"690 550 OFFCURVE",
"670 571 OFFCURVE",
"644 571 CURVE",
"504 571 LINE",
"504 0 LINE",
"643 0 LINE SMOOTH",
"670 0 OFFCURVE",
"690 22 OFFCURVE",
"690 47 CURVE SMOOTH",
"690 524 LINE"
);
}
);
width = 740;
}
);
unicode = 05E4;
},
{
glyphname = finaltsadi;
lastChange = "2016-07-09 14:18:17 +0000";
layers = (
{
layerId = "EC1CA293-A2FE-4C5B-B0FE-1EC2B6DFF2A6";
paths = (
{
closed = 1;
nodes = (
"217 -235 LINE",
"431 -235 LINE",
"311 571 LINE",
"97 571 LINE"
);
},
{
closed = 1;
nodes = (
"50 396 LINE",
"199 396 LINE",
"199 571 LINE",
"50 571 LINE"
);
},
{
closed = 1;
nodes = (
"335 280 LINE",
"550 280 LINE",
"620 571 LINE",
"405 571 LINE"
);
}
);
width = 670;
}
);
unicode = 05E5;
},
{
glyphname = tsadi;
lastChange = "2016-11-06 07:13:30 +0000";
layers = (
{
layerId = "EC1CA293-A2FE-4C5B-B0FE-1EC2B6DFF2A6";
paths = (
{
closed = 1;
nodes = (
"50 0 LINE",
"727 0 LINE",
"725 160 LINE",
"614 175 LINE",
"50 175 LINE"
);
},
{
closed = 1;
nodes = (
"435 280 LINE",
"610 253 LINE",
"734 571 LINE",
"547 571 LINE"
);
},
{
closed = 1;
nodes = (
"50 396 LINE",
"239 396 LINE",
"239 571 LINE",
"50 571 LINE"
);
},
{
closed = 1;
nodes = (
"458 175 LINE",
"725 160 LINE",
"251 571 LINE",
"114 571 LINE",
"98 463 LINE"
);
}
);
width = 784;
}
);
unicode = 05E6;
},
{
glyphname = qof;
lastChange = "2016-11-06 07:10:27 +0000";
layers = (
{
layerId = "EC1CA293-A2FE-4C5B-B0FE-1EC2B6DFF2A6";
paths = (
{
closed = 1;
nodes = (
"621 0 LINE",
"761 0 LINE SMOOTH",
"786 0 OFFCURVE",
"807 22 OFFCURVE",
"807 47 CURVE SMOOTH",
"807 571 LINE",
"621 571 LINE"
);
},
{
closed = 1;
nodes = (
"45 -240 LINE",
"231 -240 LINE",
"231 571 LINE",
"45 571 LINE"
);
},
{
closed = 1;
nodes = (
"59 396 LINE",
"714 396 LINE",
"714 571 LINE",
"59 571 LINE"
);
},
{
closed = 1;
nodes = (
"444 0 LINE",
"675 0 LINE",
"675 175 LINE",
"444 175 LINE"
);
}
);
width = 857;
}
);
leftMetricsKey = "4";
unicode = 05E7;
},
{
glyphname = resh;
lastChange = "2016-11-06 07:10:48 +0000";
layers = (
{
layerId = "EC1CA293-A2FE-4C5B-B0FE-1EC2B6DFF2A6";
paths = (
{
closed = 1;
nodes = (
"40 396 LINE",
"572 396 LINE",
"572 571 LINE",
"40 571 LINE"
);
},
{
closed = 1;
nodes = (
"641 550 OFFCURVE",
"621 571 OFFCURVE",
"595 571 CURVE",
"454 571 LINE",
"454 0 LINE",
"641 0 LINE",
"641 524 LINE"
);
}
);
width = 691;
}
);
unicode = 05E8;
},
{
glyphname = shin;
lastChange = "2016-11-06 07:12:18 +0000";
layers = (
{
layerId = "EC1CA293-A2FE-4C5B-B0FE-1EC2B6DFF2A6";
paths = (
{
closed = 1;
nodes = (
"380 409 LINE",
"567 409 LINE",
"567 571 LINE",
"380 571 LINE"
);
},
{
closed = 1;
nodes = (
"50 0 LINE",
"236 0 LINE",
"236 571 LINE",
"50 571 LINE"
);
},
{
closed = 1;
nodes = (
"85 0 LINE",
"833 0 LINE",
"871 30 LINE",
"871 175 LINE",
"85 175 LINE"
);
},
{
closed = 1;
nodes = (
"556 288 OFFCURVE",
"567 300 OFFCURVE",
"567 325 CURVE",
"567 436 LINE",
"85 436 LINE",
"85 288 LINE",
"530 288 LINE"
);
},
{
closed = 1;
nodes = (
"882 0 OFFCURVE",
"903 22 OFFCURVE",
"903 47 CURVE",
"903 571 LINE",
"717 571 LINE",
"717 0 LINE",
"856 0 LINE"
);
}
);
width = 953;
}
);
unicode = 05E9;
},
{
glyphname = tav;
lastChange = "2016-07-09 14:18:44 +0000";
layers = (
{
layerId = "EC1CA293-A2FE-4C5B-B0FE-1EC2B6DFF2A6";
paths = (
{
closed = 1;
nodes = (
"120 0 LINE",
"306 0 LINE",
"306 571 LINE",
"120 571 LINE"
);
},
{
closed = 1;
nodes = (
"50 396 LINE",
"657 396 LINE",
"657 571 LINE",
"50 571 LINE"
);
},
{
closed = 1;
nodes = (
"50 0 LINE",
"236 0 LINE",
"236 175 LINE",
"50 175 LINE"
);
},
{
closed = 1;
nodes = (
"742 550 OFFCURVE",
"722 571 OFFCURVE",
"696 571 CURVE",
"556 571 LINE",
"556 0 LINE",
"742 0 LINE",
"742 524 LINE"
);
}
);
width = 792;
}
);
unicode = 05EA;
},
{
glyphname = geresh;
lastChange = "2016-07-02 17:29:25 +0000";
layers = (
{
layerId = "EC1CA293-A2FE-4C5B-B0FE-1EC2B6DFF2A6";
paths = (
{
closed = 1;
nodes = (
"209 449 LINE",
"209 597 LINE",
"16 597 LINE",
"16 449 LINE",
"56 449 LINE",
"56 328 LINE",
"153 328 LINE"
);
}
);
width = 209;
}
);
unicode = 05F3;
},
{
glyphname = gershayim;
layers = (
{
layerId = "EC1CA293-A2FE-4C5B-B0FE-1EC2B6DFF2A6";
paths = (
{
closed = 1;
nodes = (
"465 585 LINE",
"306 585 LINE",
"246 275 LINE",
"372 275 LINE"
);
},
{
closed = 1;
nodes = (
"249 585 LINE",
"90 585 LINE",
"30 275 LINE",
"156 275 LINE"
);
}
);
width = 485;
}
);
unicode = 05F4;
},
{
glyphname = newsheqelsign;
layers = (
{
layerId = "EC1CA293-A2FE-4C5B-B0FE-1EC2B6DFF2A6";
paths = (
{
closed = 1;
nodes = (
"909 585 LINE",
"761 585 LINE",
"761 159 LINE SMOOTH",
"761 155 OFFCURVE",
"756 150 OFFCURVE",
"752 150 CURVE SMOOTH",
"457 150 LINE",
"457 350 LINE",
"308 350 LINE",
"308 1 LINE",
"749 1 LINE SMOOTH",
"830 1 OFFCURVE",
"909 82 OFFCURVE",
"909 161 CURVE SMOOTH"
);
},
{
closed = 1;
nodes = (
"680 425 LINE SMOOTH",
"680 506 OFFCURVE",
"599 585 OFFCURVE",
"520 585 CURVE SMOOTH",
"60 585 LINE",
"60 1 LINE",
"217 1 LINE",
"217 436 LINE",
"528 436 LINE SMOOTH",
"532 436 OFFCURVE",
"537 431 OFFCURVE",
"537 427 CURVE SMOOTH",
"537 299 LINE",
"521 247 LINE",
"584 188 LINE",
"648 237 LINE SMOOTH",
"671 254 OFFCURVE",
"680 272 OFFCURVE",
"680 303 CURVE SMOOTH"
);
}
);
width = 969;
}
);
unicode = 20AA;
},
{
glyphname = uniFB29;
layers = (
{
layerId = "EC1CA293-A2FE-4C5B-B0FE-1EC2B6DFF2A6";
paths = (
{
closed = 1;
nodes = (
"139 205 LINE",
"139 247 LINE SMOOTH",
"139 277 OFFCURVE",
"127 292 OFFCURVE",
"102 292 CURVE",
"102 205 LINE",
"63 205 LINE SMOOTH",
"32 205 OFFCURVE",
"17 192 OFFCURVE",
"17 167 CURVE",
"102 167 LINE",
"102 130 LINE SMOOTH",
"102 99 OFFCURVE",
"114 84 OFFCURVE",
"139 84 CURVE",
"139 167 LINE",
"179 167 LINE SMOOTH",
"209 167 OFFCURVE",
"224 180 OFFCURVE",
"224 205 CURVE"
);
}
);
width = 241;
}
);
unicode = FB29;
},
{
glyphname = shinshindot;
layers = (
{
layerId = "EC1CA293-A2FE-4C5B-B0FE-1EC2B6DFF2A6";
paths = (
{
closed = 1;
nodes = (
"622 710 OFFCURVE",
"596 733 OFFCURVE",
"569 733 CURVE SMOOTH",
"542 733 OFFCURVE",
"516 710 OFFCURVE",
"516 682 CURVE SMOOTH",
"516 653 OFFCURVE",
"542 628 OFFCURVE",
"569 628 CURVE SMOOTH",
"596 628 OFFCURVE",
"622 653 OFFCURVE",
"622 682 CURVE SMOOTH"
);
},
{
closed = 1;
nodes = (
"428 585 LINE",
"284 585 LINE",
"284 303 LINE",
"268 251 LINE",
"331 192 LINE",
"395 241 LINE SMOOTH",
"418 258 OFFCURVE",
"428 276 OFFCURVE",
"428 307 CURVE SMOOTH"
);
},
{
closed = 1;
nodes = (
"643 585 LINE",
"495 585 LINE",
"495 159 LINE SMOOTH",
"495 155 OFFCURVE",
"490 150 OFFCURVE",
"486 150 CURVE SMOOTH",
"215 150 LINE",
"215 585 LINE",
"67 585 LINE",
"67 1 LINE",
"483 1 LINE SMOOTH",
"564 1 OFFCURVE",
"643 82 OFFCURVE",
"643 161 CURVE SMOOTH"
);
}
);
width = 705;
}
);
unicode = FB2A;
},
{
glyphname = shinsindot;
layers = (
{
layerId = "EC1CA293-A2FE-4C5B-B0FE-1EC2B6DFF2A6";
paths = (
{
closed = 1;
nodes = (
"194 710 OFFCURVE",
"168 733 OFFCURVE",
"141 733 CURVE SMOOTH",
"114 733 OFFCURVE",
"88 710 OFFCURVE",
"88 682 CURVE SMOOTH",
"88 653 OFFCURVE",
"114 628 OFFCURVE",
"141 628 CURVE SMOOTH",
"168 628 OFFCURVE",
"194 653 OFFCURVE",
"194 682 CURVE SMOOTH"
);
},
{
closed = 1;
nodes = (
"428 585 LINE",
"284 585 LINE",
"284 303 LINE",
"268 251 LINE",
"331 192 LINE",
"395 241 LINE SMOOTH",
"418 258 OFFCURVE",
"428 276 OFFCURVE",
"428 307 CURVE SMOOTH"
);
},
{
closed = 1;
nodes = (
"643 585 LINE",
"495 585 LINE",
"495 159 LINE SMOOTH",
"495 155 OFFCURVE",
"490 150 OFFCURVE",
"486 150 CURVE SMOOTH",
"215 150 LINE",
"215 585 LINE",
"67 585 LINE",
"67 1 LINE",
"483 1 LINE SMOOTH",
"564 1 OFFCURVE",
"643 82 OFFCURVE",
"643 161 CURVE SMOOTH"
);
}
);
width = 705;
}
);
unicode = FB2B;
},
{
glyphname = vavdagesh;
layers = (
{
layerId = "EC1CA293-A2FE-4C5B-B0FE-1EC2B6DFF2A6";
paths = (
{
closed = 1;
nodes = (
"69 271 OFFCURVE",
"44 247 OFFCURVE",
"17 247 CURVE SMOOTH",
"-11 247 OFFCURVE",
"-35 271 OFFCURVE",
"-35 298 CURVE SMOOTH",
"-35 327 OFFCURVE",
"-11 351 OFFCURVE",
"17 351 CURVE SMOOTH",
"45 351 OFFCURVE",
"69 329 OFFCURVE",
"69 298 CURVE SMOOTH"
);
},
{
closed = 1;
nodes = (
"268 1 LINE",
"268 585 LINE",
"40 585 LINE",
"40 436 LINE",
"106 436 LINE",
"106 1 LINE"
);
}
);
width = 313;
}
);
unicode = FB35;
},
{
glyphname = vavholam;
layers = (
{
layerId = "EC1CA293-A2FE-4C5B-B0FE-1EC2B6DFF2A6";
paths = (
{
closed = 1;
nodes = (
"268 1 LINE",
"268 585 LINE",
"40 585 LINE",
"40 436 LINE",
"106 436 LINE",
"106 1 LINE"
);
},
{
closed = 1;
nodes = (
"216 710 OFFCURVE",
"190 733 OFFCURVE",
"163 733 CURVE SMOOTH",
"136 733 OFFCURVE",
"110 710 OFFCURVE",
"110 682 CURVE SMOOTH",
"110 653 OFFCURVE",
"136 628 OFFCURVE",
"163 628 CURVE SMOOTH",
"190 628 OFFCURVE",
"216 653 OFFCURVE",
"216 682 CURVE SMOOTH"
);
}
);
width = 313;
}
);
unicode = FB4B;
},
{
glyphname = zerowidthnonjoiner;
layers = (
{
layerId = "EC1CA293-A2FE-4C5B-B0FE-1EC2B6DFF2A6";
paths = (
{
closed = 1;
nodes = (
"232 -69 LINE",
"232 676 LINE",
"70 676 LINE",
"70 -69 LINE"
);
}
);
width = 302;
}
);
unicode = 200C;
},
